{
.appVersion = "3151";
.formatVersion = 3;
DisplayStrings = (
"RISD GRAD
SHOW 2024


ABCDEFGHIJKLMNOPQRSTUVWXYZ"
);
axes = (
{
name = Burst;
tag = BRST;
}
);
customParameters = (
{
name = vendorID;
value = PfEd;
},
{
name = panose;
value = (
2,
0,
5,
3,
0,
0,
0,
0,
0,
0
);
},
{
name = unicodeRanges;
value = (
0,
1
);
},
{
name = codePageRanges;
value = (
"1252"
);
},
{
name = fsType;
value = (
);
},
{
name = blueScale;
value = 0.04;
},
{
name = glyphOrder;
value = (
.notdef,
space,
ampersand,
A,
B,
C,
D,
E,
F,
G,
H,
I,
J,
K,
L,
M,
N,
O,
P,
Q,
R,
S,
T,
U,
V,
W,
X,
Y,
Z,
a,
b,
c,
d,
e,
f,
g,
h,
i,
j,
k,
l,
m,
n,
o,
p,
q,
r,
s,
t,
u,
v,
w,
x,
y,
z,
acute,
grave,
circumflex,
tilde,
dieresis,
ring,
cedilla,
Aacute,
Agrave,
Acircumflex,
Atilde,
Adieresis,
Aring,
AE,
Ccedilla,
Eacute,
Egrave,
Ecircumflex,
Edieresis,
Iacute,
Igrave,
Icircumflex,
Idieresis,
Ntilde,
Oacute,
Ograve,
Ocircumflex,
Oslash,
Odieresis,
Otilde,
OE,
Uacute,
Ugrave,
Ucircumflex,
Udieresis,
Yacute,
Ydieresis,
aacute,
agrave,
acircumflex,
atilde,
adieresis,
aring,
ae,
ccedilla,
eacute,
egrave,
ecircumflex,
edieresis,
iacute,
igrave,
icircumflex,
idieresis,
dotlessi,
ntilde,
oacute,
ograve,
ocircumflex,
oslash,
odieresis,
otilde,
oe,
germandbls,
uacute,
ugrave,
ucircumflex,
udieresis,
yacute,
ydieresis,
period,
comma,
colon,
semicolon,
ellipsis,
hyphen,
exclam,
question,
exclamdown,
questiondown,
quoteleft,
quoteright,
quotedblleft,
quotedblright,
quotesinglbase,
quotedblbase,
quotesingle,
quotedbl,
guillemotleft,
guillemotright,
parenleft,
parenright,
braceleft,
braceright,
bracketleft,
bracketright,
underscore,
endash,
emdash,
bullet,
periodcentered,
asterisk,
paragraph,
section,
dagger,
daggerdbl,
at,
uni2116,
numbersign,
backslash,
slash,
bar,
brokenbar,
asciicircum,
asciitilde,
Euro,
dollar,
cent,
sterling,
yen,
copyright,
registered,
zero,
one,
two,
three,
four,
five,
six,
seven,
eight,
nine,
percent,
perthousand,
onehalf,
onequarter,
threequarters,
plus,
minus,
plusminus,
multiply,
divide,

glyphs = (
{
glyphname = .notdef;
lastChange = "2024-02-26 21:22:18 +0000";
layers = (
{
hints = (
{
horizontal = 1;
place = (0, 680);
place = (0, 680);
type = Stem;
},
{
place = (80, 160);
place = (80, 160);
type = Stem;
}
);
layerId = m01;
shapes = (
{
closed = 1;
nodes = (
(40,680,l),
(280,680,l),
(280,0,l),
(40,0,l)
);
},
{
closed = 1;
nodes = (
(240,40,l),
(240,640,l),
(80,640,l),
(80,40,l)
);
}
);
width = 360;
},
{
hints = (
{
horizontal = 1;
place = (0, 680);
place = (0, 680);
type = Stem;
},
{
place = (80, 160);
place = (80, 160);
type = Stem;
}
);
layerId = "45DABB71-BDAF-41D9-9CB5-36007FEF02C0";
shapes = (
{
closed = 1;
nodes = (
(40,680,l),
(280,680,l),
(280,0,l),
(40,0,l)
);
},
{
closed = 1;
nodes = (
(240,40,l),
(240,640,l),
(80,640,l),
(80,40,l)
);
}
);
width = 360;
}
);
note = ".notdef";
},
{
glyphname = ampersand;
kernRight = ampersand;
lastChange = "2024-02-26 21:22:18 +0000";
layers = (
{
hints = (
{
horizontal = 1;
place = (0, 80);
place = (0, 80);
type = Stem;
},
{
horizontal = 1;
place = (400, 40);
place = (400, 40);
type = Stem;
},
{
horizontal = 1;
place = (640, 40);
place = (640, 40);
type = Stem;
},
{
horizontal = 1;
place = (760, 40);
place = (760, 40);
type = Stem;
},
{
place = (40, 800);
place = (40, 800);
type = Stem;
},
{
horizontal = 1;
place = (600, 80);
place = (600, 80);
type = Stem;
}
);
layerId = m01;
shapes = (
{
closed = 1;
nodes = (
(200,360,l),
(280,600,l),
(480,760,l),
(520,760,l),
(560,720,l),
(600,600,l),
(640,600,l),
(680,640,l),
(640,760,l),
(520,800,l),
(440,800,l),
(280,720,l),
(160,600,l),
(80,480,l),
(40,280,l),
(120,80,l),
(240,0,l),
(280,0,l),
(360,40,l),
(440,120,l),
(440,40,l),
(480,0,l),
(520,0,l),
(600,40,l),
(800,240,l),
(760,280,l),
(560,80,l),
(520,80,l),
(680,400,l),
(840,400,l),
(840,440,l),
(680,440,l),
(800,680,l),
(720,680,l),
(640,480,l),
(560,440,l),
(240,440,l),
(240,400,l),
(560,400,l),
(520,320,l),
(440,200,l),
(320,80,l),
(280,80,l),
(200,240,l)
);
}
);
width = 800;
},
{
hints = (
{
horizontal = 1;
place = (0, 80);
place = (0, 80);
type = Stem;
},
{
horizontal = 1;
place = (400, 40);
place = (400, 40);
type = Stem;
},
{
horizontal = 1;
place = (640, 40);
place = (640, 40);
type = Stem;
},
{
horizontal = 1;
place = (760, 40);
place = (760, 40);
type = Stem;
},
{
place = (40, 800);
place = (40, 800);
type = Stem;
},
{
horizontal = 1;
place = (600, 80);
place = (600, 80);
type = Stem;
}
);
layerId = "45DABB71-BDAF-41D9-9CB5-36007FEF02C0";
shapes = (
{
closed = 1;
nodes = (
(200,360,l),
(280,600,l),
(480,760,l),
(520,760,l),
(560,720,l),
(600,600,l),
(640,600,l),
(680,640,l),
(640,760,l),
(520,800,l),
(440,800,l),
(280,720,l),
(160,600,l),
(80,480,l),
(40,280,l),
(120,80,l),
(240,0,l),
(280,0,l),
(360,40,l),
(440,120,l),
(440,40,l),
(480,0,l),
(520,0,l),
(600,40,l),
(800,240,l),
(760,280,l),
(560,80,l),
(520,80,l),
(680,400,l),
(840,400,l),
(840,440,l),
(680,440,l),
(800,680,l),
(720,680,l),
(640,480,l),
(560,440,l),
(240,440,l),
(240,400,l),
(560,400,l),
(520,320,l),
(440,200,l),
(320,80,l),
(280,80,l),
(200,240,l)
);
}
);
width = 800;
}
);
note = ampersand;
unicode = 38;
},
{
glyphname = A;
kernLeft = A;
kernRight = A;
lastChange = "2024-02-26 21:24:15 +0000";
layers = (
{
hints = (
{
horizontal = 1;
place = (0, 840);
place = (0, 840);
type = Stem;
},
{
place = (-40, 800);
place = (-40, 800);
type = Stem;
}
);
layerId = m01;
shapes = (
{
closed = 1;
nodes = (
(207,142,l),
(160,80,l),
(240,0,l),
(-40,0,l),
(80,80,l),
(151,174,l)
);
},
{
closed = 1;
nodes = (
(680,219,l),
(680,80,l),
(760,0,l),
(480,0,l),
(560,80,l),
(560,172,l)
);
},
{
closed = 1;
nodes = (
(680,475,l),
(680,219,l),
(560,172,l),
(560,200,l),
(520,240,l),
(280,240,l),
(207,142,l),
(151,174,l),
(395,500,l),
(427,454,l),
(360,360,l),
(320,280,l),
(520,280,l),
(560,320,l),
(560,518,l)
);
},
{
closed = 1;
nodes = (
(560,518,l),
(560,640,l),
(427,454,l),
(395,500,l),
(560,720,l),
(560,760,l),
(680,840,l),
(680,475,l)
);
}
);
width = 800;
},
{
hints = (
{
horizontal = 1;
place = (0, 840);
place = (0, 840);
type = Stem;
},
{
place = (-40, 800);
place = (-40, 800);
type = Stem;
}
);
layerId = "45DABB71-BDAF-41D9-9CB5-36007FEF02C0";
shapes = (
{
closed = 1;
nodes = (
(-834,-2729,l),
(-833,-2807,l),
(-721,-2821,l),
(-942,-2993,l),
(-896,-2856,l),
(-898,-2738,l)
);
},
{
closed = 1;
nodes = (
(2530,-1024,l),
(2603,-1142,l),
(2713,-1168,l),
(2475,-1316,l),
(2501,-1205,l),
(2452,-1127,l)
);
},
{
closed = 1;
nodes = (
(-3417,875,l),
(-3608,705,l),
(-3723,763,l),
(-3702,782,l),
(-3699,838,l),
(-3858,1018,l),
(-3980,1008,l),
(-3993,1071,l),
(-3587,1104,l),
(-3600,1050,l),
(-3715,1038,l),
(-3802,1015,l),
(-3669,865,l),
(-3612,862,l),
(-3464,993,l)
);
},
{
closed = 1;
nodes = (
(1782,1776,l),
(1834,1886,l),
(1634,1776,l),
(1625,1831,l),
(1869,1959,l),
(1886,1995,l),
(2029,2015,l),
(1871,1686,l)
);
}
);
width = 800;
}
);
note = A;
unicode = 65;
},
{
glyphname = B;
kernRight = B;
lastChange = "2024-02-26 21:22:18 +0000";
layers = (
{
hints = (
{
horizontal = 1;
place = (40, 40);
place = (40, 40);
type = Stem;
},
{
horizontal = 1;
place = (600, -20);
target = down;
type = TopGhost;
},
{
place = (0, 760);
place = (0, 760);
type = Stem;
}
);
layerId = m01;
shapes = (
{
closed = 1;
nodes = (
(693,346,l),
(720,240,l),
(600,80,l),
(400,0,l),
(0,0,l),
(80,80,l),
(126,228,l),
(233,187,l),
(200,80,l),
(240,40,l),
(320,40,l),
(480,120,l),
(560,240,l),
(548,276,l)
);
},
{
closed = 1;
nodes = (
(126,228,l),
(246,611,l),
(361,596,l),
(233,187,l)
);
},
{
closed = 1;
nodes = (
(559,792,l),
(720,760,l),
(760,600,l),
(640,480,l),
(560,440,l),
(680,400,l),
(693,346,l),
(548,276,l),
(520,360,l),
(440,400,l),
(320,400,l),
(320,440,l),
(400,440,l),
(520,480,l),
(600,600,l),
(600,720,l),
(545,748,l)
);
},
{
closed = 1;
nodes = (
(545,748,l),
(520,760,l),
(440,760,l),
(400,720,l),
(361,596,l),
(246,611,l),
(280,720,l),
(200,800,l),
(520,800,l),
(559,792,l)
);
}
);
width = 760;
},
{
hints = (
{
horizontal = 1;
place = (40, 40);
place = (40, 40);
type = Stem;
},
{
horizontal = 1;
place = (600, -20);
target = down;
type = TopGhost;
},
{
place = (0, 760);
place = (0, 760);
type = Stem;
}
);
layerId = "45DABB71-BDAF-41D9-9CB5-36007FEF02C0";
shapes = (
{
closed = 1;
nodes = (
(693,346,l),
(720,240,l),
(600,80,l),
(400,0,l),
(0,0,l),
(80,80,l),
(126,228,l),
(233,187,l),
(200,80,l),
(240,40,l),
(320,40,l),
(480,120,l),
(560,240,l),
(548,276,l)
);
},
{
closed = 1;
nodes = (
(126,228,l),
(246,611,l),
(361,596,l),
(233,187,l)
);
},
{
closed = 1;
nodes = (
(559,792,l),
(720,760,l),
(760,600,l),
(640,480,l),
(560,440,l),
(680,400,l),
(693,346,l),
(548,276,l),
(520,360,l),
(440,400,l),
(320,400,l),
(320,440,l),
(400,440,l),
(520,480,l),
(600,600,l),
(600,720,l),
(545,748,l)
);
},
{
closed = 1;
nodes = (
(545,748,l),
(520,760,l),
(440,760,l),
(400,720,l),
(361,596,l),
(246,611,l),
(280,720,l),
(200,800,l),
(520,800,l),
(559,792,l)
);
}
);
width = 760;
}
);
note = B;
unicode = 66;
},
{
glyphname = C;
kernRight = C;
lastChange = "2024-02-26 21:22:18 +0000";
layers = (
{
hints = (
{
horizontal = 1;
place = (0, 40);
place = (0, 40);
type = Stem;
},
{
horizontal = 1;
place = (760, 40);
place = (760, 40);
type = Stem;
},
{
place = (640, 80);
place = (640, 80);
type = Stem;
}
);
layerId = m01;
shapes = (
{
closed = 1;
nodes = (
(386,685,l),
(480,760,l),
(560,760,l),
(640,680,l),
(640,560,l),
(720,560,l),
(800,640,l),
(760,720,l),
(560,800,l),
(440,800,l),
(341,750,l)
);
},
{
closed = 1;
nodes = (
(215,181,l),
(200,240,l),
(200,360,l),
(280,600,l),
(386,685,l),
(341,750,l),
(280,720,l),
(160,600,l),
(80,480,l),
(40,280,l),
(94,145,l)
);
},
{
closed = 1;
nodes = (
(514,49,l),
(560,80,l),
(680,200,l),
(640,240,l),
(520,120,l),
(476,90,l)
);
},
{
closed = 1;
nodes = (
(476,90,l),
(400,40,l),
(320,40,l),
(240,80,l),
(215,181,l),
(94,145,l),
(120,80,l),
(280,0,l),
(440,0,l),
(514,49,l)
);
}
);
width = 720;
},
{
hints = (
{
horizontal = 1;
place = (0, 40);
place = (0, 40);
type = Stem;
},
{
horizontal = 1;
place = (760, 40);
place = (760, 40);
type = Stem;
},
{
place = (640, 80);
place = (640, 80);
type = Stem;
}
);
layerId = "45DABB71-BDAF-41D9-9CB5-36007FEF02C0";
shapes = (
{
closed = 1;
nodes = (
(386,685,l),
(480,760,l),
(560,760,l),
(640,680,l),
(640,560,l),
(720,560,l),
(800,640,l),
(760,720,l),
(560,800,l),
(440,800,l),
(341,750,l)
);
},
{
closed = 1;
nodes = (
(215,181,l),
(200,240,l),
(200,360,l),
(280,600,l),
(386,685,l),
(341,750,l),
(280,720,l),
(160,600,l),
(80,480,l),
(40,280,l),
(94,145,l)
);
},
{
closed = 1;
nodes = (
(514,49,l),
(560,80,l),
(680,200,l),
(640,240,l),
(520,120,l),
(476,90,l)
);
},
{
closed = 1;
nodes = (
(476,90,l),
(400,40,l),
(320,40,l),
(240,80,l),
(215,181,l),
(94,145,l),
(120,80,l),
(280,0,l),
(440,0,l),
(514,49,l)
);
}
);
width = 720;
}
);
note = C;
unicode = 67;
},
{
glyphname = D;
kernRight = D;
lastChange = "2024-02-26 21:23:39 +0000";
layers = (
{
hints = (
{
horizontal = 1;
place = (40, 40);
place = (40, 40);
type = Stem;
},
{
place = (-40, 880);
place = (-40, 880);
type = Stem;
}
);
layerId = m01;
shapes = (
{
closed = 1;
nodes = (
(645,125,l),
(600,80,l),
(440,0,l),
(-40,0,l),
(80,80,l),
(124,220,l),
(230,177,l),
(200,80,l),
(240,40,l),
(400,40,l),
(480,80,l),
(560,160,l)
);
},
{
closed = 1;
nodes = (
(822,566,l),
(840,520,l),
(800,320,l),
(720,200,l),
(645,125,l),
(560,160,l),
(600,200,l),
(680,440,l),
(680,513,l)
);
},
{
closed = 1;
nodes = (
(419,739,l),
(400,720,l),
(230,177,l),
(124,220,l),
(280,720,l),
(200,800,l),
(366,800,l)
);
},
{
closed = 1;
nodes = (
(366,800,l),
(560,800,l),
(760,720,l),
(822,566,l),
(680,513,l),
(680,560,l),
(640,720,l),
(560,760,l),
(440,760,l),
(419,739,l)
);
}
);
width = 840;
},
{
hints = (
{
horizontal = 1;
place = (40, 40);
place = (40, 40);
type = Stem;
},
{
place = (-40, 880);
place = (-40, 880);
type = Stem;
}
);
layerId = "45DABB71-BDAF-41D9-9CB5-36007FEF02C0";
shapes = (
{
closed = 1;
nodes = (
(-196,-2762,l),
(-255,-2785,l),
(-434,-2791,l),
(-871,-2593,l),
(-729,-2570,l),
(-631,-2461,l),
(-552,-2544,l),
(-620,-2619,l),
(-600,-2672,l),
(-454,-2738,l),
(-365,-2735,l),
(-259,-2695,l)
);
},
{
closed = 1;
nodes = (
(3317,-79,l),
(3358,-106,l),
(3441,-292,l),
(3445,-436,l),
(3428,-541,l),
(3338,-562,l),
(3348,-506,l),
(3274,-264,l),
(3232,-204,l)
);
},
{
closed = 1;
nodes = (
(-2727,2388,l),
(-2752,2376,l),
(-3096,1923,l),
(-3181,2000,l),
(-2864,2417,l),
(-2913,2519,l),
(-2756,2463,l)
);
},
{
closed = 1;
nodes = (
(695,3469,l),
(874,3543,l),
(1089,3546,l),
(1206,3428,l),
(1095,3325,l),
(1077,3368,l),
(978,3500,l),
(889,3507,l),
(778,3460,l),
(767,3433,l)
);
}
);
width = 840;
}
);
note = D;
unicode = 68;
},
{
glyphname = E;
kernRight = E;
lastChange = "2024-02-26 21:22:18 +0000";
layers = (
{
hints = (
{
horizontal = 1;
place = (40, 40);
place = (40, 40);
type = Stem;
},
{
horizontal = 1;
place = (240, 160);
place = (240, 160);
type = Stem;
},
{
horizontal = 1;
place = (600, -20);
target = down;
type = TopGhost;
},
{
place = (-40, 840);
place = (-40, 840);
type = Stem;
},
{
horizontal = 1;
place = (440, 320);
place = (440, 320);
type = Stem;
}
);
layerId = m01;
shapes = (
{
closed = 1;
nodes = (
(222,157,l),
(200,80,l),
(240,40,l),
(480,40,l),
(600,240,l),
(640,240,l),
(600,-40,l),
(520,0,l),
(-40,0,l),
(80,80,l),
(111,180,l)
);
},
{
closed = 1;
nodes = (
(571,800,l),
(600,800,l),
(760,840,l),
(800,600,l),
(760,600,l),
(640,760,l),
(556,760,l)
);
},
{
closed = 1;
nodes = (
(111,180,l),
(223,537,l),
(354,582,l),
(320,480,l),
(320,440,l),
(480,440,l),
(560,520,l),
(560,320,l),
(480,400,l),
(320,400,l),
(280,360,l),
(222,157,l)
);
},
{
closed = 1;
nodes = (
(556,760,l),
(440,760,l),
(400,720,l),
(354,582,l),
(223,537,l),
(280,720,l),
(200,800,l),
(571,800,l)
);
}
);
width = 720;
},
{
hints = (
{
horizontal = 1;
place = (40, 40);
place = (40, 40);
type = Stem;
},
{
horizontal = 1;
place = (240, 160);
place = (240, 160);
type = Stem;
},
{
horizontal = 1;
place = (600, -20);
target = down;
type = TopGhost;
},
{
place = (-40, 840);
place = (-40, 840);
type = Stem;
},
{
horizontal = 1;
place = (440, 320);
place = (440, 320);
type = Stem;
}
);
layerId = "45DABB71-BDAF-41D9-9CB5-36007FEF02C0";
shapes = (
{
closed = 1;
nodes = (
(222,157,l),
(200,80,l),
(240,40,l),
(480,40,l),
(600,240,l),
(640,240,l),
(600,-40,l),
(520,0,l),
(-40,0,l),
(80,80,l),
(111,180,l)
);
},
{
closed = 1;
nodes = (
(571,800,l),
(600,800,l),
(760,840,l),
(800,600,l),
(760,600,l),
(640,760,l),
(556,760,l)
);
},
{
closed = 1;
nodes = (
(111,180,l),
(223,537,l),
(354,582,l),
(320,480,l),
(320,440,l),
(480,440,l),
(560,520,l),
(560,320,l),
(480,400,l),
(320,400,l),
(280,360,l),
(222,157,l)
);
},
{
closed = 1;
nodes = (
(556,760,l),
(440,760,l),
(400,720,l),
(354,582,l),
(223,537,l),
(280,720,l),
(200,800,l),
(571,800,l)
);
}
);
width = 720;
}
);
note = E;
unicode = 69;
},
{
glyphname = F;
kernRight = F;
lastChange = "2024-02-26 21:22:18 +0000";
layers = (
{
hints = (
{
horizontal = 1;
place = (600, -20);
target = down;
type = TopGhost;
},
{
place = (-40, 840);
place = (-40, 840);
type = Stem;
},
{
horizontal = 1;
place = (440, 320);
place = (440, 320);
type = Stem;
}
);
layerId = m01;
shapes = (
{
closed = 1;
nodes = (
(220,151,l),
(200,80,l),
(280,0,l),
(-40,0,l),
(80,80,l),
(118,202,l)
);
},
{
closed = 1;
nodes = (
(482,800,l),
(600,800,l),
(760,840,l),
(800,600,l),
(760,600,l),
(640,760,l),
(512,760,l)
);
},
{
closed = 1;
nodes = (
(231,562,l),
(280,720,l),
(200,800,l),
(482,800,l),
(512,760,l),
(440,760,l),
(400,720,l),
(356,588,l)
);
},
{
closed = 1;
nodes = (
(118,202,l),
(231,562,l),
(356,588,l),
(320,480,l),
(320,440,l),
(480,440,l),
(560,520,l),
(560,320,l),
(480,400,l),
(320,400,l),
(280,360,l),
(220,151,l)
);
}
);
width = 640;
},
{
hints = (
{
horizontal = 1;
place = (600, -20);
target = down;
type = TopGhost;
},
{
place = (-40, 840);
place = (-40, 840);
type = Stem;
},
{
horizontal = 1;
place = (440, 320);
place = (440, 320);
type = Stem;
}
);
layerId = "45DABB71-BDAF-41D9-9CB5-36007FEF02C0";
shapes = (
{
closed = 1;
nodes = (
(220,151,l),
(200,80,l),
(280,0,l),
(-40,0,l),
(80,80,l),
(118,202,l)
);
},
{
closed = 1;
nodes = (
(482,800,l),
(600,800,l),
(760,840,l),
(800,600,l),
(760,600,l),
(640,760,l),
(512,760,l)
);
},
{
closed = 1;
nodes = (
(231,562,l),
(280,720,l),
(200,800,l),
(482,800,l),
(512,760,l),
(440,760,l),
(400,720,l),
(356,588,l)
);
},
{
closed = 1;
nodes = (
(118,202,l),
(231,562,l),
(356,588,l),
(320,480,l),
(320,440,l),
(480,440,l),
(560,520,l),
(560,320,l),
(480,400,l),
(320,400,l),
(280,360,l),
(220,151,l)
);
}
);
width = 640;
}
);
note = F;
unicode = 70;
},
{
glyphname = G;
lastChange = "2024-02-26 21:23:59 +0000";
layers = (
{
hints = (
{
horizontal = 1;
place = (320, 240);
place = (320, 240);
type = Stem;
},
{
place = (40, 760);
place = (40, 760);
type = Stem;
}
);
layerId = m01;
shapes = (
{
closed = 1;
nodes = (
(545,65,l),
(520,40,l),
(440,0,l),
(280,0,l),
(120,80,l),
(98,136,l),
(211,206,l),
(240,120,l),
(360,40,l),
(400,40,l),
(480,80,l),
(501,101,l)
);
},
{
closed = 1;
nodes = (
(359,759,l),
(440,800,l),
(560,800,l),
(760,720,l),
(800,640,l),
(720,560,l),
(640,560,l),
(640,680,l),
(560,760,l),
(480,760,l),
(395,692,l)
);
},
{
closed = 1;
nodes = (
(98,136,l),
(40,280,l),
(80,480,l),
(160,600,l),
(280,720,l),
(359,759,l),
(395,692,l),
(280,600,l),
(200,360,l),
(200,240,l),
(211,206,l)
);
},
{
closed = 1;
nodes = (
(501,101,l),
(520,120,l),
(560,240,l),
(520,320,l),
(760,320,l),
(680,240,l),
(600,120,l),
(545,65,l)
);
}
);
width = 760;
},
{
hints = (
{
horizontal = 1;
place = (320, 240);
place = (320, 240);
type = Stem;
},
{
place = (40, 760);
place = (40, 760);
type = Stem;
}
);
layerId = "45DABB71-BDAF-41D9-9CB5-36007FEF02C0";
shapes = (
{
closed = 1;
nodes = (
(-481,-3713,l),
(-511,-3731,l),
(-598,-3752,l),
(-754,-3717,l),
(-892,-3603,l),
(-901,-3543,l),
(-775,-3500,l),
(-766,-3591,l),
(-667,-3696,l),
(-628,-3705,l),
(-541,-3683,l),
(-516,-3668,l)
);
},
{
closed = 1;
nodes = (
(1950,3147,l),
(2040,3159,l),
(2153,3120,l),
(2316,2979,l),
(2328,2891,l),
(2226,2841,l),
(2151,2867,l),
(2190,2981,l),
(2140,3082,l),
(2065,3109,l),
(1962,3072,l)
);
},
{
closed = 1;
nodes = (
(-3234,2195,l),
(-3199,2347,l),
(-3052,2487,l),
(-2917,2540,l),
(-2750,2569,l),
(-2663,2555,l),
(-2672,2480,l),
(-2819,2471,l),
(-3022,2320,l),
(-3091,2222,l),
(-3102,2188,l)
);
},
{
closed = 1;
nodes = (
(3381,1314,l),
(3393,1339,l),
(3392,1465,l),
(3329,1528,l),
(3556,1605,l),
(3506,1504,l),
(3469,1364,l),
(3434,1295,l)
);
}
);
width = 760;
}
);
note = G;
unicode = 71;
},
{
glyphname = H;
kernRight = H;
lastChange = "2024-02-26 21:24:37 +0000";
layers = (
{
hints = (
{
horizontal = 1;
place = (0, 800);
place = (0, 800);
type = Stem;
},
{
place = (-40, 1120);
place = (-40, 1120);
type = Stem;
}
);
layerId = m01;
shapes = (
{
closed = 1;
nodes = (
(221,155,l),
(200,80,l),
(280,0,l),
(-40,0,l),
(80,80,l),
(125,224,l)
);
},
{
closed = 1;
nodes = (
(237,582,l),
(280,720,l),
(200,800,l),
(520,800,l),
(400,720,l),
(368,625,l)
);
},
{
closed = 1;
nodes = (
(932,632,l),
(760,80,l),
(840,0,l),
(520,0,l),
(640,80,l),
(720,360,l),
(720,400,l),
(532,400,l),
(557,440,l),
(720,440,l),
(760,480,l),
(791,573,l)
);
},
{
closed = 1;
nodes = (
(532,400,l),
(320,400,l),
(280,360,l),
(221,155,l),
(125,224,l),
(237,582,l),
(368,625,l),
(320,480,l),
(320,440,l),
(557,440,l)
);
},
{
closed = 1;
nodes = (
(791,573,l),
(840,720,l),
(760,800,l),
(1080,800,l),
(960,720,l),
(932,632,l)
);
}
);
width = 920;
},
{
hints = (
{
horizontal = 1;
place = (0, 800);
place = (0, 800);
type = Stem;
},
{
place = (-40, 1120);
place = (-40, 1120);
type = Stem;
}
);
layerId = "45DABB71-BDAF-41D9-9CB5-36007FEF02C0";
shapes = (
{
closed = 1;
nodes = (
(-275,-2238,l),
(-272,-2316,l),
(-169,-2366,l),
(-473,-2467,l),
(-385,-2354,l),
(-388,-2203,l)
);
},
{
closed = 1;
nodes = (
(857,2922,l),
(932,3046,l),
(873,3143,l),
(1184,3066,l),
(1048,3017,l),
(994,2933,l)
);
},
{
closed = 1;
nodes = (
(4256,-1746,l),
(3835,-2143,l),
(3866,-2252,l),
(3587,-2095,l),
(3731,-2084,l),
(3938,-1879,l),
(3957,-1844,l),
(3793,-1752,l),
(3835,-1730,l),
(3977,-1809,l),
(4031,-1794,l),
(4104,-1728,l)
);
},
{
closed = 1;
nodes = (
(-1993,1744,l),
(-2194,1812,l),
(-2245,1787,l),
(-2367,1612,l),
(-2435,1709,l),
(-2214,2011,l),
(-2076,2010,l),
(-2168,1888,l),
(-2181,1850,l),
(-1957,1773,l)
);
},
{
closed = 1;
nodes = (
(2129,2861,l),
(2230,2978,l),
(2186,3083,l),
(2482,2962,l),
(2341,2933,l),
(2282,2862,l)
);
}
);
width = 920;
}
);
note = H;
unicode = 72;
},
{
glyphname = I;
kernRight = H;
lastChange = "2024-02-26 21:23:08 +0000";
layers = (
{
hints = (
{
horizontal = 1;
place = (0, 800);
place = (0, 800);
type = Stem;
},
{
place = (-40, 560);
place = (-40, 560);
type = Stem;
}
);
layerId = m01;
shapes = (
{
closed = 1;
nodes = (
(248,233,l),
(200,80,l),
(280,0,l),
(-40,0,l),
(80,80,l),
(116,196,l)
);
},
{
closed = 1;
nodes = (
(255,641,l),
(280,720,l),
(200,800,l),
(520,800,l),
(400,720,l),
(343,538,l)
);
},
{
closed = 1;
nodes = (
(116,196,l),
(255,641,l),
(343,538,l),
(248,233,l)
);
}
);
width = 400;
},
{
hints = (
{
horizontal = 1;
place = (0, 800);
place = (0, 800);
type = Stem;
},
{
place = (-40, 560);
place = (-40, 560);
type = Stem;
}
);
layerId = "45DABB71-BDAF-41D9-9CB5-36007FEF02C0";
shapes = (
{
closed = 1;
nodes = (
(-404,-2437,l),
(-497,-2568,l),
(-446,-2669,l),
(-751,-2571,l),
(-611,-2532,l),
(-541,-2432,l)
);
},
{
closed = 1;
nodes = (
(1923,2283,l),
(1975,2347,l),
(1930,2451,l),
(2228,2334,l),
(2087,2303,l),
(1967,2155,l)
);
},
{
closed = 1;
nodes = (
(-3061,1500,l),
(-2638,1696,l),
(-2655,1562,l),
(-2945,1427,l)
);
}
);
width = 400;
}
);
note = I;
unicode = 73;
},
{
glyphname = J;
kernLeft = J;
lastChange = "2024-02-26 21:22:18 +0000";
layers = (
{
hints = (
{
horizontal = 1;
place = (-120, 920);
place = (-120, 920);
type = Stem;
},
{
place = (0, 600);
place = (0, 600);
type = Stem;
}
);
layerId = m01;
shapes = (
{
closed = 1;
nodes = (
(323,249,l),
(280,120,l),
(200,0,l),
(40,-120,l),
(0,-80,l),
(120,40,l),
(160,120,l),
(187,201,l)
);
},
{
closed = 1;
nodes = (
(421,544,l),
(323,249,l),
(187,201,l),
(275,466,l)
);
},
{
closed = 1;
nodes = (
(275,466,l),
(360,720,l),
(280,800,l),
(600,800,l),
(480,720,l),
(421,544,l)
);
}
);
width = 400;
},
{
hints = (
{
horizontal = 1;
place = (-120, 920);
place = (-120, 920);
type = Stem;
},
{
place = (0, 600);
place = (0, 600);
type = Stem;
}
);
layerId = "45DABB71-BDAF-41D9-9CB5-36007FEF02C0";
shapes = (
{
closed = 1;
nodes = (
(323,249,l),
(280,120,l),
(200,0,l),
(40,-120,l),
(0,-80,l),
(120,40,l),
(160,120,l),
(187,201,l)
);
},
{
closed = 1;
nodes = (
(421,544,l),
(323,249,l),
(187,201,l),
(275,466,l)
);
},
{
closed = 1;
nodes = (
(275,466,l),
(360,720,l),
(280,800,l),
(600,800,l),
(480,720,l),
(421,544,l)
);
}
);
width = 400;
}
);
note = J;
unicode = 74;
},
{
glyphname = K;
kernRight = K;
lastChange = "2024-02-26 21:22:18 +0000";
layers = (
{
hints = (
{
horizontal = 1;
place = (0, 21);
target = up;
type = BottomGhost;
},
{
place = (-40, 920);
place = (-40, 920);
type = Stem;
}
);
layerId = m01;
shapes = (
{
closed = 1;
nodes = (
(354,572,l),
(200,80,l),
(280,0,l),
(-40,0,l),
(80,80,l),
(184,412,l)
);
},
{
closed = 1;
nodes = (
(593,231,l),
(680,0,l),
(640,-40,l),
(520,80,l),
(488,159,l)
);
},
{
closed = 1;
nodes = (
(184,412,l),
(280,720,l),
(200,800,l),
(480,800,l),
(400,720,l),
(354,572,l)
);
},
{
closed = 1;
nodes = (
(473,559,l),
(680,720,l),
(600,800,l),
(880,800,l),
(527,535,l)
);
},
{
closed = 1;
nodes = (
(488,159,l),
(440,280,l),
(320,400,l),
(320,440,l),
(473,559,l),
(527,535,l),
(400,440,l),
(560,320,l),
(593,231,l)
);
}
);
width = 760;
},
{
hints = (
{
horizontal = 1;
place = (0, 21);
target = up;
type = BottomGhost;
},
{
place = (-40, 920);
place = (-40, 920);
type = Stem;
}
);
layerId = "45DABB71-BDAF-41D9-9CB5-36007FEF02C0";
shapes = (
{
closed = 1;
nodes = (
(354,572,l),
(200,80,l),
(280,0,l),
(-40,0,l),
(80,80,l),
(184,412,l)
);
},
{
closed = 1;
nodes = (
(593,231,l),
(680,0,l),
(640,-40,l),
(520,80,l),
(488,159,l)
);
},
{
closed = 1;
nodes = (
(184,412,l),
(280,720,l),
(200,800,l),
(480,800,l),
(400,720,l),
(354,572,l)
);
},
{
closed = 1;
nodes = (
(473,559,l),
(680,720,l),
(600,800,l),
(880,800,l),
(527,535,l)
);
},
{
closed = 1;
nodes = (
(488,159,l),
(440,280,l),
(320,400,l),
(320,440,l),
(473,559,l),
(527,535,l),
(400,440,l),
(560,320,l),
(593,231,l)
);
}
);
width = 760;
}
);
note = K;
unicode = 75;
},
{
glyphname = L;
kernRight = L;
lastChange = "2024-02-26 21:22:18 +0000";
layers = (
{
hints = (
{
horizontal = 1;
place = (40, 40);
place = (40, 40);
type = Stem;
},
{
place = (-40, 640);
place = (-40, 640);
type = Stem;
}
);
layerId = m01;
shapes = (
{
closed = 1;
nodes = (
(354,40,l),
(440,40,l),
(560,240,l),
(600,240,l),
(560,-40,l),
(480,0,l),
(341,0,l)
);
},
{
closed = 1;
nodes = (
(224,542,l),
(280,720,l),
(200,800,l),
(520,800,l),
(400,720,l),
(361,595,l)
);
},
{
closed = 1;
nodes = (
(130,240,l),
(224,542,l),
(361,595,l),
(227,166,l)
);
},
{
closed = 1;
nodes = (
(341,0,l),
(-40,0,l),
(80,80,l),
(130,240,l),
(227,166,l),
(200,80,l),
(240,40,l),
(354,40,l)
);
}
);
width = 600;
},
{
hints = (
{
horizontal = 1;
place = (40, 40);
place = (40, 40);
type = Stem;
},
{
place = (-40, 640);
place = (-40, 640);
type = Stem;
}
);
layerId = "45DABB71-BDAF-41D9-9CB5-36007FEF02C0";
shapes = (
{
closed = 1;
nodes = (
(354,40,l),
(440,40,l),
(560,240,l),
(600,240,l),
(560,-40,l),
(480,0,l),
(341,0,l)
);
},
{
closed = 1;
nodes = (
(224,542,l),
(280,720,l),
(200,800,l),
(520,800,l),
(400,720,l),
(361,595,l)
);
},
{
closed = 1;
nodes = (
(130,240,l),
(224,542,l),
(361,595,l),
(227,166,l)
);
},
{
closed = 1;
nodes = (
(341,0,l),
(-40,0,l),
(80,80,l),
(130,240,l),
(227,166,l),
(200,80,l),
(240,40,l),
(354,40,l)
);
}
);
width = 600;
}
);
note = L;
unicode = 76;
},
{
glyphname = M;
kernRight = H;
lastChange = "2024-02-26 21:22:18 +0000";
layers = (
{
hints = (
{
horizontal = 1;
place = (-40, 840);
place = (-40, 840);
type = Stem;
},
{
place = (240, 120);
place = (240, 120);
type = Stem;
}
);
layerId = m01;
shapes = (
{
closed = 1;
nodes = (
(247,377,l),
(160,80,l),
(240,0,l),
(-40,0,l),
(80,80,l),
(189,430,l)
);
},
{
closed = 1;
nodes = (
(611,264,l),
(440,0,l),
(360,-40,l),
(360,328,l),
(480,464,l),
(480,160,l),
(581,322,l)
);
},
{
closed = 1;
nodes = (
(360,328,l),
(360,760,l),
(247,377,l),
(189,430,l),
(280,720,l),
(200,800,l),
(480,800,l),
(480,464,l)
);
},
{
closed = 1;
nodes = (
(902,406,l),
(800,80,l),
(880,0,l),
(560,0,l),
(680,80,l),
(772,356,l)
);
},
{
closed = 1;
nodes = (
(772,356,l),
(880,680,l),
(611,264,l),
(581,322,l),
(880,800,l),
(1120,800,l),
(1000,720,l),
(902,406,l)
);
}
);
width = 1000;
},
{
hints = (
{
horizontal = 1;
place = (-40, 840);
place = (-40, 840);
type = Stem;
},
{
place = (240, 120);
place = (240, 120);
type = Stem;
}
);
layerId = "45DABB71-BDAF-41D9-9CB5-36007FEF02C0";
shapes = (
{
closed = 1;
nodes = (
(247,377,l),
(160,80,l),
(240,0,l),
(-40,0,l),
(80,80,l),
(189,430,l)
);
},
{
closed = 1;
nodes = (
(611,264,l),
(440,0,l),
(360,-40,l),
(360,328,l),
(480,464,l),
(480,160,l),
(581,322,l)
);
},
{
closed = 1;
nodes = (
(360,328,l),
(360,760,l),
(247,377,l),
(189,430,l),
(280,720,l),
(200,800,l),
(480,800,l),
(480,464,l)
);
},
{
closed = 1;
nodes = (
(902,406,l),
(800,80,l),
(880,0,l),
(560,0,l),
(680,80,l),
(772,356,l)
);
},
{
closed = 1;
nodes = (
(772,356,l),
(880,680,l),
(611,264,l),
(581,322,l),
(880,800,l),
(1120,800,l),
(1000,720,l),
(902,406,l)
);
}
);
width = 1000;
}
);
note = M;
unicode = 77;
},
{
glyphname = N;
kernRight = N;
lastChange = "2024-02-26 21:22:18 +0000";
layers = (
{
hints = (
{
horizontal = 1;
place = (-40, 840);
place = (-40, 840);
type = Stem;
},
{
place = (-40, 1040);
place = (-40, 1040);
type = Stem;
}
);
layerId = m01;
shapes = (
{
closed = 1;
nodes = (
(224,297,l),
(160,80,l),
(240,0,l),
(-40,0,l),
(80,80,l),
(143,280,l)
);
},
{
closed = 1;
nodes = (
(756,299,l),
(680,40,l),
(560,-40,l),
(437,452,l),
(550,503,l),
(640,120,l),
(698,337,l)
);
},
{
closed = 1;
nodes = (
(437,452,l),
(360,760,l),
(224,297,l),
(143,280,l),
(280,720,l),
(200,800,l),
(480,800,l),
(550,503,l)
);
},
{
closed = 1;
nodes = (
(698,337,l),
(800,720,l),
(720,800,l),
(1000,800,l),
(880,720,l),
(756,299,l)
);
}
);
width = 880;
},
{
hints = (
{
horizontal = 1;
place = (-40, 840);
place = (-40, 840);
type = Stem;
},
{
place = (-40, 1040);
place = (-40, 1040);
type = Stem;
}
);
layerId = "45DABB71-BDAF-41D9-9CB5-36007FEF02C0";
shapes = (
{
closed = 1;
nodes = (
(224,297,l),
(160,80,l),
(240,0,l),
(-40,0,l),
(80,80,l),
(143,280,l)
);
},
{
closed = 1;
nodes = (
(756,299,l),
(680,40,l),
(560,-40,l),
(437,452,l),
(550,503,l),
(640,120,l),
(698,337,l)
);
},
{
closed = 1;
nodes = (
(437,452,l),
(360,760,l),
(224,297,l),
(143,280,l),
(280,720,l),
(200,800,l),
(480,800,l),
(550,503,l)
);
},
{
closed = 1;
nodes = (
(698,337,l),
(800,720,l),
(720,800,l),
(1000,800,l),
(880,720,l),
(756,299,l)
);
}
);
width = 880;
}
);
note = N;
unicode = 78;
},
{
glyphname = O;
kernRight = D;
lastChange = "2024-02-26 21:24:55 +0000";
layers = (
{
hints = (
{
horizontal = 1;
place = (0, 800);
place = (0, 800);
type = Stem;
},
{
place = (40, 800);
place = (40, 800);
type = Stem;
}
);
layerId = m01;
shapes = (
{
closed = 1;
nodes = (
(645,125,l),
(600,80,l),
(440,0,l),
(320,0,l),
(120,80,l),
(97,138,l),
(213,187,l),
(240,80,l),
(320,40,l),
(400,40,l),
(480,80,l),
(562,162,l)
);
},
{
closed = 1;
nodes = (
(97,138,l),
(40,280,l),
(80,480,l),
(160,600,l),
(280,720,l),
(349,755,l),
(378,679,l),
(280,600,l),
(200,360,l),
(200,240,l),
(213,187,l)
);
},
{
closed = 1;
nodes = (
(802,614,l),
(840,520,l),
(800,320,l),
(720,200,l),
(645,125,l),
(562,162,l),
(600,200,l),
(680,440,l),
(680,560,l),
(674,586,l)
);
},
{
closed = 1;
nodes = (
(674,586,l),
(640,720,l),
(560,760,l),
(480,760,l),
(378,679,l),
(349,755,l),
(440,800,l),
(560,800,l),
(760,720,l),
(802,614,l)
);
}
);
width = 840;
},
{
hints = (
{
horizontal = 1;
place = (0, 800);
place = (0, 800);
type = Stem;
},
{
place = (40, 800);
place = (40, 800);
type = Stem;
}
);
layerId = "45DABB71-BDAF-41D9-9CB5-36007FEF02C0";
shapes = (
{
closed = 1;
nodes = (
(-418,-3378,l),
(-480,-3393,l),
(-658,-3379,l),
(-761,-3317,l),
(-891,-3145,l),
(-881,-3084,l),
(-756,-3101,l),
(-788,-3207,l),
(-740,-3283,l),
(-672,-3324,l),
(-583,-3331,l),
(-470,-3303,l)
);
},
{
closed = 1;
nodes = (
(-3371,586,l),
(-3478,695,l),
(-3519,895,l),
(-3491,1037,l),
(-3427,1194,l),
(-3377,1253,l),
(-3321,1194,l),
(-3381,1083,l),
(-3361,831,l),
(-3315,720,l),
(-3283,677,l)
);
},
{
closed = 1;
nodes = (
(4366,-670,l),
(4365,-771,l),
(4249,-940,l),
(4129,-1020,l),
(4030,-1061,l),
(3968,-994,l),
(4018,-974,l),
(4186,-784,l),
(4232,-673,l),
(4237,-647,l)
);
},
{
closed = 1;
nodes = (
(-33,3288,l),
(-146,3368,l),
(-233,3346,l),
(-293,3294,l),
(-318,3166,l),
(-390,3205,l),
(-350,3298,l),
(-259,3376,l),
(-55,3446,l),
(46,3393,l)
);
}
);
width = 840;
}
);
note = O;
unicode = 79;
},
{
glyphname = P;
kernRight = P;
lastChange = "2024-02-26 21:22:18 +0000";
layers = (
{
hints = (
{
horizontal = 1;
place = (600, -20);
target = down;
type = TopGhost;
},
{
place = (-40, 840);
place = (-40, 840);
type = Stem;
}
);
layerId = m01;
shapes = (
{
closed = 1;
nodes = (
(239,204,l),
(200,80,l),
(280,0,l),
(-40,0,l),
(80,80,l),
(129,238,l)
);
},
{
closed = 1;
nodes = (
(680,449,l),
(640,400,l),
(440,320,l),
(320,360,l),
(320,400,l),
(400,400,l),
(520,440,l),
(561,495,l)
);
},
{
closed = 1;
nodes = (
(561,495,l),
(640,600,l),
(600,720,l),
(520,760,l),
(440,760,l),
(400,720,l),
(368,618,l),
(232,567,l),
(280,720,l),
(200,800,l),
(520,800,l),
(720,760,l),
(800,600,l),
(680,449,l)
);
},
{
closed = 1;
nodes = (
(129,238,l),
(232,567,l),
(368,618,l),
(239,204,l)
);
}
);
width = 720;
},
{
hints = (
{
horizontal = 1;
place = (600, -20);
target = down;
type = TopGhost;
},
{
place = (-40, 840);
place = (-40, 840);
type = Stem;
}
);
layerId = "45DABB71-BDAF-41D9-9CB5-36007FEF02C0";
shapes = (
{
closed = 1;
nodes = (
(239,204,l),
(200,80,l),
(280,0,l),
(-40,0,l),
(80,80,l),
(129,238,l)
);
},
{
closed = 1;
nodes = (
(680,449,l),
(640,400,l),
(440,320,l),
(320,360,l),
(320,400,l),
(400,400,l),
(520,440,l),
(561,495,l)
);
},
{
closed = 1;
nodes = (
(561,495,l),
(640,600,l),
(600,720,l),
(520,760,l),
(440,760,l),
(400,720,l),
(368,618,l),
(232,567,l),
(280,720,l),
(200,800,l),
(520,800,l),
(720,760,l),
(800,600,l),
(680,449,l)
);
},
{
closed = 1;
nodes = (
(129,238,l),
(232,567,l),
(368,618,l),
(239,204,l)
);
}
);
width = 720;
}
);
note = P;
unicode = 80;
},
{
glyphname = Q;
kernRight = D;
lastChange = "2024-02-26 21:22:18 +0000";
layers = (
{
hints = (
{
horizontal = 1;
place = (-160, 40);
place = (-160, 40);
type = Stem;
},
{
horizontal = 1;
place = (0, 21);
target = up;
type = BottomGhost;
},
{
horizontal = 1;
place = (760, 40);
place = (760, 40);
type = Stem;
},
{
place = (40, 800);
place = (40, 800);
type = Stem;
},
{
horizontal = 1;
place = (0, 40);
place = (0, 40);
type = Stem;
}
);
layerId = m01;
shapes = (
{
closed = 1;
nodes = (
(778,675,l),
(760,720,l),
(560,800,l),
(440,800,l),
(311,736,l),
(379,679,l),
(480,760,l),
(560,760,l),
(640,720,l),
(669,604,l)
);
},
{
closed = 1;
nodes = (
(311,736,l),
(280,720,l),
(160,600,l),
(80,480,l),
(40,280,l),
(66,214,l),
(200,272,l),
(200,360,l),
(280,600,l),
(379,679,l)
);
},
{
closed = 1;
nodes = (
(623,103,l),
(720,200,l),
(800,320,l),
(840,520,l),
(778,675,l),
(669,604,l),
(680,560,l),
(680,440,l),
(600,200,l),
(541,141,l)
);
},
{
closed = 1;
nodes = (
(541,141,l),
(480,80,l),
(400,40,l),
(320,40,l),
(240,80,l),
(200,240,l),
(200,272,l),
(66,214,l),
(120,80,l),
(320,0,l),
(480,-160,l),
(640,-200,l),
(800,-160,l),
(800,-120,l),
(680,-120,l),
(560,-80,l),
(440,0,l),
(600,80,l),
(623,103,l)
);
}
);
width = 840;
},
{
hints = (
{
horizontal = 1;
place = (-160, 40);
place = (-160, 40);
type = Stem;
},
{
horizontal = 1;
place = (0, 21);
target = up;
type = BottomGhost;
},
{
horizontal = 1;
place = (760, 40);
place = (760, 40);
type = Stem;
},
{
place = (40, 800);
place = (40, 800);
type = Stem;
},
{
horizontal = 1;
place = (0, 40);
place = (0, 40);
type = Stem;
}
);
layerId = "45DABB71-BDAF-41D9-9CB5-36007FEF02C0";
shapes = (
{
closed = 1;
nodes = (
(778,675,l),
(760,720,l),
(560,800,l),
(440,800,l),
(311,736,l),
(379,679,l),
(480,760,l),
(560,760,l),
(640,720,l),
(669,604,l)
);
},
{
closed = 1;
nodes = (
(311,736,l),
(280,720,l),
(160,600,l),
(80,480,l),
(40,280,l),
(66,214,l),
(200,272,l),
(200,360,l),
(280,600,l),
(379,679,l)
);
},
{
closed = 1;
nodes = (
(623,103,l),
(720,200,l),
(800,320,l),
(840,520,l),
(778,675,l),
(669,604,l),
(680,560,l),
(680,440,l),
(600,200,l),
(541,141,l)
);
},
{
closed = 1;
nodes = (
(541,141,l),
(480,80,l),
(400,40,l),
(320,40,l),
(240,80,l),
(200,240,l),
(200,272,l),
(66,214,l),
(120,80,l),
(320,0,l),
(480,-160,l),
(640,-200,l),
(800,-160,l),
(800,-120,l),
(680,-120,l),
(560,-80,l),
(440,0,l),
(600,80,l),
(623,103,l)
);
}
);
width = 840;
}
);
note = Q;
unicode = 81;
},
{
glyphname = R;
kernRight = R;
lastChange = "2024-02-26 21:22:57 +0000";
layers = (
{
hints = (
{
horizontal = 1;
place = (0, 21);
target = up;
type = BottomGhost;
},
{
horizontal = 1;
place = (600, -20);
target = down;
type = TopGhost;
},
{
place = (-40, 840);
place = (-40, 840);
type = Stem;
}
);
layerId = m01;
shapes = (
{
closed = 1;
nodes = (
(239,206,l),
(200,80,l),
(280,0,l),
(-40,0,l),
(80,80,l),
(148,298,l)
);
},
{
closed = 1;
nodes = (
(419,739,l),
(400,720,l),
(239,206,l),
(148,298,l),
(280,720,l),
(200,800,l),
(399,800,l)
);
},
{
closed = 1;
nodes = (
(591,238,l),
(680,0,l),
(640,-40,l),
(520,80,l),
(489,157,l)
);
},
{
closed = 1;
nodes = (
(628,637,l),
(600,720,l),
(520,760,l),
(440,760,l),
(419,739,l),
(399,800,l),
(520,800,l),
(720,760,l),
(768,664,l)
);
},
{
closed = 1;
nodes = (
(489,157,l),
(440,280,l),
(400,360,l),
(320,400,l),
(320,440,l),
(480,440,l),
(560,480,l),
(640,600,l),
(628,637,l),
(768,664,l),
(800,600,l),
(680,440,l),
(440,400,l),
(560,320,l),
(591,238,l)
);
}
);
width = 760;
},
{
hints = (
{
horizontal = 1;
place = (0, 21);
target = up;
type = BottomGhost;
},
{
horizontal = 1;
place = (600, -20);
target = down;
type = TopGhost;
},
{
place = (-40, 840);
place = (-40, 840);
type = Stem;
}
);
layerId = "45DABB71-BDAF-41D9-9CB5-36007FEF02C0";
shapes = (
{
closed = 1;
nodes = (
(-1391,-2086,l),
(-1430,-2212,l),
(-1350,-2292,l),
(-1670,-2292,l),
(-1550,-2212,l),
(-1482,-1994,l)
);
},
{
closed = 1;
nodes = (
(-588,2389,l),
(-613,2379,l),
(-968,1974,l),
(-1014,2095,l),
(-723,2428,l),
(-764,2533,l),
(-582,2453,l)
);
},
{
closed = 1;
nodes = (
(1480,-1562,l),
(1598,-1786,l),
(1564,-1831,l),
(1430,-1727,l),
(1389,-1655,l)
);
},
{
closed = 1;
nodes = (
(1545,2529,l),
(1472,2578,l),
(1384,2561,l),
(1321,2513,l),
(1317,2483,l),
(1264,2520,l),
(1360,2593,l),
(1543,2683,l),
(1639,2635,l)
);
},
{
closed = 1;
nodes = (
(3818,29,l),
(3738,134,l),
(3677,199,l),
(3589,216,l),
(3578,255,l),
(3732,299,l),
(3798,360,l),
(3841,496,l),
(3819,529,l),
(3947,594,l),
(3995,541,l),
(3924,354,l),
(3704,249,l),
(3842,206,l),
(3895,135,l)
);
}
);
width = 760;
}
);
note = R;
unicode = 82;
},
{
glyphname = S;
lastChange = "2024-02-26 21:23:24 +0000";
layers = (
{
hints = (
{
horizontal = 1;
place = (600, -20);
target = down;
type = TopGhost;
},
{
place = (0, 680);
place = (0, 680);
type = Stem;
}
);
layerId = m01;
shapes = (
{
closed = 1;
nodes = (
(371,-15,l),
(320,-40,l),
(120,0,l),
(40,-40,l),
(0,240,l),
(40,240,l),
(160,40,l),
(280,40,l),
(325,62,l)
);
},
{
closed = 1;
nodes = (
(319,813,l),
(360,840,l),
(560,800,l),
(640,840,l),
(680,600,l),
(640,600,l),
(520,760,l),
(400,760,l),
(377,737,l)
);
},
{
closed = 1;
nodes = (
(278,403,l),
(240,480,l),
(200,640,l),
(240,760,l),
(319,813,l),
(377,737,l),
(360,720,l),
(320,640,l),
(400,520,l),
(424,473,l)
);
},
{
closed = 1;
nodes = (
(325,62,l),
(360,80,l),
(400,120,l),
(400,200,l),
(320,320,l),
(278,403,l),
(424,473,l),
(480,360,l),
(520,200,l),
(480,40,l),
(371,-15,l)
);
}
);
width = 600;
},
{
hints = (
{
horizontal = 1;
place = (600, -20);
target = down;
type = TopGhost;
},
{
place = (0, 680);
place = (0, 680);
type = Stem;
}
);
layerId = "45DABB71-BDAF-41D9-9CB5-36007FEF02C0";
shapes = (
{
closed = 1;
nodes = (
(-2048,-2526,l),
(-2105,-2528,l),
(-2271,-2410,l),
(-2360,-2414,l),
(-2282,-2142,l),
(-2246,-2158,l),
(-2218,-2390,l),
(-2109,-2439,l),
(-2058,-2437,l)
);
},
{
closed = 1;
nodes = (
(2749,2614,l),
(2798,2607,l),
(2918,2442,l),
(3004,2418,l),
(2872,2214,l),
(2843,2241,l),
(2862,2440,l),
(2773,2521,l),
(2741,2519,l)
);
},
{
closed = 1;
nodes = (
(-3501,414,l),
(-3564,471,l),
(-3660,606,l),
(-3667,732,l),
(-3613,810,l),
(-3531,761,l),
(-3541,739,l),
(-3548,650,l),
(-3430,567,l),
(-3390,532,l)
);
},
{
closed = 1;
nodes = (
(3465,-749,l),
(3504,-750,l),
(3559,-734,l),
(3597,-664,l),
(3583,-519,l),
(3586,-426,l),
(3748,-434,l),
(3743,-560,l),
(3702,-720,l),
(3591,-842,l),
(3469,-838,l)
);
}
);
width = 600;
}
);
note = S;
unicode = 83;
},
{
glyphname = T;
kernLeft = T;
kernRight = T;
lastChange = "2024-02-26 21:22:18 +0000";
layers = (
{
hints = (
{
horizontal = 1;
place = (600, -20);
target = down;
type = TopGhost;
},
{
place = (120, 720);
place = (120, 720);
type = Stem;
}
);
layerId = m01;
shapes = (
{
closed = 1;
nodes = (
(432,324,l),
(360,80,l),
(440,0,l),
(120,0,l),
(240,80,l),
(299,280,l)
);
},
{
closed = 1;
nodes = (
(494,534,l),
(432,324,l),
(299,280,l),
(391,595,l)
);
},
{
closed = 1;
nodes = (
(384,749,l),
(240,720,l),
(200,600,l),
(160,600,l),
(160,840,l),
(320,800,l),
(405,800,l)
);
},
{
closed = 1;
nodes = (
(391,595,l),
(440,760,l),
(384,749,l),
(405,800,l),
(640,800,l),
(800,840,l),
(840,600,l),
(800,600,l),
(720,720,l),
(560,760,l),
(494,534,l)
);
}
);
width = 680;
},
{
hints = (
{
horizontal = 1;
place = (600, -20);
target = down;
type = TopGhost;
},
{
place = (120, 720);
place = (120, 720);
type = Stem;
}
);
layerId = "45DABB71-BDAF-41D9-9CB5-36007FEF02C0";
shapes = (
{
closed = 1;
nodes = (
(432,324,l),
(360,80,l),
(440,0,l),
(120,0,l),
(240,80,l),
(299,280,l)
);
},
{
closed = 1;
nodes = (
(494,534,l),
(432,324,l),
(299,280,l),
(391,595,l)
);
},
{
closed = 1;
nodes = (
(384,749,l),
(240,720,l),
(200,600,l),
(160,600,l),
(160,840,l),
(320,800,l),
(405,800,l)
);
},
{
closed = 1;
nodes = (
(391,595,l),
(440,760,l),
(384,749,l),
(405,800,l),
(640,800,l),
(800,840,l),
(840,600,l),
(800,600,l),
(720,720,l),
(560,760,l),
(494,534,l)
);
}
);
width = 680;
}
);
note = T;
unicode = 84;
},
{
glyphname = U;
kernRight = U;
lastChange = "2024-02-26 21:22:18 +0000";
layers = (
{
hints = (
{
horizontal = 1;
place = (0, 800);
place = (0, 800);
type = Stem;
},
{
place = (80, 880);
place = (80, 880);
type = Stem;
}
);
layerId = m01;
shapes = (
{
closed = 1;
nodes = (
(447,16,l),
(400,0,l),
(320,0,l),
(160,40,l),
(80,120,l),
(80,240,l),
(183,550,l),
(276,467,l),
(200,240,l),
(200,160,l),
(240,80,l),
(320,40,l),
(360,40,l),
(436,65,l)
);
},
{
closed = 1;
nodes = (
(183,550,l),
(240,720,l),
(160,800,l),
(480,800,l),
(360,720,l),
(276,467,l)
);
},
{
closed = 1;
nodes = (
(780,540,l),
(680,240,l),
(600,120,l),
(520,40,l),
(447,16,l),
(436,65,l),
(480,80,l),
(520,120,l),
(600,240,l),
(665,501,l)
);
},
{
closed = 1;
nodes = (
(665,501,l),
(720,720,l),
(640,800,l),
(960,800,l),
(840,720,l),
(780,540,l)
);
}
);
width = 840;
},
{
hints = (
{
horizontal = 1;
place = (0, 800);
place = (0, 800);
type = Stem;
},
{
place = (80, 880);
place = (80, 880);
type = Stem;
}
);
layerId = "45DABB71-BDAF-41D9-9CB5-36007FEF02C0";
shapes = (
{
closed = 1;
nodes = (
(447,16,l),
(400,0,l),
(320,0,l),
(160,40,l),
(80,120,l),
(80,240,l),
(183,550,l),
(276,467,l),
(200,240,l),
(200,160,l),
(240,80,l),
(320,40,l),
(360,40,l),
(436,65,l)
);
},
{
closed = 1;
nodes = (
(183,550,l),
(240,720,l),
(160,800,l),
(480,800,l),
(360,720,l),
(276,467,l)
);
},
{
closed = 1;
nodes = (
(780,540,l),
(680,240,l),
(600,120,l),
(520,40,l),
(447,16,l),
(436,65,l),
(480,80,l),
(520,120,l),
(600,240,l),
(665,501,l)
);
},
{
closed = 1;
nodes = (
(665,501,l),
(720,720,l),
(640,800,l),
(960,800,l),
(840,720,l),
(780,540,l)
);
}
);
width = 840;
}
);
note = U;
unicode = 85;
},
{
glyphname = V;
kernLeft = V;
kernRight = V;
lastChange = "2024-02-26 21:22:18 +0000";
layers = (
{
hints = (
{
horizontal = 1;
place = (-40, 840);
place = (-40, 840);
type = Stem;
},
{
place = (0, 800);
place = (0, 800);
type = Stem;
}
);
layerId = m01;
shapes = (
{
closed = 1;
nodes = (
(299,193,l),
(160,0,l),
(80,-40,l),
(80,484,l),
(200,567,l),
(200,160,l),
(270,259,l)
);
},
{
closed = 1;
nodes = (
(80,484,l),
(80,720,l),
(0,800,l),
(280,800,l),
(200,720,l),
(200,567,l)
);
},
{
closed = 1;
nodes = (
(537,522,l),
(299,193,l),
(270,259,l),
(442,500,l)
);
},
{
closed = 1;
nodes = (
(442,500,l),
(600,720,l),
(520,800,l),
(800,800,l),
(680,720,l),
(537,522,l)
);
}
);
width = 680;
},
{
hints = (
{
horizontal = 1;
place = (-40, 840);
place = (-40, 840);
type = Stem;
},
{
place = (0, 800);
place = (0, 800);
type = Stem;
}
);
layerId = "45DABB71-BDAF-41D9-9CB5-36007FEF02C0";
shapes = (
{
closed = 1;
nodes = (
(299,193,l),
(160,0,l),
(80,-40,l),
(80,484,l),
(200,567,l),
(200,160,l),
(270,259,l)
);
},
{
closed = 1;
nodes = (
(80,484,l),
(80,720,l),
(0,800,l),
(280,800,l),
(200,720,l),
(200,567,l)
);
},
{
closed = 1;
nodes = (
(537,522,l),
(299,193,l),
(270,259,l),
(442,500,l)
);
},
{
closed = 1;
nodes = (
(442,500,l),
(600,720,l),
(520,800,l),
(800,800,l),
(680,720,l),
(537,522,l)
);
}
);
width = 680;
}
);
note = V;
unicode = 86;
},
{
glyphname = W;
kernLeft = V;
kernRight = V;
lastChange = "2024-02-26 21:25:13 +0000";
layers = (
{
hints = (
{
horizontal = 1;
place = (600, -20);
target = down;
type = TopGhost;
},
{
place = (200, 280);
place = (200, 280);
type = Stem;
}
);
layerId = m01;
shapes = (
{
closed = 1;
nodes = (
(336,330,l),
(160,0,l),
(80,-40,l),
(80,502,l),
(200,591,l),
(200,200,l),
(303,391,l)
);
},
{
closed = 1;
nodes = (
(80,502,l),
(80,720,l),
(0,800,l),
(280,800,l),
(200,720,l),
(200,591,l)
);
},
{
closed = 1;
nodes = (
(738,357,l),
(520,0,l),
(480,-40,l),
(480,427,l),
(600,512,l),
(600,240,l),
(699,410,l)
);
},
{
closed = 1;
nodes = (
(480,427,l),
(480,600,l),
(336,330,l),
(303,391,l),
(480,720,l),
(600,760,l),
(600,512,l)
);
},
{
closed = 1;
nodes = (
(699,410,l),
(880,720,l),
(800,800,l),
(1080,800,l),
(960,720,l),
(738,357,l)
);
}
);
width = 960;
},
{
hints = (
{
horizontal = 1;
place = (600, -20);
target = down;
type = TopGhost;
},
{
place = (200, 280);
place = (200, 280);
type = Stem;
}
);
layerId = "45DABB71-BDAF-41D9-9CB5-36007FEF02C0";
shapes = (
{
closed = 1;
nodes = (
(-819,-1769,l),
(-1097,-2018,l),
(-1186,-2028,l),
(-1000,-1519,l),
(-857,-1477,l),
(-991,-1844,l),
(-829,-1700,l)
);
},
{
closed = 1;
nodes = (
(-2377,2624,l),
(-2495,2807,l),
(-2605,2831,l),
(-2370,2983,l),
(-2394,2872,l),
(-2324,2764,l)
);
},
{
closed = 1;
nodes = (
(2842,-1711,l),
(2815,-2128,l),
(2799,-2182,l),
(2581,-1769,l),
(2648,-1638,l),
(2774,-1878,l),
(2783,-1682,l)
);
},
{
closed = 1;
nodes = (
(1109,3087,l),
(1172,3248,l),
(939,3050,l),
(931,3119,l),
(1216,3360,l),
(1343,3353,l),
(1252,3122,l)
);
},
{
closed = 1;
nodes = (
(2786,2908,l),
(3031,3171,l),
(2971,3266,l),
(3244,3205,l),
(3109,3153,l),
(2813,2848,l)
);
}
);
width = 960;
}
);
note = W;
unicode = 87;
},
{
glyphname = X;
kernRight = X;
lastChange = "2024-02-26 21:22:18 +0000";
layers = (
{
hints = (
{
horizontal = 1;
place = (0, 800);
place = (0, 800);
type = Stem;
},
{
place = (400, 40);
place = (400, 40);
type = Stem;
}
);
layerId = m01;
shapes = (
{
closed = 1;
nodes = (
(267,205,l),
(160,80,l),
(240,0,l),
(-40,0,l),
(208,248,l)
);
},
{
closed = 1;
nodes = (
(311,532,l),
(240,720,l),
(160,800,l),
(480,800,l),
(400,720,l),
(400,579,l)
);
},
{
closed = 1;
nodes = (
(554,252,l),
(640,80,l),
(720,0,l),
(400,0,l),
(480,80,l),
(465,186,l)
);
},
{
closed = 1;
nodes = (
(557,557,l),
(720,720,l),
(640,800,l),
(920,800,l),
(648,552,l)
);
},
{
closed = 1;
nodes = (
(465,186,l),
(440,360,l),
(400,360,l),
(267,205,l),
(208,248,l),
(360,400,l),
(311,532,l),
(400,579,l),
(400,440,l),
(440,440,l),
(557,557,l),
(648,552,l),
(480,400,l),
(554,252,l)
);
}
);
width = 840;
},
{
hints = (
{
horizontal = 1;
place = (0, 800);
place = (0, 800);
type = Stem;
},
{
place = (400, 40);
place = (400, 40);
type = Stem;
}
);
layerId = "45DABB71-BDAF-41D9-9CB5-36007FEF02C0";
shapes = (
{
closed = 1;
nodes = (
(267,205,l),
(160,80,l),
(240,0,l),
(-40,0,l),
(208,248,l)
);
},
{
closed = 1;
nodes = (
(311,532,l),
(240,720,l),
(160,800,l),
(480,800,l),
(400,720,l),
(400,579,l)
);
},
{
closed = 1;
nodes = (
(554,252,l),
(640,80,l),
(720,0,l),
(400,0,l),
(480,80,l),
(465,186,l)
);
},
{
closed = 1;
nodes = (
(557,557,l),
(720,720,l),
(640,800,l),
(920,800,l),
(648,552,l)
);
},
{
closed = 1;
nodes = (
(465,186,l),
(440,360,l),
(400,360,l),
(267,205,l),
(208,248,l),
(360,400,l),
(311,532,l),
(400,579,l),
(400,440,l),
(440,440,l),
(557,557,l),
(648,552,l),
(480,400,l),
(554,252,l)
);
}
);
width = 840;
}
);
note = X;
unicode = 88;
},
{
glyphname = Y;
kernLeft = Y;
kernRight = Y;
lastChange = "2024-02-26 21:22:18 +0000";
layers = (
{
hints = (
{
horizontal = 1;
place = (0, 800);
place = (0, 800);
type = Stem;
},
{
place = (400, 40);
place = (400, 40);
type = Stem;
}
);
layerId = m01;
shapes = (
{
closed = 1;
nodes = (
(388,177,l),
(360,80,l),
(440,0,l),
(120,0,l),
(240,80,l),
(249,113,l)
);
},
{
closed = 1;
nodes = (
(278,549,l),
(240,720,l),
(160,800,l),
(440,800,l),
(360,720,l),
(376,640,l)
);
},
{
closed = 1;
nodes = (
(535,467,l),
(440,360,l),
(388,177,l),
(249,113,l),
(320,360,l),
(278,549,l),
(376,640,l),
(400,520,l),
(400,440,l),
(440,440,l),
(519,532,l)
);
},
{
closed = 1;
nodes = (
(519,532,l),
(680,720,l),
(600,800,l),
(880,800,l),
(760,720,l),
(535,467,l)
);
}
);
width = 760;
},
{
hints = (
{
horizontal = 1;
place = (0, 800);
place = (0, 800);
type = Stem;
},
{
place = (400, 40);
place = (400, 40);
type = Stem;
}
);
layerId = "45DABB71-BDAF-41D9-9CB5-36007FEF02C0";
shapes = (
{
closed = 1;
nodes = (
(388,177,l),
(360,80,l),
(440,0,l),
(120,0,l),
(240,80,l),
(249,113,l)
);
},
{
closed = 1;
nodes = (
(278,549,l),
(240,720,l),
(160,800,l),
(440,800,l),
(360,720,l),
(376,640,l)
);
},
{
closed = 1;
nodes = (
(535,467,l),
(440,360,l),
(388,177,l),
(249,113,l),
(320,360,l),
(278,549,l),
(376,640,l),
(400,520,l),
(400,440,l),
(440,440,l),
(519,532,l)
);
},
{
closed = 1;
nodes = (
(519,532,l),
(680,720,l),
(600,800,l),
(880,800,l),
(760,720,l),
(535,467,l)
);
}
);
width = 760;
}
);
note = Y;
unicode = 89;
},
{
glyphname = Z;
kernLeft = Z;
kernRight = Z;
lastChange = "2024-02-26 21:22:18 +0000";
layers = (
{
hints = (
{
horizontal = 1;
place = (600, -20);
target = down;
type = TopGhost;
},
{
place = (-40, 840);
place = (-40, 840);
type = Stem;
}
);
layerId = m01;
shapes = (
{
closed = 1;
nodes = (
(271,61,l),
(440,40,l),
(560,240,l),
(600,240,l),
(560,-40,l),
(480,0,l),
(264,0,l)
);
},
{
closed = 1;
nodes = (
(484,760,l),
(360,760,l),
(240,600,l),
(200,600,l),
(240,840,l),
(400,800,l),
(513,800,l)
);
},
{
closed = 1;
nodes = (
(262,379,l),
(600,760,l),
(484,760,l),
(513,800,l),
(800,800,l),
(462,442,l)
);
},
{
closed = 1;
nodes = (
(264,0,l),
(-40,0,l),
(-40,40,l),
(262,379,l),
(462,442,l),
(120,80,l),
(271,61,l)
);
}
);
width = 720;
},
{
hints = (
{
horizontal = 1;
place = (600, -20);
target = down;
type = TopGhost;
},
{
place = (-40, 840);
place = (-40, 840);
type = Stem;
}
);
layerId = "45DABB71-BDAF-41D9-9CB5-36007FEF02C0";
shapes = (
{
closed = 1;
nodes = (
(271,61,l),
(440,40,l),
(560,240,l),
(600,240,l),
(560,-40,l),
(480,0,l),
(264,0,l)
);
},
{
closed = 1;
nodes = (
(484,760,l),
(360,760,l),
(240,600,l),
(200,600,l),
(240,840,l),
(400,800,l),
(513,800,l)
);
},
{
closed = 1;
nodes = (
(262,379,l),
(600,760,l),
(484,760,l),
(513,800,l),
(800,800,l),
(462,442,l)
);
},
{
closed = 1;
nodes = (
(264,0,l),
(-40,0,l),
(-40,40,l),
(262,379,l),
(462,442,l),
(120,80,l),
(271,61,l)
);
}
);
width = 720;
}
);
note = Z;
unicode = 90;
},
{
glyphname = a;
kernLeft = a;
kernRight = a;
lastChange = "2024-02-26 21:22:18 +0000";
layers = (
{
hints = (
{
horizontal = 1;
place = (0, 80);
place = (0, 80);
type = Stem;
},
{
horizontal = 1;
place = (560, -20);
target = down;
type = TopGhost;
},
{
place = (40, 680);
place = (40, 680);
type = Stem;
}
);
layerId = m01;
shapes = (
{
closed = 1;
nodes = (
(600,560,l),
(520,440,l),
(480,520,l),
(320,560,l),
(120,400,l),
(40,200,l),
(80,40,l),
(160,0,l),
(240,0,l),
(360,120,l),
(360,40,l),
(400,0,l),
(520,40,l),
(720,240,l),
(680,280,l),
(480,80,l),
(440,80,l),
(640,520,l)
);
},
{
closed = 1;
nodes = (
(200,80,l),
(160,200,l),
(240,360,l),
(360,480,l),
(440,480,l),
(480,400,l),
(480,360,l),
(360,200,l),
(240,80,l)
);
}
);
width = 720;
},
{
hints = (
{
horizontal = 1;
place = (0, 80);
place = (0, 80);
type = Stem;
},
{
horizontal = 1;
place = (560, -20);
target = down;
type = TopGhost;
},
{
place = (40, 680);
place = (40, 680);
type = Stem;
}
);
layerId = "45DABB71-BDAF-41D9-9CB5-36007FEF02C0";
shapes = (
{
closed = 1;
nodes = (
(600,560,l),
(520,440,l),
(480,520,l),
(320,560,l),
(120,400,l),
(40,200,l),
(80,40,l),
(160,0,l),
(240,0,l),
(360,120,l),
(360,40,l),
(400,0,l),
(520,40,l),
(720,240,l),
(680,280,l),
(480,80,l),
(440,80,l),
(640,520,l)
);
},
{
closed = 1;
nodes = (
(200,80,l),
(160,200,l),
(240,360,l),
(360,480,l),
(440,480,l),
(480,400,l),
(480,360,l),
(360,200,l),
(240,80,l)
);
}
);
width = 720;
}
);
note = a;
unicode = 97;
},
{
glyphname = b;
kernLeft = b;
kernRight = b;
lastChange = "2024-02-26 21:22:18 +0000";
layers = (
{
hints = (
{
horizontal = 1;
place = (0, 80);
place = (0, 80);
type = Stem;
},
{
horizontal = 1;
place = (560, -20);
target = down;
type = TopGhost;
},
{
horizontal = 1;
place = (800, 40);
place = (800, 40);
type = Stem;
},
{
place = (-40, 640);
place = (-40, 640);
type = Stem;
}
);
layerId = m01;
shapes = (
{
closed = 1;
nodes = (
(160,400,l),
(-40,0,l),
(0,-40,l),
(80,80,l),
(160,0,l),
(320,0,l),
(520,160,l),
(600,360,l),
(560,520,l),
(480,560,l),
(360,520,l),
(280,440,l),
(480,840,l),
(200,840,l),
(200,800,l),
(320,800,l)
);
},
{
closed = 1;
nodes = (
(440,480,l),
(480,360,l),
(400,200,l),
(240,80,l),
(160,80,l),
(120,120,l),
(120,160,l),
(240,320,l),
(360,440,l)
);
}
);
width = 640;
},
{
hints = (
{
horizontal = 1;
place = (0, 80);
place = (0, 80);
type = Stem;
},
{
horizontal = 1;
place = (560, -20);
target = down;
type = TopGhost;
},
{
horizontal = 1;
place = (800, 40);
place = (800, 40);
type = Stem;
},
{
place = (-40, 640);
place = (-40, 640);
type = Stem;
}
);
layerId = "45DABB71-BDAF-41D9-9CB5-36007FEF02C0";
shapes = (
{
closed = 1;
nodes = (
(160,400,l),
(-40,0,l),
(0,-40,l),
(80,80,l),
(160,0,l),
(320,0,l),
(520,160,l),
(600,360,l),
(560,520,l),
(480,560,l),
(360,520,l),
(280,440,l),
(480,840,l),
(200,840,l),
(200,800,l),
(320,800,l)
);
},
{
closed = 1;
nodes = (
(440,480,l),
(480,360,l),
(400,200,l),
(240,80,l),
(160,80,l),
(120,120,l),
(120,160,l),
(240,320,l),
(360,440,l)
);
}
);
width = 640;
}
);
note = b;
unicode = 98;
},
{
glyphname = c;
kernLeft = c;
lastChange = "2024-02-26 21:22:19 +0000";
layers = (
{
hints = (
{
horizontal = 1;
place = (0, 80);
place = (0, 80);
type = Stem;
},
{
horizontal = 1;
place = (560, -20);
target = down;
type = TopGhost;
},
{
place = (440, 120);
place = (440, 120);
type = Stem;
},
{
horizontal = 1;
place = (480, 80);
place = (480, 80);
type = Stem;
}
);
layerId = m01;
shapes = (
{
closed = 1;
nodes = (
(560,440,l),
(520,520,l),
(360,560,l),
(160,440,l),
(40,200,l),
(80,40,l),
(160,0,l),
(240,0,l),
(320,40,l),
(480,200,l),
(440,240,l),
(280,80,l),
(200,80,l),
(160,200,l),
(240,360,l),
(360,480,l),
(440,480,l),
(440,360,l),
(560,360,l)
);
}
);
width = 560;
},
{
hints = (
{
horizontal = 1;
place = (0, 80);
place = (0, 80);
type = Stem;
},
{
horizontal = 1;
place = (560, -20);
target = down;
type = TopGhost;
},
{
place = (440, 120);
place = (440, 120);
type = Stem;
},
{
horizontal = 1;
place = (480, 80);
place = (480, 80);
type = Stem;
}
);
layerId = "45DABB71-BDAF-41D9-9CB5-36007FEF02C0";
shapes = (
{
closed = 1;
nodes = (
(560,440,l),
(520,520,l),
(360,560,l),
(160,440,l),
(40,200,l),
(80,40,l),
(160,0,l),
(240,0,l),
(320,40,l),
(480,200,l),
(440,240,l),
(280,80,l),
(200,80,l),
(160,200,l),
(240,360,l),
(360,480,l),
(440,480,l),
(440,360,l),
(560,360,l)
);
}
);
width = 560;
}
);
note = c;
unicode = 99;
},
{
glyphname = d;
kernLeft = c;
lastChange = "2024-02-26 21:22:19 +0000";
layers = (
{
hints = (
{
horizontal = 1;
place = (0, 80);
place = (0, 80);
type = Stem;
},
{
horizontal = 1;
place = (560, -20);
target = down;
type = TopGhost;
},
{
horizontal = 1;
place = (800, 40);
place = (800, 40);
type = Stem;
},
{
place = (40, 760);
place = (40, 760);
type = Stem;
}
);
layerId = m01;
shapes = (
{
closed = 1;
nodes = (
(440,0,l),
(520,40,l),
(720,240,l),
(680,280,l),
(480,80,l),
(440,80,l),
(800,840,l),
(520,840,l),
(520,800,l),
(640,800,l),
(520,440,l),
(480,520,l),
(320,560,l),
(120,400,l),
(40,200,l),
(80,40,l),
(160,0,l),
(240,0,l),
(360,120,l),
(360,40,l),
(400,0,l)
);
},
{
closed = 1;
nodes = (
(200,80,l),
(160,200,l),
(240,360,l),
(360,480,l),
(440,480,l),
(480,400,l),
(480,360,l),
(360,200,l),
(240,80,l)
);
}
);
width = 720;
},
{
hints = (
{
horizontal = 1;
place = (0, 80);
place = (0, 80);
type = Stem;
},
{
horizontal = 1;
place = (560, -20);
target = down;
type = TopGhost;
},
{
horizontal = 1;
place = (800, 40);
place = (800, 40);
type = Stem;
},
{
place = (40, 760);
place = (40, 760);
type = Stem;
}
);
layerId = "45DABB71-BDAF-41D9-9CB5-36007FEF02C0";
shapes = (
{
closed = 1;
nodes = (
(440,0,l),
(520,40,l),
(720,240,l),
(680,280,l),
(480,80,l),
(440,80,l),
(800,840,l),
(520,840,l),
(520,800,l),
(640,800,l),
(520,440,l),
(480,520,l),
(320,560,l),
(120,400,l),
(40,200,l),
(80,40,l),
(160,0,l),
(240,0,l),
(360,120,l),
(360,40,l),
(400,0,l)
);
},
{
closed = 1;
nodes = (
(200,80,l),
(160,200,l),
(240,360,l),
(360,480,l),
(440,480,l),
(480,400,l),
(480,360,l),
(360,200,l),
(240,80,l)
);
}
);
width = 720;
}
);
note = d;
unicode = 100;
},
{
glyphname = e;
kernLeft = c;
kernRight = e;
lastChange = "2024-02-26 21:22:19 +0000";
layers = (
{
hints = (
{
horizontal = 1;
place = (0, 80);
place = (0, 80);
type = Stem;
},
{
horizontal = 1;
place = (280, 40);
place = (280, 40);
type = Stem;
},
{
horizontal = 1;
place = (560, -20);
target = down;
type = TopGhost;
},
{
place = (440, 120);
place = (440, 120);
type = Stem;
},
{
horizontal = 1;
place = (480, 80);
place = (480, 80);
type = Stem;
}
);
layerId = m01;
shapes = (
{
closed = 1;
nodes = (
(560,440,l),
(520,520,l),
(360,560,l),
(160,440,l),
(40,200,l),
(80,40,l),
(160,0,l),
(240,0,l),
(320,40,l),
(480,200,l),
(440,240,l),
(280,80,l),
(200,80,l),
(160,200,l),
(240,360,l),
(360,480,l),
(440,480,l),
(440,360,l),
(360,320,l),
(240,320,l),
(240,280,l),
(440,280,l),
(560,360,l)
);
}
);
width = 560;
},
{
hints = (
{
horizontal = 1;
place = (0, 80);
place = (0, 80);
type = Stem;
},
{
horizontal = 1;
place = (280, 40);
place = (280, 40);
type = Stem;
},
{
horizontal = 1;
place = (560, -20);
target = down;
type = TopGhost;
},
{
place = (440, 120);
place = (440, 120);
type = Stem;
},
{
horizontal = 1;
place = (480, 80);
place = (480, 80);
type = Stem;
}
);
layerId = "45DABB71-BDAF-41D9-9CB5-36007FEF02C0";
shapes = (
{
closed = 1;
nodes = (
(560,440,l),
(520,520,l),
(360,560,l),
(160,440,l),
(40,200,l),
(80,40,l),
(160,0,l),
(240,0,l),
(320,40,l),
(480,200,l),
(440,240,l),
(280,80,l),
(200,80,l),
(160,200,l),
(240,360,l),
(360,480,l),
(440,480,l),
(440,360,l),
(360,320,l),
(240,320,l),
(240,280,l),
(440,280,l),
(560,360,l)
);
}
);
width = 560;
}
);
note = e;
unicode = 101;
},
{
glyphname = f;
kernRight = f;
lastChange = "2024-02-26 21:22:19 +0000";
layers = (
{
hints = (
{
horizontal = 1;
place = (-320, 21);
target = up;
type = BottomGhost;
},
{
horizontal = 1;
place = (480, 40);
place = (480, 40);
type = Stem;
},
{
place = (-240, 120);
place = (-240, 120);
type = Stem;
},
{
place = (560, 120);
place = (560, 120);
type = Stem;
}
);
layerId = m01;
shapes = (
{
closed = 1;
nodes = (
(-120,-320,l),
(-40,-280,l),
(80,-160,l),
(360,480,l),
(520,480,l),
(520,520,l),
(360,520,l),
(520,760,l),
(560,760,l),
(560,680,l),
(600,640,l),
(680,680,l),
(680,800,l),
(560,840,l),
(440,800,l),
(360,720,l),
(280,560,l),
(200,520,l),
(120,520,l),
(120,480,l),
(240,480,l),
(-80,-240,l),
(-120,-240,l),
(-120,-160,l),
(-160,-120,l),
(-240,-160,l),
(-240,-280,l)
);
}
);
width = 440;
},
{
hints = (
{
horizontal = 1;
place = (-320, 21);
target = up;
type = BottomGhost;
},
{
horizontal = 1;
place = (480, 40);
place = (480, 40);
type = Stem;
},
{
place = (-240, 120);
place = (-240, 120);
type = Stem;
},
{
place = (560, 120);
place = (560, 120);
type = Stem;
}
);
layerId = "45DABB71-BDAF-41D9-9CB5-36007FEF02C0";
shapes = (
{
closed = 1;
nodes = (
(-120,-320,l),
(-40,-280,l),
(80,-160,l),
(360,480,l),
(520,480,l),
(520,520,l),
(360,520,l),
(520,760,l),
(560,760,l),
(560,680,l),
(600,640,l),
(680,680,l),
(680,800,l),
(560,840,l),
(440,800,l),
(360,720,l),
(280,560,l),
(200,520,l),
(120,520,l),
(120,480,l),
(240,480,l),
(-80,-240,l),
(-120,-240,l),
(-120,-160,l),
(-160,-120,l),
(-240,-160,l),
(-240,-280,l)
);
}
);
width = 440;
}
);
note = f;
unicode = 102;
},
{
glyphname = g;
kernLeft = g;
lastChange = "2024-02-26 21:22:19 +0000";
layers = (
{
hints = (
{
horizontal = 1;
place = (-320, 40);
place = (-320, 40);
type = Stem;
},
{
horizontal = 1;
place = (0, 21);
target = up;
type = BottomGhost;
},
{
horizontal = 1;
place = (120, 80);
place = (120, 80);
type = Stem;
},
{
horizontal = 1;
place = (480, 40);
place = (480, 40);
type = Stem;
},
{
horizontal = 1;
place = (560, -20);
target = down;
type = TopGhost;
},
{
place = (80, 120);
place = (80, 120);
type = Stem;
},
{
place = (280, 120);
place = (280, 120);
type = Stem;
}
);
layerId = m01;
shapes = (
{
closed = 1;
nodes = (
(80,80,l),
(120,40,l),
(-80,-40,l),
(-120,-120,l),
(-80,-240,l),
(80,-320,l),
(160,-320,l),
(320,-280,l),
(400,-160,l),
(400,-80,l),
(200,80,l),
(200,120,l),
(320,120,l),
(520,240,l),
(560,360,l),
(520,480,l),
(640,480,l),
(640,520,l),
(480,520,l),
(320,560,l),
(120,440,l),
(80,320,l),
(160,160,l),
(80,120,l)
);
},
{
closed = 1;
nodes = (
(400,480,l),
(440,360,l),
(440,320,l),
(320,200,l),
(240,200,l),
(200,320,l),
(200,360,l),
(320,480,l)
);
},
{
closed = 1;
nodes = (
(280,-120,l),
(280,-200,l),
(160,-280,l),
(40,-200,l),
(0,-120,l),
(40,-40,l),
(160,0,l)
);
}
);
width = 600;
},
{
hints = (
{
horizontal = 1;
place = (-320, 40);
place = (-320, 40);
type = Stem;
},
{
horizontal = 1;
place = (0, 21);
target = up;
type = BottomGhost;
},
{
horizontal = 1;
place = (120, 80);
place = (120, 80);
type = Stem;
},
{
horizontal = 1;
place = (480, 40);
place = (480, 40);
type = Stem;
},
{
horizontal = 1;
place = (560, -20);
target = down;
type = TopGhost;
},
{
place = (80, 120);
place = (80, 120);
type = Stem;
},
{
place = (280, 120);
place = (280, 120);
type = Stem;
}
);
layerId = "45DABB71-BDAF-41D9-9CB5-36007FEF02C0";
shapes = (
{
closed = 1;
nodes = (
(80,80,l),
(120,40,l),
(-80,-40,l),
(-120,-120,l),
(-80,-240,l),
(80,-320,l),
(160,-320,l),
(320,-280,l),
(400,-160,l),
(400,-80,l),
(200,80,l),
(200,120,l),
(320,120,l),
(520,240,l),
(560,360,l),
(520,480,l),
(640,480,l),
(640,520,l),
(480,520,l),
(320,560,l),
(120,440,l),
(80,320,l),
(160,160,l),
(80,120,l)
);
},
{
closed = 1;
nodes = (
(400,480,l),
(440,360,l),
(440,320,l),
(320,200,l),
(240,200,l),
(200,320,l),
(200,360,l),
(320,480,l)
);
},
{
closed = 1;
nodes = (
(280,-120,l),
(280,-200,l),
(160,-280,l),
(40,-200,l),
(0,-120,l),
(40,-40,l),
(160,0,l)
);
}
);
width = 600;
}
);
note = g;
unicode = 103;
},
{
glyphname = h;
kernLeft = b;
lastChange = "2024-02-26 21:22:19 +0000";
layers = (
{
hints = (
{
horizontal = 1;
place = (0, 80);
place = (0, 80);
type = Stem;
},
{
horizontal = 1;
place = (560, -20);
target = down;
type = TopGhost;
},
{
horizontal = 1;
place = (800, 40);
place = (800, 40);
type = Stem;
},
{
place = (440, 120);
place = (440, 120);
type = Stem;
}
);
layerId = m01;
shapes = (
{
closed = 1;
nodes = (
(120,400,l),
(-80,40,l),
(-40,0,l),
(40,0,l),
(200,320,l),
(320,440,l),
(400,480,l),
(440,440,l),
(240,80,l),
(240,40,l),
(280,0,l),
(360,0,l),
(440,40,l),
(640,240,l),
(600,280,l),
(400,80,l),
(360,80,l),
(560,400,l),
(560,520,l),
(440,560,l),
(320,520,l),
(240,440,l),
(440,840,l),
(160,840,l),
(160,800,l),
(280,800,l)
);
}
);
width = 640;
},
{
hints = (
{
horizontal = 1;
place = (0, 80);
place = (0, 80);
type = Stem;
},
{
horizontal = 1;
place = (560, -20);
target = down;
type = TopGhost;
},
{
horizontal = 1;
place = (800, 40);
place = (800, 40);
type = Stem;
},
{
place = (440, 120);
place = (440, 120);
type = Stem;
}
);
layerId = "45DABB71-BDAF-41D9-9CB5-36007FEF02C0";
shapes = (
{
closed = 1;
nodes = (
(120,400,l),
(-80,40,l),
(-40,0,l),
(40,0,l),
(200,320,l),
(320,440,l),
(400,480,l),
(440,440,l),
(240,80,l),
(240,40,l),
(280,0,l),
(360,0,l),
(440,40,l),
(640,240,l),
(600,280,l),
(400,80,l),
(360,80,l),
(560,400,l),
(560,520,l),
(440,560,l),
(320,520,l),
(240,440,l),
(440,840,l),
(160,840,l),
(160,800,l),
(280,800,l)
);
}
);
width = 640;
}
);
note = h;
unicode = 104;
},
{
glyphname = i;
kernLeft = i;
lastChange = "2024-02-26 21:22:19 +0000";
layers = (
{
hints = (
{
horizontal = 1;
place = (0, 800);
place = (0, 800);
type = Stem;
},
{
place = (0, 520);
place = (0, 520);
type = Stem;
}
);
layerId = m01;
shapes = (
{
closed = 1;
nodes = (
(360,680,l),
(360,720,l),
(400,800,l),
(440,800,l),
(520,760,l),
(520,720,l),
(480,640,l),
(440,640,l)
);
},
{
closed = 1;
nodes = (
(200,520,l),
(320,560,l),
(400,520,l),
(400,480,l),
(160,80,l),
(200,80,l),
(400,280,l),
(440,240,l),
(240,40,l),
(160,0,l),
(80,0,l),
(40,40,l),
(40,80,l),
(280,480,l),
(240,480,l),
(40,280,l),
(0,320,l)
);
}
);
width = 440;
},
{
hints = (
{
horizontal = 1;
place = (0, 800);
place = (0, 800);
type = Stem;
},
{
place = (0, 520);
place = (0, 520);
type = Stem;
}
);
layerId = "45DABB71-BDAF-41D9-9CB5-36007FEF02C0";
shapes = (
{
closed = 1;
nodes = (
(360,680,l),
(360,720,l),
(400,800,l),
(440,800,l),
(520,760,l),
(520,720,l),
(480,640,l),
(440,640,l)
);
},
{
closed = 1;
nodes = (
(200,520,l),
(320,560,l),
(400,520,l),
(400,480,l),
(160,80,l),
(200,80,l),
(400,280,l),
(440,240,l),
(240,40,l),
(160,0,l),
(80,0,l),
(40,40,l),
(40,80,l),
(280,480,l),
(240,480,l),
(40,280,l),
(0,320,l)
);
}
);
width = 440;
}
);
note = i;
unicode = 105;
},
{
glyphname = j;
kernLeft = j;
lastChange = "2024-02-26 21:22:19 +0000";
layers = (
{
hints = (
{
horizontal = 1;
place = (-320, 21);
target = up;
type = BottomGhost;
},
{
horizontal = 1;
place = (560, -20);
target = down;
type = TopGhost;
},
{
horizontal = 1;
place = (640, 160);
place = (640, 160);
type = Stem;
},
{
place = (-200, 120);
place = (-200, 120);
type = Stem;
},
{
place = (360, 160);
place = (360, 160);
type = Stem;
}
);
layerId = m01;
shapes = (
{
closed = 1;
nodes = (
(480,640,l),
(520,720,l),
(520,760,l),
(440,800,l),
(400,800,l),
(360,720,l),
(360,680,l),
(440,640,l)
);
},
{
closed = 1;
nodes = (
(40,280,l),
(240,480,l),
(280,480,l),
(40,-80,l),
(-40,-240,l),
(-80,-240,l),
(-80,-160,l),
(-120,-120,l),
(-200,-160,l),
(-200,-280,l),
(-80,-320,l),
(0,-280,l),
(120,-160,l),
(400,480,l),
(400,520,l),
(360,560,l),
(200,520,l),
(0,320,l)
);
}
);
width = 400;
},
{
hints = (
{
horizontal = 1;
place = (-320, 21);
target = up;
type = BottomGhost;
},
{
horizontal = 1;
place = (560, -20);
target = down;
type = TopGhost;
},
{
horizontal = 1;
place = (640, 160);
place = (640, 160);
type = Stem;
},
{
place = (-200, 120);
place = (-200, 120);
type = Stem;
},
{
place = (360, 160);
place = (360, 160);
type = Stem;
}
);
layerId = "45DABB71-BDAF-41D9-9CB5-36007FEF02C0";
shapes = (
{
closed = 1;
nodes = (
(480,640,l),
(520,720,l),
(520,760,l),
(440,800,l),
(400,800,l),
(360,720,l),
(360,680,l),
(440,640,l)
);
},
{
closed = 1;
nodes = (
(40,280,l),
(240,480,l),
(280,480,l),
(40,-80,l),
(-40,-240,l),
(-80,-240,l),
(-80,-160,l),
(-120,-120,l),
(-200,-160,l),
(-200,-280,l),
(-80,-320,l),
(0,-280,l),
(120,-160,l),
(400,480,l),
(400,520,l),
(360,560,l),
(200,520,l),
(0,320,l)
);
}
);
width = 400;
}
);
note = j;
unicode = 106;
},
{
glyphname = k;
kernLeft = b;
lastChange = "2024-02-26 21:22:19 +0000";
layers = (
{
hints = (
{
horizontal = 1;
place = (0, 120);
place = (0, 120);
type = Stem;
},
{
horizontal = 1;
place = (240, 40);
place = (240, 40);
type = Stem;
},
{
horizontal = 1;
place = (560, -20);
target = down;
type = TopGhost;
},
{
horizontal = 1;
place = (800, 40);
place = (800, 40);
type = Stem;
},
{
place = (200, 80);
place = (200, 80);
type = Stem;
},
{
place = (480, 120);
place = (480, 120);
type = Stem;
}
);
layerId = m01;
shapes = (
{
closed = 1;
nodes = (
(200,360,l),
(480,840,l),
(200,840,l),
(200,800,l),
(320,800,l),
(160,400,l),
(-40,40,l),
(0,0,l),
(80,0,l),
(240,360,l)
);
},
{
closed = 1;
nodes = (
(200,80,l),
(240,0,l),
(320,0,l),
(440,80,l),
(600,240,l),
(560,280,l),
(400,120,l),
(320,120,l),
(280,160,l),
(280,240,l),
(360,240,l),
(480,280,l),
(600,400,l),
(600,480,l),
(480,560,l),
(360,520,l),
(240,360,l),
(200,200,l)
);
},
{
closed = 1;
nodes = (
(400,480,l),
(440,480,l),
(480,400,l),
(440,320,l),
(360,280,l),
(280,280,l),
(280,320,l)
);
}
);
width = 600;
},
{
hints = (
{
horizontal = 1;
place = (0, 120);
place = (0, 120);
type = Stem;
},
{
horizontal = 1;
place = (240, 40);
place = (240, 40);
type = Stem;
},
{
horizontal = 1;
place = (560, -20);
target = down;
type = TopGhost;
},
{
horizontal = 1;
place = (800, 40);
place = (800, 40);
type = Stem;
},
{
place = (200, 80);
place = (200, 80);
type = Stem;
},
{
place = (480, 120);
place = (480, 120);
type = Stem;
}
);
layerId = "45DABB71-BDAF-41D9-9CB5-36007FEF02C0";
shapes = (
{
closed = 1;
nodes = (
(200,360,l),
(480,840,l),
(200,840,l),
(200,800,l),
(320,800,l),
(160,400,l),
(-40,40,l),
(0,0,l),
(80,0,l),
(240,360,l)
);
},
{
closed = 1;
nodes = (
(200,80,l),
(240,0,l),
(320,0,l),
(440,80,l),
(600,240,l),
(560,280,l),
(400,120,l),
(320,120,l),
(280,160,l),
(280,240,l),
(360,240,l),
(480,280,l),
(600,400,l),
(600,480,l),
(480,560,l),
(360,520,l),
(240,360,l),
(200,200,l)
);
},
{
closed = 1;
nodes = (
(400,480,l),
(440,480,l),
(480,400,l),
(440,320,l),
(360,280,l),
(280,280,l),
(280,320,l)
);
}
);
width = 600;
}
);
note = k;
unicode = 107;
},
{
glyphname = l;
kernLeft = b;
lastChange = "2024-02-26 21:22:19 +0000";
layers = (
{
hints = (
{
horizontal = 1;
place = (0, 840);
place = (0, 840);
type = Stem;
},
{
place = (0, 480);
place = (0, 480);
type = Stem;
}
);
layerId = m01;
shapes = (
{
closed = 1;
nodes = (
(160,80,l),
(360,280,l),
(400,240,l),
(200,40,l),
(80,0,l),
(0,40,l),
(0,80,l),
(320,800,l),
(200,800,l),
(200,840,l),
(480,840,l),
(120,80,l)
);
}
);
width = 400;
},
{
hints = (
{
horizontal = 1;
place = (0, 840);
place = (0, 840);
type = Stem;
},
{
place = (0, 480);
place = (0, 480);
type = Stem;
}
);
layerId = "45DABB71-BDAF-41D9-9CB5-36007FEF02C0";
shapes = (
{
closed = 1;
nodes = (
(160,80,l),
(360,280,l),
(400,240,l),
(200,40,l),
(80,0,l),
(0,40,l),
(0,80,l),
(320,800,l),
(200,800,l),
(200,840,l),
(480,840,l),
(120,80,l)
);
}
);
width = 400;
}
);
note = l;
unicode = 108;
},
{
glyphname = m;
kernLeft = m;
lastChange = "2024-02-26 21:22:19 +0000";
layers = (
{
hints = (
{
horizontal = 1;
place = (0, 80);
place = (0, 80);
type = Stem;
},
{
horizontal = 1;
place = (560, -20);
target = down;
type = TopGhost;
},
{
place = (520, 120);
place = (520, 120);
type = Stem;
},
{
place = (840, 120);
place = (840, 120);
type = Stem;
}
);
layerId = m01;
shapes = (
{
closed = 1;
nodes = (
(720,440,l),
(800,480,l),
(840,440,l),
(640,80,l),
(640,40,l),
(680,0,l),
(760,0,l),
(840,40,l),
(1040,240,l),
(1000,280,l),
(800,80,l),
(760,80,l),
(960,400,l),
(960,520,l),
(840,560,l),
(720,520,l),
(640,440,l),
(640,520,l),
(560,560,l),
(440,520,l),
(320,400,l),
(360,480,l),
(360,520,l),
(320,560,l),
(200,520,l),
(0,320,l),
(40,280,l),
(240,480,l),
(280,480,l),
(40,40,l),
(80,0,l),
(160,0,l),
(320,320,l),
(440,440,l),
(520,480,l),
(560,440,l),
(360,40,l),
(400,0,l),
(480,0,l),
(640,360,l)
);
}
);
width = 1040;
},
{
hints = (
{
horizontal = 1;
place = (0, 80);
place = (0, 80);
type = Stem;
},
{
horizontal = 1;
place = (560, -20);
target = down;
type = TopGhost;
},
{
place = (520, 120);
place = (520, 120);
type = Stem;
},
{
place = (840, 120);
place = (840, 120);
type = Stem;
}
);
layerId = "45DABB71-BDAF-41D9-9CB5-36007FEF02C0";
shapes = (
{
closed = 1;
nodes = (
(720,440,l),
(800,480,l),
(840,440,l),
(640,80,l),
(640,40,l),
(680,0,l),
(760,0,l),
(840,40,l),
(1040,240,l),
(1000,280,l),
(800,80,l),
(760,80,l),
(960,400,l),
(960,520,l),
(840,560,l),
(720,520,l),
(640,440,l),
(640,520,l),
(560,560,l),
(440,520,l),
(320,400,l),
(360,480,l),
(360,520,l),
(320,560,l),
(200,520,l),
(0,320,l),
(40,280,l),
(240,480,l),
(280,480,l),
(40,40,l),
(80,0,l),
(160,0,l),
(320,320,l),
(440,440,l),
(520,480,l),
(560,440,l),
(360,40,l),
(400,0,l),
(480,0,l),
(640,360,l)
);
}
);
width = 1040;
}
);
note = m;
unicode = 109;
},
{
glyphname = n;
kernLeft = m;
lastChange = "2024-02-26 21:22:19 +0000";
layers = (
{
hints = (
{
horizontal = 1;
place = (0, 80);
place = (0, 80);
type = Stem;
},
{
horizontal = 1;
place = (560, -20);
target = down;
type = TopGhost;
},
{
place = (560, 120);
place = (560, 120);
type = Stem;
}
);
layerId = m01;
shapes = (
{
closed = 1;
nodes = (
(40,280,l),
(240,480,l),
(280,480,l),
(40,40,l),
(80,0,l),
(160,0,l),
(320,320,l),
(440,440,l),
(520,480,l),
(560,440,l),
(360,80,l),
(360,40,l),
(400,0,l),
(480,0,l),
(560,40,l),
(760,240,l),
(720,280,l),
(520,80,l),
(480,80,l),
(680,400,l),
(680,520,l),
(560,560,l),
(440,520,l),
(320,400,l),
(360,480,l),
(360,520,l),
(320,560,l),
(200,520,l),
(0,320,l)
);
}
);
width = 760;
},
{
hints = (
{
horizontal = 1;
place = (0, 80);
place = (0, 80);
type = Stem;
},
{
horizontal = 1;
place = (560, -20);
target = down;
type = TopGhost;
},
{
place = (560, 120);
place = (560, 120);
type = Stem;
}
);
layerId = "45DABB71-BDAF-41D9-9CB5-36007FEF02C0";
shapes = (
{
closed = 1;
nodes = (
(40,280,l),
(240,480,l),
(280,480,l),
(40,40,l),
(80,0,l),
(160,0,l),
(320,320,l),
(440,440,l),
(520,480,l),
(560,440,l),
(360,80,l),
(360,40,l),
(400,0,l),
(480,0,l),
(560,40,l),
(760,240,l),
(720,280,l),
(520,80,l),
(480,80,l),
(680,400,l),
(680,520,l),
(560,560,l),
(440,520,l),
(320,400,l),
(360,480,l),
(360,520,l),
(320,560,l),
(200,520,l),
(0,320,l)
);
}
);
width = 760;
}
);
note = n;
unicode = 110;
},
{
glyphname = o;
kernLeft = c;
kernRight = b;
lastChange = "2024-02-26 21:22:19 +0000";
layers = (
{
hints = (
{
horizontal = 1;
place = (0, 80);
place = (0, 80);
type = Stem;
},
{
horizontal = 1;
place = (560, -20);
target = down;
type = TopGhost;
},
{
place = (40, 560);
place = (40, 560);
type = Stem;
},
{
horizontal = 1;
place = (480, 80);
place = (480, 80);
type = Stem;
}
);
layerId = m01;
shapes = (
{
closed = 1;
nodes = (
(280,0,l),
(480,120,l),
(600,360,l),
(520,520,l),
(360,560,l),
(160,440,l),
(40,200,l),
(120,40,l),
(200,0,l)
);
},
{
closed = 1;
nodes = (
(440,480,l),
(480,360,l),
(400,200,l),
(280,80,l),
(200,80,l),
(160,200,l),
(240,360,l),
(360,480,l)
);
}
);
width = 640;
},
{
hints = (
{
horizontal = 1;
place = (0, 80);
place = (0, 80);
type = Stem;
},
{
horizontal = 1;
place = (560, -20);
target = down;
type = TopGhost;
},
{
place = (40, 560);
place = (40, 560);
type = Stem;
},
{
horizontal = 1;
place = (480, 80);
place = (480, 80);
type = Stem;
}
);
layerId = "45DABB71-BDAF-41D9-9CB5-36007FEF02C0";
shapes = (
{
closed = 1;
nodes = (
(280,0,l),
(480,120,l),
(600,360,l),
(520,520,l),
(360,560,l),
(160,440,l),
(40,200,l),
(120,40,l),
(200,0,l)
);
},
{
closed = 1;
nodes = (
(440,480,l),
(480,360,l),
(400,200,l),
(280,80,l),
(200,80,l),
(160,200,l),
(240,360,l),
(360,480,l)
);
}
);
width = 640;
}
);
note = o;
unicode = 111;
},
{
glyphname = p;
kernLeft = m;
kernRight = b;
lastChange = "2024-02-26 21:22:19 +0000";
layers = (
{
hints = (
{
horizontal = 1;
place = (-280, 40);
place = (-280, 40);
type = Stem;
},
{
horizontal = 1;
place = (0, 80);
place = (0, 80);
type = Stem;
},
{
horizontal = 1;
place = (560, -20);
target = down;
type = TopGhost;
},
{
place = (-160, 840);
place = (-160, 840);
type = Stem;
}
);
layerId = m01;
shapes = (
{
closed = 1;
nodes = (
(200,520,l),
(0,320,l),
(40,280,l),
(240,480,l),
(280,480,l),
(-80,-240,l),
(-160,-240,l),
(-160,-280,l),
(200,-280,l),
(200,-240,l),
(40,-240,l),
(200,120,l),
(240,0,l),
(400,0,l),
(600,160,l),
(680,360,l),
(640,520,l),
(560,560,l),
(440,520,l),
(360,440,l),
(360,520,l),
(320,560,l)
);
},
{
closed = 1;
nodes = (
(520,480,l),
(560,360,l),
(480,200,l),
(360,80,l),
(280,80,l),
(240,160,l),
(240,200,l),
(320,320,l),
(440,440,l)
);
}
);
width = 720;
},
{
hints = (
{
horizontal = 1;
place = (-280, 40);
place = (-280, 40);
type = Stem;
},
{
horizontal = 1;
place = (0, 80);
place = (0, 80);
type = Stem;
},
{
horizontal = 1;
place = (560, -20);
target = down;
type = TopGhost;
},
{
place = (-160, 840);
place = (-160, 840);
type = Stem;
}
);
layerId = "45DABB71-BDAF-41D9-9CB5-36007FEF02C0";
shapes = (
{
closed = 1;
nodes = (
(200,520,l),
(0,320,l),
(40,280,l),
(240,480,l),
(280,480,l),
(-80,-240,l),
(-160,-240,l),
(-160,-280,l),
(200,-280,l),
(200,-240,l),
(40,-240,l),
(200,120,l),
(240,0,l),
(400,0,l),
(600,160,l),
(680,360,l),
(640,520,l),
(560,560,l),
(440,520,l),
(360,440,l),
(360,520,l),
(320,560,l)
);
},
{
closed = 1;
nodes = (
(520,480,l),
(560,360,l),
(480,200,l),
(360,80,l),
(280,80,l),
(240,160,l),
(240,200,l),
(320,320,l),
(440,440,l)
);
}
);
width = 720;
}
);
note = p;
unicode = 112;
},
{
glyphname = q;
kernLeft = c;
lastChange = "2024-02-26 21:22:19 +0000";
layers = (
{
hints = (
{
horizontal = 1;
place = (-320, 40);
place = (-320, 40);
type = Stem;
},
{
horizontal = 1;
place = (0, 80);
place = (0, 80);
type = Stem;
},
{
horizontal = 1;
place = (560, -20);
target = down;
type = TopGhost;
},
{
place = (40, 640);
place = (40, 640);
type = Stem;
}
);
layerId = m01;
shapes = (
{
closed = 1;
nodes = (
(480,120,l),
(680,520,l),
(640,560,l),
(560,440,l),
(480,520,l),
(320,560,l),
(120,400,l),
(40,200,l),
(80,40,l),
(160,0,l),
(240,0,l),
(360,80,l),
(200,-280,l),
(80,-280,l),
(80,-320,l),
(440,-320,l),
(440,-280,l),
(320,-280,l)
);
},
{
closed = 1;
nodes = (
(200,80,l),
(160,200,l),
(240,360,l),
(400,480,l),
(480,440,l),
(520,400,l),
(520,360,l),
(400,200,l),
(240,80,l)
);
}
);
width = 640;
},
{
hints = (
{
horizontal = 1;
place = (-320, 40);
place = (-320, 40);
type = Stem;
},
{
horizontal = 1;
place = (0, 80);
place = (0, 80);
type = Stem;
},
{
horizontal = 1;
place = (560, -20);
target = down;
type = TopGhost;
},
{
place = (40, 640);
place = (40, 640);
type = Stem;
}
);
layerId = "45DABB71-BDAF-41D9-9CB5-36007FEF02C0";
shapes = (
{
closed = 1;
nodes = (
(480,120,l),
(680,520,l),
(640,560,l),
(560,440,l),
(480,520,l),
(320,560,l),
(120,400,l),
(40,200,l),
(80,40,l),
(160,0,l),
(240,0,l),
(360,80,l),
(200,-280,l),
(80,-280,l),
(80,-320,l),
(440,-320,l),
(440,-280,l),
(320,-280,l)
);
},
{
closed = 1;
nodes = (
(200,80,l),
(160,200,l),
(240,360,l),
(400,480,l),
(480,440,l),
(520,400,l),
(520,360,l),
(400,200,l),
(240,80,l)
);
}
);
width = 640;
}
);
note = q;
unicode = 113;
},
{
glyphname = r;
kernLeft = m;
kernRight = r;
lastChange = "2024-02-26 21:22:19 +0000";
layers = (
{
hints = (
{
horizontal = 1;
place = (0, 21);
target = up;
type = BottomGhost;
},
{
horizontal = 1;
place = (560, -20);
target = down;
type = TopGhost;
},
{
place = (0, 600);
place = (0, 600);
type = Stem;
},
{
horizontal = 1;
place = (0, 40);
place = (0, 40);
type = Stem;
}
);
layerId = m01;
shapes = (
{
closed = 1;
nodes = (
(40,280,l),
(240,480,l),
(280,480,l),
(40,40,l),
(80,0,l),
(160,0,l),
(320,320,l),
(440,400,l),
(560,400,l),
(600,520,l),
(520,560,l),
(440,520,l),
(320,360,l),
(280,360,l),
(360,480,l),
(360,520,l),
(320,560,l),
(200,520,l),
(0,320,l)
);
}
);
width = 520;
},
{
hints = (
{
horizontal = 1;
place = (0, 21);
target = up;
type = BottomGhost;
},
{
horizontal = 1;
place = (560, -20);
target = down;
type = TopGhost;
},
{
place = (0, 600);
place = (0, 600);
type = Stem;
},
{
horizontal = 1;
place = (0, 40);
place = (0, 40);
type = Stem;
}
);
layerId = "45DABB71-BDAF-41D9-9CB5-36007FEF02C0";
shapes = (
{
closed = 1;
nodes = (
(40,280,l),
(240,480,l),
(280,480,l),
(40,40,l),
(80,0,l),
(160,0,l),
(320,320,l),
(440,400,l),
(560,400,l),
(600,520,l),
(520,560,l),
(440,520,l),
(320,360,l),
(280,360,l),
(360,480,l),
(360,520,l),
(320,560,l),
(200,520,l),
(0,320,l)
);
}
);
width = 520;
}
);
note = r;
unicode = 114;
},
{
glyphname = s;
kernLeft = s;
lastChange = "2024-02-26 21:22:19 +0000";
layers = (
{
hints = (
{
horizontal = 1;
place = (0, 40);
place = (0, 40);
type = Stem;
},
{
horizontal = 1;
place = (560, -20);
target = down;
type = TopGhost;
},
{
place = (-40, 120);
place = (-40, 120);
type = Stem;
},
{
place = (200, 120);
place = (200, 120);
type = Stem;
},
{
place = (360, 120);
place = (360, 120);
type = Stem;
},
{
place = (160, 120);
place = (160, 120);
type = Stem;
}
);
layerId = m01;
shapes = (
{
closed = 1;
nodes = (
(80,160,l),
(40,200,l),
(-40,160,l),
(-40,40,l),
(40,0,l),
(120,0,l),
(240,40,l),
(320,120,l),
(320,200,l),
(280,400,l),
(280,480,l),
(360,520,l),
(360,400,l),
(400,360,l),
(480,400,l),
(480,520,l),
(360,560,l),
(200,520,l),
(160,440,l),
(160,360,l),
(200,200,l),
(200,120,l),
(120,40,l),
(80,40,l)
);
}
);
width = 480;
},
{
hints = (
{
horizontal = 1;
place = (0, 40);
place = (0, 40);
type = Stem;
},
{
horizontal = 1;
place = (560, -20);
target = down;
type = TopGhost;
},
{
place = (-40, 120);
place = (-40, 120);
type = Stem;
},
{
place = (200, 120);
place = (200, 120);
type = Stem;
},
{
place = (360, 120);
place = (360, 120);
type = Stem;
},
{
place = (160, 120);
place = (160, 120);
type = Stem;
}
);
layerId = "45DABB71-BDAF-41D9-9CB5-36007FEF02C0";
shapes = (
{
closed = 1;
nodes = (
(80,160,l),
(40,200,l),
(-40,160,l),
(-40,40,l),
(40,0,l),
(120,0,l),
(240,40,l),
(320,120,l),
(320,200,l),
(280,400,l),
(280,480,l),
(360,520,l),
(360,400,l),
(400,360,l),
(480,400,l),
(480,520,l),
(360,560,l),
(200,520,l),
(160,440,l),
(160,360,l),
(200,200,l),
(200,120,l),
(120,40,l),
(80,40,l)
);
}
);
width = 480;
}
);
note = s;
unicode = 115;
},
{
glyphname = t;
kernLeft = t;
lastChange = "2024-02-26 21:22:19 +0000";
layers = (
{
hints = (
{
horizontal = 1;
place = (0, 80);
place = (0, 80);
type = Stem;
},
{
horizontal = 1;
place = (480, 40);
place = (480, 40);
type = Stem;
},
{
place = (0, 440);
place = (0, 440);
type = Stem;
}
);
layerId = m01;
shapes = (
{
closed = 1;
nodes = (
(320,480,l),
(440,480,l),
(440,520,l),
(320,520,l),
(400,680,l),
(320,680,l),
(280,560,l),
(200,520,l),
(120,520,l),
(120,480,l),
(200,480,l),
(0,80,l),
(0,40,l),
(40,0,l),
(120,0,l),
(200,40,l),
(400,240,l),
(360,280,l),
(160,80,l),
(120,80,l)
);
}
);
width = 440;
},
{
hints = (
{
horizontal = 1;
place = (0, 80);
place = (0, 80);
type = Stem;
},
{
horizontal = 1;
place = (480, 40);
place = (480, 40);
type = Stem;
},
{
place = (0, 440);
place = (0, 440);
type = Stem;
}
);
layerId = "45DABB71-BDAF-41D9-9CB5-36007FEF02C0";
shapes = (
{
closed = 1;
nodes = (
(320,480,l),
(440,480,l),
(440,520,l),
(320,520,l),
(400,680,l),
(320,680,l),
(280,560,l),
(200,520,l),
(120,520,l),
(120,480,l),
(200,480,l),
(0,80,l),
(0,40,l),
(40,0,l),
(120,0,l),
(200,40,l),
(400,240,l),
(360,280,l),
(160,80,l),
(120,80,l)
);
}
);
width = 440;
}
);
note = t;
unicode = 116;
},
{
glyphname = u;
kernLeft = m;
lastChange = "2024-02-26 21:22:19 +0000";
layers = (
{
hints = (
{
horizontal = 1;
place = (0, 80);
place = (0, 80);
type = Stem;
},
{
horizontal = 1;
place = (480, 40);
place = (480, 40);
type = Stem;
},
{
horizontal = 1;
place = (560, -20);
target = down;
type = TopGhost;
},
{
place = (0, 760);
place = (0, 760);
type = Stem;
}
);
layerId = m01;
shapes = (
{
closed = 1;
nodes = (
(720,280,l),
(520,80,l),
(480,80,l),
(720,480,l),
(680,520,l),
(600,520,l),
(440,240,l),
(280,80,l),
(240,80,l),
(200,160,l),
(400,480,l),
(400,520,l),
(320,560,l),
(200,520,l),
(0,320,l),
(40,280,l),
(240,480,l),
(280,480,l),
(80,160,l),
(120,40,l),
(200,0,l),
(280,0,l),
(400,120,l),
(400,40,l),
(440,0,l),
(480,0,l),
(560,40,l),
(760,240,l)
);
}
);
width = 760;
},
{
hints = (
{
horizontal = 1;
place = (0, 80);
place = (0, 80);
type = Stem;
},
{
horizontal = 1;
place = (480, 40);
place = (480, 40);
type = Stem;
},
{
horizontal = 1;
place = (560, -20);
target = down;
type = TopGhost;
},
{
place = (0, 760);
place = (0, 760);
type = Stem;
}
);
layerId = "45DABB71-BDAF-41D9-9CB5-36007FEF02C0";
shapes = (
{
closed = 1;
nodes = (
(720,280,l),
(520,80,l),
(480,80,l),
(720,480,l),
(680,520,l),
(600,520,l),
(440,240,l),
(280,80,l),
(240,80,l),
(200,160,l),
(400,480,l),
(400,520,l),
(320,560,l),
(200,520,l),
(0,320,l),
(40,280,l),
(240,480,l),
(280,480,l),
(80,160,l),
(120,40,l),
(200,0,l),
(280,0,l),
(400,120,l),
(400,40,l),
(440,0,l),
(480,0,l),
(560,40,l),
(760,240,l)
);
}
);
width = 760;
}
);
note = u;
unicode = 117;
},
{
glyphname = v;
kernLeft = m;
kernRight = v;
lastChange = "2024-02-26 21:22:19 +0000";
layers = (
{
hints = (
{
horizontal = 1;
place = (0, 80);
place = (0, 80);
type = Stem;
},
{
horizontal = 1;
place = (400, 120);
place = (400, 120);
type = Stem;
},
{
horizontal = 1;
place = (560, -20);
target = down;
type = TopGhost;
},
{
place = (280, 120);
place = (280, 120);
type = Stem;
},
{
place = (480, 120);
place = (480, 120);
type = Stem;
}
);
layerId = m01;
shapes = (
{
closed = 1;
nodes = (
(480,280,l),
(320,120,l),
(200,80,l),
(160,80,l),
(400,440,l),
(400,520,l),
(320,560,l),
(200,520,l),
(0,320,l),
(40,280,l),
(240,480,l),
(280,480,l),
(40,80,l),
(40,40,l),
(80,0,l),
(160,0,l),
(360,80,l),
(520,240,l),
(600,400,l),
(600,480,l),
(560,520,l),
(480,520,l),
(440,440,l),
(480,400,l),
(520,400,l)
);
}
);
width = 600;
},
{
hints = (
{
horizontal = 1;
place = (0, 80);
place = (0, 80);
type = Stem;
},
{
horizontal = 1;
place = (400, 120);
place = (400, 120);
type = Stem;
},
{
horizontal = 1;
place = (560, -20);
target = down;
type = TopGhost;
},
{
place = (280, 120);
place = (280, 120);
type = Stem;
},
{
place = (480, 120);
place = (480, 120);
type = Stem;
}
);
layerId = "45DABB71-BDAF-41D9-9CB5-36007FEF02C0";
shapes = (
{
closed = 1;
nodes = (
(480,280,l),
(320,120,l),
(200,80,l),
(160,80,l),
(400,440,l),
(400,520,l),
(320,560,l),
(200,520,l),
(0,320,l),
(40,280,l),
(240,480,l),
(280,480,l),
(40,80,l),
(40,40,l),
(80,0,l),
(160,0,l),
(360,80,l),
(520,240,l),
(600,400,l),
(600,480,l),
(560,520,l),
(480,520,l),
(440,440,l),
(480,400,l),
(520,400,l)
);
}
);
width = 600;
}
);
note = v;
unicode = 118;
},
{
glyphname = w;
kernLeft = m;
kernRight = v;
lastChange = "2024-02-26 21:22:19 +0000";
layers = (
{
hints = (
{
horizontal = 1;
place = (0, 80);
place = (0, 80);
type = Stem;
},
{
horizontal = 1;
place = (480, 40);
place = (480, 40);
type = Stem;
},
{
horizontal = 1;
place = (560, -20);
target = down;
type = TopGhost;
},
{
place = (760, 120);
place = (760, 120);
type = Stem;
},
{
horizontal = 1;
place = (40, 40);
place = (40, 40);
type = Stem;
},
{
horizontal = 1;
place = (400, 120);
place = (400, 120);
type = Stem;
}
);
layerId = m01;
shapes = (
{
closed = 1;
nodes = (
(760,280,l),
(600,120,l),
(520,80,l),
(480,80,l),
(640,480,l),
(600,520,l),
(520,520,l),
(440,280,l),
(240,80,l),
(200,80,l),
(360,480,l),
(360,520,l),
(280,560,l),
(160,520,l),
(0,320,l),
(40,280,l),
(200,480,l),
(240,480,l),
(80,80,l),
(80,40,l),
(120,0,l),
(200,0,l),
(280,40,l),
(400,160,l),
(360,40,l),
(400,0,l),
(480,0,l),
(640,80,l),
(800,240,l),
(880,400,l),
(880,480,l),
(840,520,l),
(760,520,l),
(720,440,l),
(760,400,l),
(800,400,l)
);
}
);
width = 880;
},
{
hints = (
{
horizontal = 1;
place = (0, 80);
place = (0, 80);
type = Stem;
},
{
horizontal = 1;
place = (480, 40);
place = (480, 40);
type = Stem;
},
{
horizontal = 1;
place = (560, -20);
target = down;
type = TopGhost;
},
{
place = (760, 120);
place = (760, 120);
type = Stem;
},
{
horizontal = 1;
place = (40, 40);
place = (40, 40);
type = Stem;
},
{
horizontal = 1;
place = (400, 120);
place = (400, 120);
type = Stem;
}
);
layerId = "45DABB71-BDAF-41D9-9CB5-36007FEF02C0";
shapes = (
{
closed = 1;
nodes = (
(760,280,l),
(600,120,l),
(520,80,l),
(480,80,l),
(640,480,l),
(600,520,l),
(520,520,l),
(440,280,l),
(240,80,l),
(200,80,l),
(360,480,l),
(360,520,l),
(280,560,l),
(160,520,l),
(0,320,l),
(40,280,l),
(200,480,l),
(240,480,l),
(80,80,l),
(80,40,l),
(120,0,l),
(200,0,l),
(280,40,l),
(400,160,l),
(360,40,l),
(400,0,l),
(480,0,l),
(640,80,l),
(800,240,l),
(880,400,l),
(880,480,l),
(840,520,l),
(760,520,l),
(720,440,l),
(760,400,l),
(800,400,l)
);
}
);
width = 880;
}
);
note = w;
unicode = 119;
},
{
glyphname = x;
kernLeft = x;
lastChange = "2024-02-26 21:22:19 +0000";
layers = (
{
hints = (
{
horizontal = 1;
place = (0, 120);
place = (0, 120);
type = Stem;
},
{
horizontal = 1;
place = (560, -20);
target = down;
type = TopGhost;
},
{
place = (280, 40);
place = (280, 40);
type = Stem;
}
);
layerId = m01;
shapes = (
{
closed = 1;
nodes = (
(280,240,l),
(280,40,l),
(320,0,l),
(400,0,l),
(560,160,l),
(520,200,l),
(440,120,l),
(400,120,l),
(320,240,l),
(320,520,l),
(280,560,l),
(200,520,l),
(0,320,l),
(40,280,l),
(160,400,l),
(200,400,l),
(280,280,l),
(-40,40,l),
(40,-40,l)
);
},
{
closed = 1;
nodes = (
(360,320,l),
(360,280,l),
(640,480,l),
(560,560,l)
);
}
);
width = 600;
},
{
hints = (
{
horizontal = 1;
place = (0, 120);
place = (0, 120);
type = Stem;
},
{
horizontal = 1;
place = (560, -20);
target = down;
type = TopGhost;
},
{
place = (280, 40);
place = (280, 40);
type = Stem;
}
);
layerId = "45DABB71-BDAF-41D9-9CB5-36007FEF02C0";
shapes = (
{
closed = 1;
nodes = (
(280,240,l),
(280,40,l),
(320,0,l),
(400,0,l),
(560,160,l),
(520,200,l),
(440,120,l),
(400,120,l),
(320,240,l),
(320,520,l),
(280,560,l),
(200,520,l),
(0,320,l),
(40,280,l),
(160,400,l),
(200,400,l),
(280,280,l),
(-40,40,l),
(40,-40,l)
);
},
{
closed = 1;
nodes = (
(360,320,l),
(360,280,l),
(640,480,l),
(560,560,l)
);
}
);
width = 600;
}
);
note = x;
unicode = 120;
},
{
glyphname = y;
kernLeft = y;
lastChange = "2024-02-26 21:22:19 +0000";
layers = (
{
hints = (
{
horizontal = 1;
place = (-320, 80);
place = (-320, 80);
type = Stem;
},
{
horizontal = 1;
place = (0, 80);
place = (0, 80);
type = Stem;
},
{
horizontal = 1;
place = (480, 40);
place = (480, 40);
type = Stem;
},
{
horizontal = 1;
place = (560, -20);
target = down;
type = TopGhost;
},
{
place = (0, 120);
place = (0, 120);
type = Stem;
}
);
layerId = m01;
shapes = (
{
closed = 1;
nodes = (
(480,320,l),
(240,80,l),
(200,80,l),
(400,480,l),
(400,520,l),
(320,560,l),
(200,520,l),
(0,320,l),
(40,280,l),
(240,480,l),
(280,480,l),
(80,80,l),
(80,40,l),
(120,0,l),
(200,0,l),
(280,40,l),
(440,200,l),
(280,-80,l),
(200,-200,l),
(160,-240,l),
(120,-240,l),
(120,-160,l),
(80,-120,l),
(0,-160,l),
(0,-280,l),
(80,-320,l),
(120,-320,l),
(240,-240,l),
(360,-80,l),
(720,480,l),
(680,520,l),
(600,520,l)
);
}
);
width = 680;
},
{
hints = (
{
horizontal = 1;
place = (-320, 80);
place = (-320, 80);
type = Stem;
},
{
horizontal = 1;
place = (0, 80);
place = (0, 80);
type = Stem;
},
{
horizontal = 1;
place = (480, 40);
place = (480, 40);
type = Stem;
},
{
horizontal = 1;
place = (560, -20);
target = down;
type = TopGhost;
},
{
place = (0, 120);
place = (0, 120);
type = Stem;
}
);
layerId = "45DABB71-BDAF-41D9-9CB5-36007FEF02C0";
shapes = (
{
closed = 1;
nodes = (
(480,320,l),
(240,80,l),
(200,80,l),
(400,480,l),
(400,520,l),
(320,560,l),
(200,520,l),
(0,320,l),
(40,280,l),
(240,480,l),
(280,480,l),
(80,80,l),
(80,40,l),
(120,0,l),
(200,0,l),
(280,40,l),
(440,200,l),
(280,-80,l),
(200,-200,l),
(160,-240,l),
(120,-240,l),
(120,-160,l),
(80,-120,l),
(0,-160,l),
(0,-280,l),
(80,-320,l),
(120,-320,l),
(240,-240,l),
(360,-80,l),
(720,480,l),
(680,520,l),
(600,520,l)
);
}
);
width = 680;
}
);
note = y;
unicode = 121;
},
{
glyphname = z;
kernLeft = z;
lastChange = "2024-02-26 21:22:19 +0000";
layers = (
{
hints = (
{
horizontal = 1;
place = (0, 560);
place = (0, 560);
type = Stem;
},
{
place = (-80, 640);
place = (-80, 640);
type = Stem;
},
{
place = (120, 160);
place = (120, 160);
type = Stem;
}
);
layerId = m01;
shapes = (
{
closed = 1;
nodes = (
(400,40,l),
(320,0,l),
(120,0,l),
(40,80,l),
(-40,0,l),
(-80,40,l),
(360,400,l),
(160,440,l),
(120,400,l),
(120,320,l),
(80,320,l),
(80,520,l),
(280,560,l),
(440,480,l),
(520,560,l),
(560,520,l),
(120,120,l),
(280,80,l),
(280,160,l),
(360,200,l),
(400,160,l)
);
}
);
width = 520;
},
{
hints = (
{
horizontal = 1;
place = (0, 560);
place = (0, 560);
type = Stem;
},
{
place = (-80, 640);
place = (-80, 640);
type = Stem;
},
{
place = (120, 160);
place = (120, 160);
type = Stem;
}
);
layerId = "45DABB71-BDAF-41D9-9CB5-36007FEF02C0";
shapes = (
{
closed = 1;
nodes = (
(400,40,l),
(320,0,l),
(120,0,l),
(40,80,l),
(-40,0,l),
(-80,40,l),
(360,400,l),
(160,440,l),
(120,400,l),
(120,320,l),
(80,320,l),
(80,520,l),
(280,560,l),
(440,480,l),
(520,560,l),
(560,520,l),
(120,120,l),
(280,80,l),
(280,160,l),
(360,200,l),
(400,160,l)
);
}
);
width = 520;
}
);
note = z;
unicode = 122;
},
{
glyphname = period;
kernLeft = period;
kernRight = period;
lastChange = "2024-02-26 21:22:19 +0000";
layers = (
{
hints = (
{
horizontal = 1;
place = (0, 160);
place = (0, 160);
type = Stem;
},
{
place = (0, 160);
place = (0, 160);
type = Stem;
}
);
layerId = m01;
shapes = (
{
closed = 1;
nodes = (
(0,40,l),
(0,80,l),
(40,160,l),
(80,160,l),
(160,120,l),
(160,80,l),
(120,0,l),
(80,0,l)
);
}
);
width = 200;
},
{
hints = (
{
horizontal = 1;
place = (0, 160);
place = (0, 160);
type = Stem;
},
{
place = (0, 160);
place = (0, 160);
type = Stem;
}
);
layerId = "45DABB71-BDAF-41D9-9CB5-36007FEF02C0";
shapes = (
{
closed = 1;
nodes = (
(0,40,l),
(0,80,l),
(40,160,l),
(80,160,l),
(160,120,l),
(160,80,l),
(120,0,l),
(80,0,l)
);
}
);
width = 200;
}
);
note = period;
unicode = 46;
},
{
glyphname = comma;
kernLeft = comma;
kernRight = comma;
lastChange = "2024-02-26 21:22:19 +0000";
layers = (
{
hints = (
{
horizontal = 1;
place = (0, 21);
target = up;
type = BottomGhost;
},
{
place = (0, 200);
place = (0, 200);
type = Stem;
}
);
layerId = m01;
shapes = (
{
closed = 1;
nodes = (
(0,-120,l),
(0,-80,l),
(80,-80,l),
(120,0,l),
(40,40,l),
(40,80,l),
(80,160,l),
(120,160,l),
(200,120,l),
(200,40,l),
(120,-120,l)
);
}
);
width = 240;
},
{
hints = (
{
horizontal = 1;
place = (0, 21);
target = up;
type = BottomGhost;
},
{
place = (0, 200);
place = (0, 200);
type = Stem;
}
);
layerId = "45DABB71-BDAF-41D9-9CB5-36007FEF02C0";
shapes = (
{
closed = 1;
nodes = (
(0,-120,l),
(0,-80,l),
(80,-80,l),
(120,0,l),
(40,40,l),
(40,80,l),
(80,160,l),
(120,160,l),
(200,120,l),
(200,40,l),
(120,-120,l)
);
}
);
width = 240;
}
);
note = comma;
unicode = 44;
},
{
glyphname = colon;
kernLeft = colon;
kernRight = colon;
lastChange = "2024-02-26 21:22:19 +0000";
layers = (
{
hints = (
{
horizontal = 1;
place = (0, 520);
place = (0, 520);
type = Stem;
},
{
place = (0, 280);
place = (0, 280);
type = Stem;
}
);
layerId = m01;
shapes = (
{
closed = 1;
nodes = (
(120,400,l),
(120,440,l),
(160,520,l),
(200,520,l),
(280,480,l),
(280,440,l),
(240,360,l),
(200,360,l)
);
},
{
closed = 1;
nodes = (
(0,40,l),
(0,80,l),
(40,160,l),
(80,160,l),
(160,120,l),
(160,80,l),
(120,0,l),
(80,0,l)
);
}
);
width = 280;
},
{
hints = (
{
horizontal = 1;
place = (0, 520);
place = (0, 520);
type = Stem;
},
{
place = (0, 280);
place = (0, 280);
type = Stem;
}
);
layerId = "45DABB71-BDAF-41D9-9CB5-36007FEF02C0";
shapes = (
{
closed = 1;
nodes = (
(120,400,l),
(120,440,l),
(160,520,l),
(200,520,l),
(280,480,l),
(280,440,l),
(240,360,l),
(200,360,l)
);
},
{
closed = 1;
nodes = (
(0,40,l),
(0,80,l),
(40,160,l),
(80,160,l),
(160,120,l),
(160,80,l),
(120,0,l),
(80,0,l)
);
}
);
width = 280;
}
);
note = colon;
unicode = 58;
},
{
glyphname = semicolon;
kernLeft = colon;
kernRight = colon;
lastChange = "2024-02-26 21:22:19 +0000";
layers = (
{
hints = (
{
horizontal = 1;
place = (0, 21);
target = up;
type = BottomGhost;
},
{
place = (0, 320);
place = (0, 320);
type = Stem;
}
);
layerId = m01;
shapes = (
{
closed = 1;
nodes = (
(160,400,l),
(160,440,l),
(200,520,l),
(240,520,l),
(320,480,l),
(320,440,l),
(280,360,l),
(240,360,l)
);
},
{
closed = 1;
nodes = (
(0,-120,l),
(0,-80,l),
(80,-80,l),
(120,0,l),
(40,40,l),
(40,80,l),
(80,160,l),
(120,160,l),
(200,120,l),
(200,40,l),
(120,-120,l)
);
}
);
width = 320;
},
{
hints = (
{
horizontal = 1;
place = (0, 21);
target = up;
type = BottomGhost;
},
{
place = (0, 320);
place = (0, 320);
type = Stem;
}
);
layerId = "45DABB71-BDAF-41D9-9CB5-36007FEF02C0";
shapes = (
{
closed = 1;
nodes = (
(160,400,l),
(160,440,l),
(200,520,l),
(240,520,l),
(320,480,l),
(320,440,l),
(280,360,l),
(240,360,l)
);
},
{
closed = 1;
nodes = (
(0,-120,l),
(0,-80,l),
(80,-80,l),
(120,0,l),
(40,40,l),
(40,80,l),
(80,160,l),
(120,160,l),
(200,120,l),
(200,40,l),
(120,-120,l)
);
}
);
width = 320;
}
);
note = semicolon;
unicode = 59;
},
{
glyphname = ellipsis;
kernLeft = period;
kernRight = period;
lastChange = "2024-02-26 21:22:19 +0000";
layers = (
{
hints = (
{
horizontal = 1;
place = (0, 160);
place = (0, 160);
type = Stem;
},
{
place = (160, 80);
place = (160, 80);
type = Stem;
},
{
place = (400, 80);
place = (400, 80);
type = Stem;
}
);
layerId = m01;
shapes = (
{
closed = 1;
nodes = (
(0,40,l),
(0,80,l),
(40,160,l),
(80,160,l),
(160,120,l),
(160,80,l),
(120,0,l),
(80,0,l)
);
},
{
closed = 1;
nodes = (
(240,40,l),
(240,80,l),
(280,160,l),
(320,160,l),
(400,120,l),
(400,80,l),
(360,0,l),
(320,0,l)
);
},
{
closed = 1;
nodes = (
(480,40,l),
(480,80,l),
(520,160,l),
(560,160,l),
(640,120,l),
(640,80,l),
(600,0,l),
(560,0,l)
);
}
);
width = 640;
},
{
hints = (
{
horizontal = 1;
place = (0, 160);
place = (0, 160);
type = Stem;
},
{
place = (160, 80);
place = (160, 80);
type = Stem;
},
{
place = (400, 80);
place = (400, 80);
type = Stem;
}
);
layerId = "45DABB71-BDAF-41D9-9CB5-36007FEF02C0";
shapes = (
{
closed = 1;
nodes = (
(0,40,l),
(0,80,l),
(40,160,l),
(80,160,l),
(160,120,l),
(160,80,l),
(120,0,l),
(80,0,l)
);
},
{
closed = 1;
nodes = (
(240,40,l),
(240,80,l),
(280,160,l),
(320,160,l),
(400,120,l),
(400,80,l),
(360,0,l),
(320,0,l)
);
},
{
closed = 1;
nodes = (
(480,40,l),
(480,80,l),
(520,160,l),
(560,160,l),
(640,120,l),
(640,80,l),
(600,0,l),
(560,0,l)
);
}
);
width = 640;
}
);
note = ellipsis;
unicode = 8230;
},
{
glyphname = hyphen;
kernLeft = hyphen;
kernRight = hyphen;
lastChange = "2024-02-26 21:22:19 +0000";
layers = (
{
hints = (
{
horizontal = 1;
place = (240, 80);
place = (240, 80);
type = Stem;
},
{
place = (40, 240);
place = (40, 240);
type = Stem;
}
);
layerId = m01;
shapes = (
{
closed = 1;
nodes = (
(280,320,l),
(280,240,l),
(40,240,l),
(40,320,l)
);
}
);
width = 320;
},
{
hints = (
{
horizontal = 1;
place = (240, 80);
place = (240, 80);
type = Stem;
},
{
place = (40, 240);
place = (40, 240);
type = Stem;
}
);
layerId = "45DABB71-BDAF-41D9-9CB5-36007FEF02C0";
shapes = (
{
closed = 1;
nodes = (
(280,320,l),
(280,240,l),
(40,240,l),
(40,320,l)
);
}
);
width = 320;
}
);
note = hyphen;
unicode = 45;
},
{
glyphname = exclam;
lastChange = "2024-02-26 21:22:19 +0000";
layers = (
{
hints = (
{
horizontal = 1;
place = (160, 80);
place = (160, 80);
type = Stem;
},
{
place = (40, 400);
place = (40, 400);
type = Stem;
}
);
layerId = m01;
shapes = (
{
closed = 1;
nodes = (
(400,800,l),
(440,760,l),
(160,240,l),
(120,240,l),
(280,760,l),
(320,800,l)
);
},
{
closed = 1;
nodes = (
(40,40,l),
(40,80,l),
(80,160,l),
(120,160,l),
(200,120,l),
(200,80,l),
(160,0,l),
(120,0,l)
);
}
);
width = 240;
},
{
hints = (
{
horizontal = 1;
place = (160, 80);
place = (160, 80);
type = Stem;
},
{
place = (40, 400);
place = (40, 400);
type = Stem;
}
);
layerId = "45DABB71-BDAF-41D9-9CB5-36007FEF02C0";
shapes = (
{
closed = 1;
nodes = (
(400,800,l),
(440,760,l),
(160,240,l),
(120,240,l),
(280,760,l),
(320,800,l)
);
},
{
closed = 1;
nodes = (
(40,40,l),
(40,80,l),
(80,160,l),
(120,160,l),
(200,120,l),
(200,80,l),
(160,0,l),
(120,0,l)
);
}
);
width = 240;
}
);
note = exclam;
unicode = 33;
},
{
glyphname = question;
kernRight = question;
lastChange = "2024-02-26 21:22:19 +0000";
layers = (
{
hints = (
{
horizontal = 1;
place = (160, 80);
place = (160, 80);
type = Stem;
},
{
horizontal = 1;
place = (600, -20);
target = down;
type = TopGhost;
},
{
place = (320, 240);
place = (320, 240);
type = Stem;
}
);
layerId = m01;
shapes = (
{
closed = 1;
nodes = (
(200,600,l),
(200,640,l),
(280,760,l),
(400,800,l),
(480,800,l),
(600,760,l),
(680,640,l),
(680,560,l),
(600,440,l),
(440,360,l),
(320,320,l),
(280,240,l),
(240,240,l),
(280,360,l),
(400,400,l),
(520,480,l),
(560,560,l),
(560,640,l),
(520,720,l),
(440,760,l),
(360,720,l),
(320,640,l),
(320,520,l),
(280,520,l)
);
},
{
closed = 1;
nodes = (
(160,40,l),
(160,80,l),
(200,160,l),
(240,160,l),
(320,120,l),
(320,80,l),
(280,0,l),
(240,0,l)
);
}
);
width = 520;
},
{
hints = (
{
horizontal = 1;
place = (160, 80);
place = (160, 80);
type = Stem;
},
{
horizontal = 1;
place = (600, -20);
target = down;
type = TopGhost;
},
{
place = (320, 240);
place = (320, 240);
type = Stem;
}
);
layerId = "45DABB71-BDAF-41D9-9CB5-36007FEF02C0";
shapes = (
{
closed = 1;
nodes = (
(200,600,l),
(200,640,l),
(280,760,l),
(400,800,l),
(480,800,l),
(600,760,l),
(680,640,l),
(680,560,l),
(600,440,l),
(440,360,l),
(320,320,l),
(280,240,l),
(240,240,l),
(280,360,l),
(400,400,l),
(520,480,l),
(560,560,l),
(560,640,l),
(520,720,l),
(440,760,l),
(360,720,l),
(320,640,l),
(320,520,l),
(280,520,l)
);
},
{
closed = 1;
nodes = (
(160,40,l),
(160,80,l),
(200,160,l),
(240,160,l),
(320,120,l),
(320,80,l),
(280,0,l),
(240,0,l)
);
}
);
width = 520;
}
);
note = question;
unicode = 63;
},
{
glyphname = quoteleft;
kernLeft = quoteleft;
kernRight = quoteleft;
lastChange = "2024-02-26 21:22:19 +0000";
layers = (
{
hints = (
{
horizontal = 1;
place = (560, -20);
target = down;
type = TopGhost;
},
{
horizontal = 1;
place = (600, -20);
target = down;
type = TopGhost;
},
{
place = (40, 200);
place = (40, 200);
type = Stem;
}
);
layerId = m01;
shapes = (
{
closed = 1;
nodes = (
(240,800,l),
(160,600,l),
(120,560,l),
(80,560,l),
(40,600,l),
(40,640,l),
(200,800,l)
);
}
);
width = 200;
},
{
hints = (
{
horizontal = 1;
place = (560, -20);
target = down;
type = TopGhost;
},
{
horizontal = 1;
place = (600, -20);
target = down;
type = TopGhost;
},
{
place = (40, 200);
place = (40, 200);
type = Stem;
}
);
layerId = "45DABB71-BDAF-41D9-9CB5-36007FEF02C0";
shapes = (
{
closed = 1;
nodes = (
(240,800,l),
(160,600,l),
(120,560,l),
(80,560,l),
(40,600,l),
(40,640,l),
(200,800,l)
);
}
);
width = 200;
}
);
note = quoteleft;
unicode = 8216;
},
{
glyphname = quoteright;
kernLeft = quoteright;
lastChange = "2024-02-26 21:22:19 +0000";
layers = (
{
hints = (
{
horizontal = 1;
place = (560, -20);
target = down;
type = TopGhost;
},
{
place = (120, 200);
place = (120, 200);
type = Stem;
}
);
layerId = m01;
shapes = (
{
closed = 1;
nodes = (
(200,760,l),
(240,800,l),
(280,800,l),
(320,760,l),
(320,720,l),
(160,560,l),
(120,560,l)
);
}
);
width = 200;
},
{
hints = (
{
horizontal = 1;
place = (560, -20);
target = down;
type = TopGhost;
},
{
place = (120, 200);
place = (120, 200);
type = Stem;
}
);
layerId = "45DABB71-BDAF-41D9-9CB5-36007FEF02C0";
shapes = (
{
closed = 1;
nodes = (
(200,760,l),
(240,800,l),
(280,800,l),
(320,760,l),
(320,720,l),
(160,560,l),
(120,560,l)
);
}
);
width = 200;
}
);
note = quoteright;
unicode = 8217;
},
{
glyphname = quotedblleft;
kernLeft = quoteleft;
kernRight = quoteleft;
lastChange = "2024-02-26 21:22:19 +0000";
layers = (
{
hints = (
{
horizontal = 1;
place = (560, -20);
target = down;
type = TopGhost;
},
{
horizontal = 1;
place = (600, -20);
target = down;
type = TopGhost;
},
{
place = (120, 360);
place = (120, 360);
type = Stem;
}
);
layerId = m01;
shapes = (
{
closed = 1;
nodes = (
(320,800,l),
(240,600,l),
(200,560,l),
(160,560,l),
(120,600,l),
(120,640,l),
(280,800,l)
);
},
{
closed = 1;
nodes = (
(480,800,l),
(400,600,l),
(360,560,l),
(320,560,l),
(280,600,l),
(280,640,l),
(440,800,l)
);
}
);
width = 440;
},
{
hints = (
{
horizontal = 1;
place = (560, -20);
target = down;
type = TopGhost;
},
{
horizontal = 1;
place = (600, -20);
target = down;
type = TopGhost;
},
{
place = (120, 360);
place = (120, 360);
type = Stem;
}
);
layerId = "45DABB71-BDAF-41D9-9CB5-36007FEF02C0";
shapes = (
{
closed = 1;
nodes = (
(320,800,l),
(240,600,l),
(200,560,l),
(160,560,l),
(120,600,l),
(120,640,l),
(280,800,l)
);
},
{
closed = 1;
nodes = (
(480,800,l),
(400,600,l),
(360,560,l),
(320,560,l),
(280,600,l),
(280,640,l),
(440,800,l)
);
}
);
width = 440;
}
);
note = quotedblleft;
unicode = 8220;
},
{
glyphname = quotedblright;
kernLeft = quoteright;
lastChange = "2024-02-26 21:22:19 +0000";
layers = (
{
hints = (
{
horizontal = 1;
place = (560, -20);
target = down;
type = TopGhost;
},
{
place = (120, 360);
place = (120, 360);
type = Stem;
}
);
layerId = m01;
shapes = (
{
closed = 1;
nodes = (
(200,760,l),
(240,800,l),
(280,800,l),
(320,760,l),
(320,720,l),
(160,560,l),
(120,560,l)
);
},
{
closed = 1;
nodes = (
(360,760,l),
(400,800,l),
(440,800,l),
(480,760,l),
(480,720,l),
(320,560,l),
(280,560,l)
);
}
);
width = 360;
},
{
hints = (
{
horizontal = 1;
place = (560, -20);
target = down;
type = TopGhost;
},
{
place = (120, 360);
place = (120, 360);
type = Stem;
}
);
layerId = "45DABB71-BDAF-41D9-9CB5-36007FEF02C0";
shapes = (
{
closed = 1;
nodes = (
(200,760,l),
(240,800,l),
(280,800,l),
(320,760,l),
(320,720,l),
(160,560,l),
(120,560,l)
);
},
{
closed = 1;
nodes = (
(360,760,l),
(400,800,l),
(440,800,l),
(480,760,l),
(480,720,l),
(320,560,l),
(280,560,l)
);
}
);
width = 360;
}
);
note = quotedblright;
unicode = 8221;
},
{
glyphname = quotesingle;
kernLeft = quoteright;
lastChange = "2024-02-26 21:22:19 +0000";
layers = (
{
hints = (
{
horizontal = 1;
place = (560, -20);
target = down;
type = TopGhost;
},
{
place = (200, 160);
place = (200, 160);
type = Stem;
}
);
layerId = m01;
shapes = (
{
closed = 1;
nodes = (
(240,760,l),
(280,800,l),
(320,800,l),
(360,760,l),
(360,720,l),
(200,560,l),
(200,600,l)
);
}
);
width = 280;
},
{
hints = (
{
horizontal = 1;
place = (560, -20);
target = down;
type = TopGhost;
},
{
place = (200, 160);
place = (200, 160);
type = Stem;
}
);
layerId = "45DABB71-BDAF-41D9-9CB5-36007FEF02C0";
shapes = (
{
closed = 1;
nodes = (
(240,760,l),
(280,800,l),
(320,800,l),
(360,760,l),
(360,720,l),
(200,560,l),
(200,600,l)
);
}
);
width = 280;
}
);
note = quotesingle;
unicode = 39;
},
{
glyphname = quotedbl;
kernLeft = quoteright;
lastChange = "2024-02-26 21:22:19 +0000";
layers = (
{
hints = (
{
horizontal = 1;
place = (560, -20);
target = down;
type = TopGhost;
},
{
place = (200, 320);
place = (200, 320);
type = Stem;
}
);
layerId = m01;
shapes = (
{
closed = 1;
nodes = (
(240,760,l),
(280,800,l),
(320,800,l),
(360,760,l),
(360,720,l),
(200,560,l),
(200,600,l)
);
},
{
closed = 1;
nodes = (
(400,760,l),
(440,800,l),
(480,800,l),
(520,760,l),
(520,720,l),
(360,560,l),
(360,600,l)
);
}
);
width = 440;
},
{
hints = (
{
horizontal = 1;
place = (560, -20);
target = down;
type = TopGhost;
},
{
place = (200, 320);
place = (200, 320);
type = Stem;
}
);
layerId = "45DABB71-BDAF-41D9-9CB5-36007FEF02C0";
shapes = (
{
closed = 1;
nodes = (
(240,760,l),
(280,800,l),
(320,800,l),
(360,760,l),
(360,720,l),
(200,560,l),
(200,600,l)
);
},
{
closed = 1;
nodes = (
(400,760,l),
(440,800,l),
(480,800,l),
(520,760,l),
(520,720,l),
(360,560,l),
(360,600,l)
);
}
);
width = 440;
}
);
note = quotedbl;
unicode = 34;
},
{
glyphname = guillemotleft;
lastChange = "2024-02-26 21:22:19 +0000";
layers = (
{
hints = (
{
horizontal = 1;
place = (40, 560);
place = (40, 560);
type = Stem;
},
{
place = (120, 120);
place = (120, 120);
type = Stem;
}
);
layerId = m01;
shapes = (
{
closed = 1;
nodes = (
(320,600,l),
(360,520,l),
(120,320,l),
(240,120,l),
(200,40,l),
(40,320,l)
);
},
{
closed = 1;
nodes = (
(240,360,l),
(480,560,l),
(520,480,l),
(280,320,l),
(400,160,l),
(360,80,l),
(240,280,l)
);
}
);
width = 520;
},
{
hints = (
{
horizontal = 1;
place = (40, 560);
place = (40, 560);
type = Stem;
},
{
place = (120, 120);
place = (120, 120);
type = Stem;
}
);
layerId = "45DABB71-BDAF-41D9-9CB5-36007FEF02C0";
shapes = (
{
closed = 1;
nodes = (
(320,600,l),
(360,520,l),
(120,320,l),
(240,120,l),
(200,40,l),
(40,320,l)
);
},
{
closed = 1;
nodes = (
(240,360,l),
(480,560,l),
(520,480,l),
(280,320,l),
(400,160,l),
(360,80,l),
(240,280,l)
);
}
);
width = 520;
}
);
note = guillemotleft;
unicode = 171;
},
{
glyphname = guillemotright;
lastChange = "2024-02-26 21:22:19 +0000";
layers = (
{
hints = (
{
horizontal = 1;
place = (40, 560);
place = (40, 560);
type = Stem;
},
{
place = (280, 120);
place = (280, 120);
type = Stem;
}
);
layerId = m01;
shapes = (
{
closed = 1;
nodes = (
(160,120,l),
(400,320,l),
(280,520,l),
(320,600,l),
(480,320,l),
(200,40,l)
);
},
{
closed = 1;
nodes = (
(0,160,l),
(240,320,l),
(120,480,l),
(160,560,l),
(280,360,l),
(280,280,l),
(40,80,l)
);
}
);
width = 520;
},
{
hints = (
{
horizontal = 1;
place = (40, 560);
place = (40, 560);
type = Stem;
},
{
place = (280, 120);
place = (280, 120);
type = Stem;
}
);
layerId = "45DABB71-BDAF-41D9-9CB5-36007FEF02C0";
shapes = (
{
closed = 1;
nodes = (
(160,120,l),
(400,320,l),
(280,520,l),
(320,600,l),
(480,320,l),
(200,40,l)
);
},
{
closed = 1;
nodes = (
(0,160,l),
(240,320,l),
(120,480,l),
(160,560,l),
(280,360,l),
(280,280,l),
(40,80,l)
);
}
);
width = 520;
}
);
note = guillemotright;
unicode = 187;
},
{
glyphname = parenleft;
kernRight = parenleft;
lastChange = "2024-02-26 21:22:19 +0000";
layers = (
{
hints = (
{
horizontal = 1;
place = (-120, 920);
place = (-120, 920);
type = Stem;
},
{
place = (80, 480);
place = (80, 480);
type = Stem;
}
);
layerId = m01;
shapes = (
{
closed = 1;
nodes = (
(120,40,l),
(80,160,l),
(80,320,l),
(120,480,l),
(240,640,l),
(400,760,l),
(520,800,l),
(560,760,l),
(440,720,l),
(320,600,l),
(240,440,l),
(200,280,l),
(200,80,l),
(280,-80,l),
(240,-120,l)
);
}
);
width = 480;
},
{
hints = (
{
horizontal = 1;
place = (-120, 920);
place = (-120, 920);
type = Stem;
},
{
place = (80, 480);
place = (80, 480);
type = Stem;
}
);
layerId = "45DABB71-BDAF-41D9-9CB5-36007FEF02C0";
shapes = (
{
closed = 1;
nodes = (
(120,40,l),
(80,160,l),
(80,320,l),
(120,480,l),
(240,640,l),
(400,760,l),
(520,800,l),
(560,760,l),
(440,720,l),
(320,600,l),
(240,440,l),
(200,280,l),
(200,80,l),
(280,-80,l),
(240,-120,l)
);
}
);
width = 480;
}
);
note = parenleft;
unicode = 40;
},
{
glyphname = parenright;
kernLeft = parenright;
lastChange = "2024-02-26 21:22:19 +0000";
layers = (
{
hints = (
{
horizontal = 1;
place = (-120, 920);
place = (-120, 920);
type = Stem;
},
{
place = (-80, 480);
place = (-80, 480);
type = Stem;
}
);
layerId = m01;
shapes = (
{
closed = 1;
nodes = (
(360,640,l),
(400,520,l),
(400,360,l),
(360,200,l),
(240,40,l),
(80,-80,l),
(-40,-120,l),
(-80,-80,l),
(40,-40,l),
(160,80,l),
(240,240,l),
(280,400,l),
(280,600,l),
(200,760,l),
(240,800,l)
);
}
);
width = 480;
},
{
hints = (
{
horizontal = 1;
place = (-120, 920);
place = (-120, 920);
type = Stem;
},
{
place = (-80, 480);
place = (-80, 480);
type = Stem;
}
);
layerId = "45DABB71-BDAF-41D9-9CB5-36007FEF02C0";
shapes = (
{
closed = 1;
nodes = (
(360,640,l),
(400,520,l),
(400,360,l),
(360,200,l),
(240,40,l),
(80,-80,l),
(-40,-120,l),
(-80,-80,l),
(40,-40,l),
(160,80,l),
(240,240,l),
(280,400,l),
(280,600,l),
(200,760,l),
(240,800,l)
);
}
);
width = 480;
}
);
note = parenright;
unicode = 41;
},
{
glyphname = braceleft;
lastChange = "2024-02-26 21:22:19 +0000";
layers = (
{
hints = (
{
horizontal = 1;
place = (-120, 920);
place = (-120, 920);
type = Stem;
},
{
place = (0, 560);
place = (0, 560);
type = Stem;
}
);
layerId = m01;
shapes = (
{
closed = 1;
nodes = (
(120,40,l),
(80,160,l),
(80,320,l),
(0,400,l),
(80,440,l),
(120,480,l),
(200,640,l),
(360,760,l),
(520,800,l),
(560,760,l),
(400,720,l),
(280,600,l),
(240,480,l),
(200,440,l),
(120,400,l),
(200,320,l),
(200,80,l),
(280,-80,l),
(240,-120,l)
);
}
);
width = 480;
},
{
hints = (
{
horizontal = 1;
place = (-120, 920);
place = (-120, 920);
type = Stem;
},
{
place = (0, 560);
place = (0, 560);
type = Stem;
}
);
layerId = "45DABB71-BDAF-41D9-9CB5-36007FEF02C0";
shapes = (
{
closed = 1;
nodes = (
(120,40,l),
(80,160,l),
(80,320,l),
(0,400,l),
(80,440,l),
(120,480,l),
(200,640,l),
(360,760,l),
(520,800,l),
(560,760,l),
(400,720,l),
(280,600,l),
(240,480,l),
(200,440,l),
(120,400,l),
(200,320,l),
(200,80,l),
(280,-80,l),
(240,-120,l)
);
}
);
width = 480;
}
);
note = braceleft;
unicode = 123;
},
{
glyphname = braceright;
lastChange = "2024-02-26 21:22:19 +0000";
layers = (
{
hints = (
{
horizontal = 1;
place = (-120, 920);
place = (-120, 920);
type = Stem;
},
{
place = (-80, 560);
place = (-80, 560);
type = Stem;
}
);
layerId = m01;
shapes = (
{
closed = 1;
nodes = (
(360,640,l),
(400,520,l),
(400,360,l),
(480,280,l),
(400,240,l),
(360,200,l),
(280,40,l),
(120,-80,l),
(-40,-120,l),
(-80,-80,l),
(80,-40,l),
(200,80,l),
(240,200,l),
(280,240,l),
(360,280,l),
(280,360,l),
(280,600,l),
(200,760,l),
(240,800,l)
);
}
);
width = 480;
},
{
hints = (
{
horizontal = 1;
place = (-120, 920);
place = (-120, 920);
type = Stem;
},
{
place = (-80, 560);
place = (-80, 560);
type = Stem;
}
);
layerId = "45DABB71-BDAF-41D9-9CB5-36007FEF02C0";
shapes = (
{
closed = 1;
nodes = (
(360,640,l),
(400,520,l),
(400,360,l),
(480,280,l),
(400,240,l),
(360,200,l),
(280,40,l),
(120,-80,l),
(-40,-120,l),
(-80,-80,l),
(80,-40,l),
(200,80,l),
(240,200,l),
(280,240,l),
(360,280,l),
(280,360,l),
(280,600,l),
(200,760,l),
(240,800,l)
);
}
);
width = 480;
}
);
note = braceright;
unicode = 125;
},
{
glyphname = bracketleft;
kernRight = parenleft;
lastChange = "2024-02-26 21:22:19 +0000";
layers = (
{
hints = (
{
horizontal = 1;
place = (-160, 960);
place = (-160, 960);
type = Stem;
},
{
place = (-80, 560);
place = (-80, 560);
type = Stem;
}
);
layerId = m01;
shapes = (
{
closed = 1;
nodes = (
(480,800,l),
(480,760,l),
(280,720,l),
(40,0,l),
(40,-80,l),
(160,-120,l),
(160,-160,l),
(-80,-160,l),
(240,800,l)
);
}
);
width = 360;
},
{
hints = (
{
horizontal = 1;
place = (-160, 960);
place = (-160, 960);
type = Stem;
},
{
place = (-80, 560);
place = (-80, 560);
type = Stem;
}
);
layerId = "45DABB71-BDAF-41D9-9CB5-36007FEF02C0";
shapes = (
{
closed = 1;
nodes = (
(480,800,l),
(480,760,l),
(280,720,l),
(40,0,l),
(40,-80,l),
(160,-120,l),
(160,-160,l),
(-80,-160,l),
(240,800,l)
);
}
);
width = 360;
}
);
note = bracketleft;
unicode = 91;
},
{
glyphname = bracketright;
kernLeft = parenright;
lastChange = "2024-02-26 21:22:19 +0000";
layers = (
{
hints = (
{
horizontal = 1;
place = (-160, 960);
place = (-160, 960);
type = Stem;
},
{
place = (-120, 560);
place = (-120, 560);
type = Stem;
}
);
layerId = m01;
shapes = (
{
closed = 1;
nodes = (
(-120,-160,l),
(-120,-120,l),
(80,-80,l),
(320,640,l),
(320,720,l),
(200,760,l),
(200,800,l),
(440,800,l),
(120,-160,l)
);
}
);
width = 360;
},
{
hints = (
{
horizontal = 1;
place = (-160, 960);
place = (-160, 960);
type = Stem;
},
{
place = (-120, 560);
place = (-120, 560);
type = Stem;
}
);
layerId = "45DABB71-BDAF-41D9-9CB5-36007FEF02C0";
shapes = (
{
closed = 1;
nodes = (
(-120,-160,l),
(-120,-120,l),
(80,-80,l),
(320,640,l),
(320,720,l),
(200,760,l),
(200,800,l),
(440,800,l),
(120,-160,l)
);
}
);
width = 360;
}
);
note = bracketright;
unicode = 93;
},
{
glyphname = underscore;
lastChange = "2024-02-26 21:22:19 +0000";
layers = (
{
hints = (
{
horizontal = 1;
place = (-120, 40);
place = (-120, 40);
type = Stem;
},
{
place = (80, 640);
place = (80, 640);
type = Stem;
}
);
layerId = m01;
shapes = (
{
closed = 1;
nodes = (
(720,-80,l),
(720,-120,l),
(80,-120,l),
(80,-80,l)
);
}
);
width = 800;
},
{
hints = (
{
horizontal = 1;
place = (-120, 40);
place = (-120, 40);
type = Stem;
},
{
place = (80, 640);
place = (80, 640);
type = Stem;
}
);
layerId = "45DABB71-BDAF-41D9-9CB5-36007FEF02C0";
shapes = (
{
closed = 1;
nodes = (
(720,-80,l),
(720,-120,l),
(80,-120,l),
(80,-80,l)
);
}
);
width = 800;
}
);
note = underscore;
unicode = 95;
},
{
glyphname = endash;
kernLeft = hyphen;
kernRight = hyphen;
lastChange = "2024-02-26 21:22:19 +0000";
layers = (
{
hints = (
{
horizontal = 1;
place = (280, 40);
place = (280, 40);
type = Stem;
},
{
place = (80, 320);
place = (80, 320);
type = Stem;
}
);
layerId = m01;
shapes = (
{
closed = 1;
nodes = (
(400,320,l),
(400,280,l),
(80,280,l),
(80,320,l)
);
}
);
width = 480;
},
{
hints = (
{
horizontal = 1;
place = (280, 40);
place = (280, 40);
type = Stem;
},
{
place = (80, 320);
place = (80, 320);
type = Stem;
}
);
layerId = "45DABB71-BDAF-41D9-9CB5-36007FEF02C0";
shapes = (
{
closed = 1;
nodes = (
(400,320,l),
(400,280,l),
(80,280,l),
(80,320,l)
);
}
);
width = 480;
}
);
note = endash;
unicode = 8211;
},
{
glyphname = emdash;
kernLeft = hyphen;
kernRight = hyphen;
lastChange = "2024-02-26 21:22:19 +0000";
layers = (
{
hints = (
{
horizontal = 1;
place = (280, 40);
place = (280, 40);
type = Stem;
},
{
place = (80, 640);
place = (80, 640);
type = Stem;
}
);
layerId = m01;
shapes = (
{
closed = 1;
nodes = (
(720,320,l),
(720,280,l),
(80,280,l),
(80,320,l)
);
}
);
width = 800;
},
{
hints = (
{
horizontal = 1;
place = (280, 40);
place = (280, 40);
type = Stem;
},
{
place = (80, 640);
place = (80, 640);
type = Stem;
}
);
layerId = "45DABB71-BDAF-41D9-9CB5-36007FEF02C0";
shapes = (
{
closed = 1;
nodes = (
(720,320,l),
(720,280,l),
(80,280,l),
(80,320,l)
);
}
);
width = 800;
}
);
note = emdash;
unicode = 8212;
},
{
glyphname = bullet;
kernLeft = bullet;
kernRight = bullet;
lastChange = "2024-02-26 21:22:19 +0000";
layers = (
{
hints = (
{
horizontal = 1;
place = (160, 280);
place = (160, 280);
type = Stem;
},
{
place = (80, 280);
place = (80, 280);
type = Stem;
}
);
layerId = m01;
shapes = (
{
closed = 1;
nodes = (
(80,240,l),
(80,320,l),
(160,440,l),
(240,440,l),
(360,360,l),
(360,280,l),
(280,160,l),
(200,160,l)
);
}
);
width = 440;
},
{
hints = (
{
horizontal = 1;
place = (160, 280);
place = (160, 280);
type = Stem;
},
{
place = (80, 280);
place = (80, 280);
type = Stem;
}
);
layerId = "45DABB71-BDAF-41D9-9CB5-36007FEF02C0";
shapes = (
{
closed = 1;
nodes = (
(80,240,l),
(80,320,l),
(160,440,l),
(240,440,l),
(360,360,l),
(360,280,l),
(280,160,l),
(200,160,l)
);
}
);
width = 440;
}
);
note = bullet;
unicode = 8226;
},
{
glyphname = periodcentered;
kernRight = periodcentered;
lastChange = "2024-02-26 21:22:19 +0000";
layers = (
{
hints = (
{
horizontal = 1;
place = (200, 160);
place = (200, 160);
type = Stem;
},
{
place = (0, 160);
place = (0, 160);
type = Stem;
}
);
layerId = m01;
shapes = (
{
closed = 1;
nodes = (
(0,240,l),
(0,280,l),
(40,360,l),
(80,360,l),
(160,320,l),
(160,280,l),
(120,200,l),
(80,200,l)
);
}
);
width = 200;
},
{
hints = (
{
horizontal = 1;
place = (200, 160);
place = (200, 160);
type = Stem;
},
{
place = (0, 160);
place = (0, 160);
type = Stem;
}
);
layerId = "45DABB71-BDAF-41D9-9CB5-36007FEF02C0";
shapes = (
{
closed = 1;
nodes = (
(0,240,l),
(0,280,l),
(40,360,l),
(80,360,l),
(160,320,l),
(160,280,l),
(120,200,l),
(80,200,l)
);
}
);
width = 200;
}
);
note = periodcentered;
unicode = 183;
},
{
glyphname = asterisk;
kernRight = asterisk;
lastChange = "2024-02-26 21:22:19 +0000";
layers = (
{
hints = (
{
horizontal = 1;
place = (560, -20);
target = down;
type = TopGhost;
},
{
horizontal = 1;
place = (600, -20);
target = down;
type = TopGhost;
},
{
place = (80, 120);
place = (80, 120);
type = Stem;
}
);
layerId = m01;
shapes = (
{
closed = 1;
nodes = (
(80,800,l),
(200,760,l),
(200,880,l),
(240,920,l),
(280,920,l),
(320,880,l),
(240,760,l),
(360,800,l),
(400,760,l),
(400,720,l),
(360,680,l),
(240,720,l),
(240,600,l),
(200,560,l),
(160,560,l),
(120,600,l),
(200,720,l),
(80,680,l),
(40,720,l),
(40,760,l)
);
}
);
width = 440;
},
{
hints = (
{
horizontal = 1;
place = (560, -20);
target = down;
type = TopGhost;
},
{
horizontal = 1;
place = (600, -20);
target = down;
type = TopGhost;
},
{
place = (80, 120);
place = (80, 120);
type = Stem;
}
);
layerId = "45DABB71-BDAF-41D9-9CB5-36007FEF02C0";
shapes = (
{
closed = 1;
nodes = (
(80,800,l),
(200,760,l),
(200,880,l),
(240,920,l),
(280,920,l),
(320,880,l),
(240,760,l),
(360,800,l),
(400,760,l),
(400,720,l),
(360,680,l),
(240,720,l),
(240,600,l),
(200,560,l),
(160,560,l),
(120,600,l),
(200,720,l),
(80,680,l),
(40,720,l),
(40,760,l)
);
}
);
width = 440;
}
);
note = asterisk;
unicode = 42;
},
{
glyphname = at;
lastChange = "2024-02-26 21:22:19 +0000";
layers = (
{
hints = (
{
horizontal = 1;
place = (-160, 840);
place = (-160, 840);
type = Stem;
},
{
place = (0, 880);
place = (0, 880);
type = Stem;
}
);
layerId = m01;
shapes = (
{
closed = 1;
nodes = (
(240,600,l),
(480,680,l),
(560,680,l),
(760,600,l),
(840,520,l),
(880,360,l),
(840,200,l),
(800,120,l),
(680,40,l),
(560,0,l),
(520,40,l),
(520,120,l),
(400,0,l),
(320,0,l),
(240,40,l),
(200,200,l),
(280,400,l),
(480,520,l),
(600,480,l),
(640,400,l),
(680,480,l),
(720,440,l),
(600,80,l),
(640,80,l),
(720,160,l),
(760,240,l),
(760,360,l),
(720,520,l),
(640,600,l),
(520,640,l),
(320,560,l),
(200,440,l),
(120,240,l),
(200,0,l),
(360,-80,l),
(560,-120,l),
(520,-160,l),
(280,-120,l),
(120,-40,l),
(0,200,l),
(80,440,l)
);
},
{
closed = 1;
nodes = (
(520,440,l),
(400,360,l),
(320,200,l),
(360,80,l),
(400,80,l),
(520,200,l),
(600,320,l),
(600,360,l),
(560,440,l)
);
}
);
width = 920;
},
{
hints = (
{
horizontal = 1;
place = (-160, 840);
place = (-160, 840);
type = Stem;
},
{
place = (0, 880);
place = (0, 880);
type = Stem;
}
);
layerId = "45DABB71-BDAF-41D9-9CB5-36007FEF02C0";
shapes = (
{
closed = 1;
nodes = (
(240,600,l),
(480,680,l),
(560,680,l),
(760,600,l),
(840,520,l),
(880,360,l),
(840,200,l),
(800,120,l),
(680,40,l),
(560,0,l),
(520,40,l),
(520,120,l),
(400,0,l),
(320,0,l),
(240,40,l),
(200,200,l),
(280,400,l),
(480,520,l),
(600,480,l),
(640,400,l),
(680,480,l),
(720,440,l),
(600,80,l),
(640,80,l),
(720,160,l),
(760,240,l),
(760,360,l),
(720,520,l),
(640,600,l),
(520,640,l),
(320,560,l),
(200,440,l),
(120,240,l),
(200,0,l),
(360,-80,l),
(560,-120,l),
(520,-160,l),
(280,-120,l),
(120,-40,l),
(0,200,l),
(80,440,l)
);
},
{
closed = 1;
nodes = (
(520,440,l),
(400,360,l),
(320,200,l),
(360,80,l),
(400,80,l),
(520,200,l),
(600,320,l),
(600,360,l),
(560,440,l)
);
}
);
width = 920;
}
);
note = at;
unicode = 64;
},
{
glyphname = numbersign;
lastChange = "2024-02-26 21:22:19 +0000";
layers = (
{
hints = (
{
horizontal = 1;
place = (240, 80);
place = (240, 80);
type = Stem;
},
{
horizontal = 1;
place = (480, 80);
place = (480, 80);
type = Stem;
},
{
place = (40, 720);
place = (40, 720);
type = Stem;
}
);
layerId = m01;
shapes = (
{
closed = 1;
nodes = (
(160,240,l),
(40,80,l),
(120,80,l),
(240,240,l),
(360,240,l),
(240,80,l),
(320,80,l),
(440,240,l),
(560,240,l),
(600,320,l),
(480,320,l),
(600,480,l),
(680,480,l),
(720,560,l),
(640,560,l),
(760,720,l),
(680,720,l),
(560,560,l),
(440,560,l),
(560,720,l),
(480,720,l),
(360,560,l),
(240,560,l),
(200,480,l),
(320,480,l),
(200,320,l),
(120,320,l),
(80,240,l)
);
},
{
closed = 1;
nodes = (
(400,480,l),
(520,480,l),
(400,320,l),
(280,320,l)
);
}
);
width = 680;
},
{
hints = (
{
horizontal = 1;
place = (240, 80);
place = (240, 80);
type = Stem;
},
{
horizontal = 1;
place = (480, 80);
place = (480, 80);
type = Stem;
},
{
place = (40, 720);
place = (40, 720);
type = Stem;
}
);
layerId = "45DABB71-BDAF-41D9-9CB5-36007FEF02C0";
shapes = (
{
closed = 1;
nodes = (
(160,240,l),
(40,80,l),
(120,80,l),
(240,240,l),
(360,240,l),
(240,80,l),
(320,80,l),
(440,240,l),
(560,240,l),
(600,320,l),
(480,320,l),
(600,480,l),
(680,480,l),
(720,560,l),
(640,560,l),
(760,720,l),
(680,720,l),
(560,560,l),
(440,560,l),
(560,720,l),
(480,720,l),
(360,560,l),
(240,560,l),
(200,480,l),
(320,480,l),
(200,320,l),
(120,320,l),
(80,240,l)
);
},
{
closed = 1;
nodes = (
(400,480,l),
(520,480,l),
(400,320,l),
(280,320,l)
);
}
);
width = 680;
}
);
note = numbersign;
unicode = 35;
},
{
glyphname = backslash;
kernRight = backslash;
lastChange = "2024-02-26 21:22:19 +0000";
layers = (
{
hints = (
{
horizontal = 1;
place = (-80, 840);
place = (-80, 840);
type = Stem;
},
{
place = (40, 80);
place = (40, 80);
type = Stem;
}
);
layerId = m01;
shapes = (
{
closed = 1;
nodes = (
(40,-80,l),
(40,760,l),
(120,760,l),
(120,-80,l)
);
}
);
width = 160;
},
{
hints = (
{
horizontal = 1;
place = (-80, 840);
place = (-80, 840);
type = Stem;
},
{
place = (40, 80);
place = (40, 80);
type = Stem;
}
);
layerId = "45DABB71-BDAF-41D9-9CB5-36007FEF02C0";
shapes = (
{
closed = 1;
nodes = (
(40,-80,l),
(40,760,l),
(120,760,l),
(120,-80,l)
);
}
);
width = 160;
}
);
note = backslash;
unicode = 92;
},
{
glyphname = slash;
kernLeft = slash;
kernRight = slash;
lastChange = "2024-02-26 21:22:19 +0000";
layers = (
{
hints = (
{
horizontal = 1;
place = (-80, 840);
place = (-80, 840);
type = Stem;
},
{
place = (-120, 560);
place = (-120, 560);
type = Stem;
}
);
layerId = m01;
shapes = (
{
closed = 1;
nodes = (
(440,760,l),
(-40,-80,l),
(-120,-80,l),
(360,760,l)
);
}
);
width = 320;
},
{
hints = (
{
horizontal = 1;
place = (-80, 840);
place = (-80, 840);
type = Stem;
},
{
place = (-120, 560);
place = (-120, 560);
type = Stem;
}
);
layerId = "45DABB71-BDAF-41D9-9CB5-36007FEF02C0";
shapes = (
{
closed = 1;
nodes = (
(440,760,l),
(-40,-80,l),
(-120,-80,l),
(360,760,l)
);
}
);
width = 320;
}
);
note = slash;
unicode = 47;
},
{
glyphname = bar;
lastChange = "2024-02-26 21:22:19 +0000";
layers = (
{
hints = (
{
horizontal = 1;
place = (-80, 840);
place = (-80, 840);
type = Stem;
},
{
place = (-80, 320);
place = (-80, 320);
type = Stem;
}
);
layerId = m01;
shapes = (
{
closed = 1;
nodes = (
(-80,-80,l),
(-40,-80,l),
(240,760,l),
(200,760,l)
);
}
);
width = 160;
},
{
hints = (
{
horizontal = 1;
place = (-80, 840);
place = (-80, 840);
type = Stem;
},
{
place = (-80, 320);
place = (-80, 320);
type = Stem;
}
);
layerId = "45DABB71-BDAF-41D9-9CB5-36007FEF02C0";
shapes = (
{
closed = 1;
nodes = (
(-80,-80,l),
(-40,-80,l),
(240,760,l),
(200,760,l)
);
}
);
width = 160;
}
);
note = bar;
unicode = 124;
},
{
glyphname = asciicircum;
lastChange = "2024-03-26 14:49:17 +0000";
layers = (
{
hints = (
{
horizontal = 1;
place = (520, 160);
place = (520, 160);
type = Stem;
},
{
place = (160, 320);
place = (160, 320);
type = Stem;
}
);
layerId = m01;
shapes = (
{
closed = 1;
nodes = (
(400,680,l),
(480,680,l),
(480,520,l),
(430,520,l),
(430,610,l),
(200,520,l),
(160,520,l)
);
}
);
width = 833;
},
{
hints = (
{
horizontal = 1;
place = (520, 160);
place = (520, 160);
type = Stem;
},
{
place = (160, 320);
place = (160, 320);
type = Stem;
}
);
layerId = "45DABB71-BDAF-41D9-9CB5-36007FEF02C0";
shapes = (
{
closed = 1;
nodes = (
(400,680,l),
(480,680,l),
(480,520,l),
(430,520,l),
(430,610,l),
(200,520,l),
(160,520,l)
);
}
);
width = 833;
}
);
note = asciicircum;
unicode = 94;
},
{
glyphname = asciitilde;
lastChange = "2024-02-26 21:22:19 +0000";
layers = (
{
hints = (
{
horizontal = 1;
place = (280, 120);
place = (280, 120);
type = Stem;
},
{
place = (80, 440);
place = (80, 440);
type = Stem;
}
);
layerId = m01;
shapes = (
{
closed = 1;
nodes = (
(520,360,l),
(400,280,l),
(320,280,l),
(240,360,l),
(120,280,l),
(80,320,l),
(200,400,l),
(280,400,l),
(360,320,l),
(480,400,l)
);
}
);
width = 600;
},
{
hints = (
{
horizontal = 1;
place = (280, 120);
place = (280, 120);
type = Stem;
},
{
place = (80, 440);
place = (80, 440);
type = Stem;
}
);
layerId = "45DABB71-BDAF-41D9-9CB5-36007FEF02C0";
shapes = (
{
closed = 1;
nodes = (
(520,360,l),
(400,280,l),
(320,280,l),
(240,360,l),
(120,280,l),
(80,320,l),
(200,400,l),
(280,400,l),
(360,320,l),
(480,400,l)
);
}
);
width = 600;
}
);
note = asciitilde;
unicode = 126;
},
{
glyphname = dollar;
lastChange = "2024-02-26 21:22:19 +0000";
layers = (
{
hints = (
{
horizontal = 1;
place = (0, 21);
target = up;
type = BottomGhost;
},
{
horizontal = 1;
place = (560, -20);
target = down;
type = TopGhost;
},
{
horizontal = 1;
place = (760, 120);
place = (760, 120);
type = Stem;
},
{
place = (400, 120);
place = (400, 120);
type = Stem;
},
{
horizontal = 1;
place = (-80, 120);
place = (-80, 120);
type = Stem;
}
);
layerId = m01;
shapes = (
{
closed = 1;
nodes = (
(560,800,l),
(498,813,l),
(520,880,l),
(480,880,l),
(460,820,l),
(360,840,l),
(240,760,l),
(200,640,l),
(240,480,l),
(304,352,l),
(200,40,l),
(160,40,l),
(40,240,l),
(0,240,l),
(40,-40,l),
(120,0,l),
(183,-13,l),
(160,-80,l),
(200,-80,l),
(220,-20,l),
(320,-40,l),
(480,40,l),
(520,200,l),
(480,360,l),
(400,520,l),
(480,760,l),
(520,760,l),
(640,600,l),
(680,600,l),
(640,840,l)
);
},
{
closed = 1;
nodes = (
(320,640,l),
(360,720,l),
(400,760,l),
(440,760,l),
(373,560,l)
);
},
{
closed = 1;
nodes = (
(400,120,l),
(360,80,l),
(280,40,l),
(240,40,l),
(329,307,l),
(400,200,l)
);
}
);
width = 600;
},
{
hints = (
{
horizontal = 1;
place = (0, 21);
target = up;
type = BottomGhost;
},
{
horizontal = 1;
place = (560, -20);
target = down;
type = TopGhost;
},
{
horizontal = 1;
place = (760, 120);
place = (760, 120);
type = Stem;
},
{
place = (400, 120);
place = (400, 120);
type = Stem;
},
{
horizontal = 1;
place = (-80, 120);
place = (-80, 120);
type = Stem;
}
);
layerId = "45DABB71-BDAF-41D9-9CB5-36007FEF02C0";
shapes = (
{
closed = 1;
nodes = (
(560,800,l),
(498,813,l),
(520,880,l),
(480,880,l),
(460,820,l),
(360,840,l),
(240,760,l),
(200,640,l),
(240,480,l),
(304,352,l),
(200,40,l),
(160,40,l),
(40,240,l),
(0,240,l),
(40,-40,l),
(120,0,l),
(183,-13,l),
(160,-80,l),
(200,-80,l),
(220,-20,l),
(320,-40,l),
(480,40,l),
(520,200,l),
(480,360,l),
(400,520,l),
(480,760,l),
(520,760,l),
(640,600,l),
(680,600,l),
(640,840,l)
);
},
{
closed = 1;
nodes = (
(320,640,l),
(360,720,l),
(400,760,l),
(440,760,l),
(373,560,l)
);
},
{
closed = 1;
nodes = (
(400,120,l),
(360,80,l),
(280,40,l),
(240,40,l),
(329,307,l),
(400,200,l)
);
}
);
width = 600;
}
);
note = dollar;
unicode = 36;
},
{
glyphname = zero;
lastChange = "2024-02-26 21:25:42 +0000";
layers = (
{
hints = (
{
horizontal = 1;
place = (0, 800);
place = (0, 800);
type = Stem;
},
{
place = (40, 600);
place = (40, 600);
type = Stem;
}
);
layerId = m01;
shapes = (
{
closed = 1;
nodes = (
(175,181,l),
(200,80,l),
(280,40,l),
(360,80,l),
(440,240,l),
(504,494,l),
(640,519,l),
(640,400,l),
(560,200,l),
(480,80,l),
(320,0,l),
(240,0,l),
(80,80,l),
(68,115,l)
);
},
{
closed = 1;
nodes = (
(504,494,l),
(520,560,l),
(480,720,l),
(400,760,l),
(320,720,l),
(293,665,l),
(245,743,l),
(360,800,l),
(440,800,l),
(600,720,l),
(640,600,l),
(640,519,l)
);
},
{
closed = 1;
nodes = (
(68,115,l),
(40,200,l),
(40,400,l),
(120,600,l),
(200,720,l),
(245,743,l),
(293,665,l),
(240,560,l),
(160,240,l),
(175,181,l)
);
}
);
width = 680;
},
{
hints = (
{
horizontal = 1;
place = (0, 800);
place = (0, 800);
type = Stem;
},
{
place = (40, 600);
place = (40, 600);
type = Stem;
}
);
layerId = "45DABB71-BDAF-41D9-9CB5-36007FEF02C0";
shapes = (
{
closed = 1;
nodes = (
(1670,-2115,l),
(1724,-2204,l),
(1813,-2217,l),
(1877,-2155,l),
(1904,-1978,l),
(1887,-1717,l),
(2009,-1651,l),
(2045,-1764,l),
(2030,-1979,l),
(1991,-2118,l),
(1863,-2243,l),
(1787,-2268,l),
(1610,-2241,l),
(1588,-2211,l)
);
},
{
closed = 1;
nodes = (
(1669,2860,l),
(1671,2928,l),
(1601,3077,l),
(1515,3101,l),
(1444,3046,l),
(1428,2987,l),
(1366,3054,l),
(1468,3132,l),
(1547,3148,l),
(1719,3100,l),
(1781,2990,l),
(1797,2911,l)
);
},
{
closed = 1;
nodes = (
(-4519,1807,l),
(-4476,1885,l),
(-4330,2022,l),
(-4129,2100,l),
(-3987,2123,l),
(-3939,2106,l),
(-3963,2018,l),
(-4076,1985,l),
(-4365,1825,l),
(-4398,1774,l)
);
}
);
width = 680;
}
);
note = zero;
unicode = 48;
},
{
glyphname = one;
kernRight = one;
lastChange = "2024-02-26 21:22:19 +0000";
layers = (
{
hints = (
{
horizontal = 1;
place = (560, -20);
target = down;
type = TopGhost;
},
{
place = (-40, 480);
place = (-40, 480);
type = Stem;
}
);
layerId = m01;
shapes = (
{
closed = 1;
nodes = (
(440,800,l),
(200,80,l),
(280,0,l),
(-40,0,l),
(80,80,l),
(240,560,l),
(120,560,l),
(120,600,l),
(280,680,l),
(360,760,l)
);
}
);
width = 480;
},
{
hints = (
{
horizontal = 1;
place = (560, -20);
target = down;
type = TopGhost;
},
{
place = (-40, 480);
place = (-40, 480);
type = Stem;
}
);
layerId = "45DABB71-BDAF-41D9-9CB5-36007FEF02C0";
shapes = (
{
closed = 1;
nodes = (
(440,800,l),
(200,80,l),
(280,0,l),
(-40,0,l),
(80,80,l),
(240,560,l),
(120,560,l),
(120,600,l),
(280,680,l),
(360,760,l)
);
}
);
width = 480;
}
);
note = one;
unicode = 49;
},
{
glyphname = two;
kernLeft = two;
kernRight = two;
lastChange = "2024-02-26 21:25:30 +0000";
layers = (
{
hints = (
{
horizontal = 1;
place = (-40, 840);
place = (-40, 840);
type = Stem;
},
{
place = (-80, 680);
place = (-80, 680);
type = Stem;
}
);
layerId = m01;
shapes = (
{
closed = 1;
nodes = (
(264,732,l),
(240,720,l),
(200,640,l),
(200,480,l),
(160,480,l),
(80,600,l),
(120,720,l),
(239,780,l)
);
},
{
closed = 1;
nodes = (
(248,52,l),
(320,40,l),
(480,240,l),
(520,240,l),
(440,-40,l),
(320,0,l),
(211,0,l)
);
},
{
closed = 1;
nodes = (
(432,464,l),
(480,560,l),
(440,720,l),
(320,760,l),
(264,732,l),
(239,780,l),
(280,800,l),
(400,800,l),
(560,720,l),
(600,600,l),
(600,520,l),
(523,424,l)
);
},
{
closed = 1;
nodes = (
(211,0,l),
(-80,0,l),
(-80,40,l),
(280,280,l),
(400,400,l),
(432,464,l),
(523,424,l),
(440,320,l),
(280,200,l),
(80,80,l),
(248,52,l)
);
}
);
width = 640;
},
{
hints = (
{
horizontal = 1;
place = (-40, 840);
place = (-40, 840);
type = Stem;
},
{
place = (-80, 680);
place = (-80, 680);
type = Stem;
}
);
layerId = "45DABB71-BDAF-41D9-9CB5-36007FEF02C0";
shapes = (
{
closed = 1;
nodes = (
(-2786,3055,l),
(-2813,3059,l),
(-2891,3015,l),
(-2981,2883,l),
(-3014,2905,l),
(-3013,3049,l),
(-2912,3126,l),
(-2780,3109,l)
);
},
{
closed = 1;
nodes = (
(2877,-2044,l),
(2943,-2013,l),
(2964,-1758,l),
(2997,-1736,l),
(3088,-2012,l),
(2966,-2046,l),
(2875,-2107,l)
);
},
{
closed = 1;
nodes = (
(2700,2184,l),
(2772,2263,l),
(2776,2428,l),
(2671,2499,l),
(2610,2487,l),
(2598,2540,l),
(2643,2548,l),
(2759,2516,l),
(2892,2396,l),
(2898,2270,l),
(2877,2193,l),
(2777,2121,l)
);
},
{
closed = 1;
nodes = (
(-4415,-552,l),
(-4604,-332,l),
(-4574,-306,l),
(-4157,-422,l),
(-3988,-435,l),
(-3919,-418,l),
(-3890,-513,l),
(-4023,-518,l),
(-4218,-475,l),
(-4439,-401,l),
(-4351,-547,l)
);
}
);
width = 640;
}
);
note = two;
unicode = 50;
},
{
glyphname = three;
kernRight = three;
lastChange = "2024-02-26 21:22:19 +0000";
layers = (
{
hints = (
{
horizontal = 1;
place = (320, 80);
place = (320, 80);
type = Stem;
},
{
horizontal = 1;
place = (480, 80);
place = (480, 80);
type = Stem;
},
{
horizontal = 1;
place = (600, -20);
target = down;
type = TopGhost;
},
{
place = (0, 640);
place = (0, 640);
type = Stem;
},
{
place = (120, 320);
place = (120, 320);
type = Stem;
}
);
layerId = m01;
shapes = (
{
closed = 1;
nodes = (
(520,400,l),
(560,320,l),
(560,200,l),
(440,80,l),
(280,0,l),
(200,0,l),
(40,80,l),
(0,200,l),
(80,320,l),
(120,320,l),
(120,160,l),
(160,80,l),
(240,40,l),
(320,80,l),
(440,200,l),
(440,320,l),
(360,400,l),
(200,400,l),
(240,480,l),
(360,480,l),
(480,520,l),
(520,600,l),
(480,720,l),
(400,760,l),
(320,720,l),
(280,640,l),
(280,560,l),
(200,560,l),
(120,640,l),
(160,720,l),
(320,800,l),
(440,800,l),
(600,720,l),
(640,600,l),
(560,480,l),
(400,440,l)
);
}
);
width = 680;
},
{
hints = (
{
horizontal = 1;
place = (320, 80);
place = (320, 80);
type = Stem;
},
{
horizontal = 1;
place = (480, 80);
place = (480, 80);
type = Stem;
},
{
horizontal = 1;
place = (600, -20);
target = down;
type = TopGhost;
},
{
place = (0, 640);
place = (0, 640);
type = Stem;
},
{
place = (120, 320);
place = (120, 320);
type = Stem;
}
);
layerId = "45DABB71-BDAF-41D9-9CB5-36007FEF02C0";
shapes = (
{
closed = 1;
nodes = (
(520,400,l),
(560,320,l),
(560,200,l),
(440,80,l),
(280,0,l),
(200,0,l),
(40,80,l),
(0,200,l),
(80,320,l),
(120,320,l),
(120,160,l),
(160,80,l),
(240,40,l),
(320,80,l),
(440,200,l),
(440,320,l),
(360,400,l),
(200,400,l),
(240,480,l),
(360,480,l),
(480,520,l),
(520,600,l),
(480,720,l),
(400,760,l),
(320,720,l),
(280,640,l),
(280,560,l),
(200,560,l),
(120,640,l),
(160,720,l),
(320,800,l),
(440,800,l),
(600,720,l),
(640,600,l),
(560,480,l),
(400,440,l)
);
}
);
width = 680;
}
);
note = three;
unicode = 51;
},
{
glyphname = four;
kernLeft = four;
kernRight = four;
lastChange = "2024-02-26 21:25:57 +0000";
layers = (
{
hints = (
{
horizontal = 1;
place = (0, 800);
place = (0, 800);
type = Stem;
},
{
place = (-40, 720);
place = (-40, 720);
type = Stem;
}
);
layerId = m01;
shapes = (
{
closed = 1;
nodes = (
(244,160,l),
(40,160,l),
(-40,240,l),
(200,440,l),
(243,505,l),
(301,471,l),
(280,440,l),
(120,240,l),
(240,220,l)
);
},
{
closed = 1;
nodes = (
(243,505,l),
(280,560,l),
(320,800,l),
(440,800,l),
(360,560,l),
(301,471,l)
);
},
{
closed = 1;
nodes = (
(430,410,l),
(560,800,l),
(680,800,l),
(572,475,l)
);
},
{
closed = 1;
nodes = (
(240,220,l),
(360,200,l),
(430,410,l),
(572,475,l),
(440,80,l),
(520,0,l),
(200,0,l),
(320,80,l),
(360,160,l),
(244,160,l)
);
}
);
width = 640;
},
{
hints = (
{
horizontal = 1;
place = (0, 800);
place = (0, 800);
type = Stem;
},
{
place = (-40, 720);
place = (-40, 720);
type = Stem;
}
);
layerId = "45DABB71-BDAF-41D9-9CB5-36007FEF02C0";
shapes = (
{
closed = 1;
nodes = (
(-4077,1695,l),
(-4266,1773,l),
(-4309,1877,l),
(-4011,1970,l),
(-3946,2014,l),
(-3905,1960,l),
(-3937,1939,l),
(-4161,1816,l),
(-4058,1752,l)
);
},
{
closed = 1;
nodes = (
(-1210,3883,l),
(-1185,3944,l),
(-1194,4187,l),
(-1076,4211,l),
(-1106,3960,l),
(-1146,3861,l)
);
},
{
closed = 1;
nodes = (
(2060,3705,l),
(2274,4056,l),
(2391,4029,l),
(2213,3736,l)
);
},
{
closed = 1;
nodes = (
(2693,-926,l),
(2811,-898,l),
(2794,-677,l),
(2900,-562,l),
(2931,-978,l),
(3036,-1020,l),
(2741,-1144,l),
(2821,-1024,l),
(2827,-935,l),
(2720,-980,l)
);
}
);
width = 640;
}
);
note = four;
unicode = 52;
},
{
glyphname = five;
kernLeft = five;
kernRight = five;
lastChange = "2024-02-26 21:22:19 +0000";
layers = (
{
hints = (
{
horizontal = 1;
place = (320, 40);
place = (320, 40);
type = Stem;
},
{
place = (0, 640);
place = (0, 640);
type = Stem;
},
{
place = (120, 320);
place = (120, 320);
type = Stem;
}
);
layerId = m01;
shapes = (
{
closed = 1;
nodes = (
(280,680,l),
(160,440,l),
(240,480,l),
(360,520,l),
(480,480,l),
(560,360,l),
(560,200,l),
(440,80,l),
(280,0,l),
(200,0,l),
(40,80,l),
(0,200,l),
(80,320,l),
(120,320,l),
(120,160,l),
(160,80,l),
(240,40,l),
(320,80,l),
(440,200,l),
(440,360,l),
(360,440,l),
(280,440,l),
(120,360,l),
(80,400,l),
(240,800,l),
(640,800,l),
(600,680,l)
);
}
);
width = 640;
},
{
hints = (
{
horizontal = 1;
place = (320, 40);
place = (320, 40);
type = Stem;
},
{
place = (0, 640);
place = (0, 640);
type = Stem;
},
{
place = (120, 320);
place = (120, 320);
type = Stem;
}
);
layerId = "45DABB71-BDAF-41D9-9CB5-36007FEF02C0";
shapes = (
{
closed = 1;
nodes = (
(280,680,l),
(160,440,l),
(240,480,l),
(360,520,l),
(480,480,l),
(560,360,l),
(560,200,l),
(440,80,l),
(280,0,l),
(200,0,l),
(40,80,l),
(0,200,l),
(80,320,l),
(120,320,l),
(120,160,l),
(160,80,l),
(240,40,l),
(320,80,l),
(440,200,l),
(440,360,l),
(360,440,l),
(280,440,l),
(120,360,l),
(80,400,l),
(240,800,l),
(640,800,l),
(600,680,l)
);
}
);
width = 640;
}
);
note = five;
unicode = 53;
},
{
glyphname = six;
kernLeft = six;
kernRight = six;
lastChange = "2024-02-26 21:22:19 +0000";
layers = (
{
hints = (
{
horizontal = 1;
place = (560, -20);
target = down;
type = TopGhost;
},
{
place = (40, 640);
place = (40, 640);
type = Stem;
},
{
place = (160, 320);
place = (160, 320);
type = Stem;
}
);
layerId = m01;
shapes = (
{
closed = 1;
nodes = (
(280,480,l),
(400,520,l),
(520,480,l),
(600,360,l),
(600,200,l),
(480,80,l),
(320,0,l),
(240,0,l),
(80,80,l),
(40,200,l),
(40,360,l),
(120,560,l),
(280,720,l),
(440,800,l),
(520,800,l),
(680,720,l),
(680,680,l),
(600,560,l),
(560,560,l),
(560,720,l),
(480,760,l),
(400,720,l),
(240,520,l),
(160,360,l)
);
},
{
closed = 1;
nodes = (
(160,280,l),
(160,200,l),
(200,80,l),
(280,40,l),
(360,80,l),
(480,200,l),
(480,360,l),
(400,440,l),
(320,440,l)
);
}
);
width = 680;
},
{
hints = (
{
horizontal = 1;
place = (560, -20);
target = down;
type = TopGhost;
},
{
place = (40, 640);
place = (40, 640);
type = Stem;
},
{
place = (160, 320);
place = (160, 320);
type = Stem;
}
);
layerId = "45DABB71-BDAF-41D9-9CB5-36007FEF02C0";
shapes = (
{
closed = 1;
nodes = (
(280,480,l),
(400,520,l),
(520,480,l),
(600,360,l),
(600,200,l),
(480,80,l),
(320,0,l),
(240,0,l),
(80,80,l),
(40,200,l),
(40,360,l),
(120,560,l),
(280,720,l),
(440,800,l),
(520,800,l),
(680,720,l),
(680,680,l),
(600,560,l),
(560,560,l),
(560,720,l),
(480,760,l),
(400,720,l),
(240,520,l),
(160,360,l)
);
},
{
closed = 1;
nodes = (
(160,280,l),
(160,200,l),
(200,80,l),
(280,40,l),
(360,80,l),
(480,200,l),
(480,360,l),
(400,440,l),
(320,440,l)
);
}
);
width = 680;
}
);
note = six;
unicode = 54;
},
{
glyphname = seven;
kernLeft = seven;
kernRight = seven;
lastChange = "2024-02-26 21:22:19 +0000";
layers = (
{
hints = (
{
horizontal = 1;
place = (560, -20);
target = down;
type = TopGhost;
},
{
place = (0, 600);
place = (0, 600);
type = Stem;
}
);
layerId = m01;
shapes = (
{
closed = 1;
nodes = (
(0,0,l),
(200,360,l),
(400,600,l),
(560,760,l),
(280,760,l),
(200,720,l),
(200,560,l),
(160,560,l),
(80,680,l),
(80,800,l),
(600,800,l),
(600,760,l),
(440,560,l),
(280,320,l),
(160,0,l)
);
}
);
width = 520;
},
{
hints = (
{
horizontal = 1;
place = (560, -20);
target = down;
type = TopGhost;
},
{
place = (0, 600);
place = (0, 600);
type = Stem;
}
);
layerId = "45DABB71-BDAF-41D9-9CB5-36007FEF02C0";
shapes = (
{
closed = 1;
nodes = (
(0,0,l),
(200,360,l),
(400,600,l),
(560,760,l),
(280,760,l),
(200,720,l),
(200,560,l),
(160,560,l),
(80,680,l),
(80,800,l),
(600,800,l),
(600,760,l),
(440,560,l),
(280,320,l),
(160,0,l)
);
}
);
width = 520;
}
);
note = seven;
unicode = 55;
},
{
glyphname = eight;
kernRight = eight;
lastChange = "2024-02-26 21:22:19 +0000";
layers = (
{
hints = (
{
horizontal = 1;
place = (0, 800);
place = (0, 800);
type = Stem;
},
{
place = (280, 240);
place = (280, 240);
type = Stem;
}
);
layerId = m01;
shapes = (
{
closed = 1;
nodes = (
(200,480,l),
(160,560,l),
(160,640,l),
(200,720,l),
(360,800,l),
(440,800,l),
(560,760,l),
(640,640,l),
(640,560,l),
(600,480,l),
(520,440,l),
(400,400,l),
(520,360,l),
(560,280,l),
(560,200,l),
(480,80,l),
(280,0,l),
(200,0,l),
(40,80,l),
(0,200,l),
(40,320,l),
(120,400,l),
(280,440,l)
);
},
{
closed = 1;
nodes = (
(320,720,l),
(280,640,l),
(280,520,l),
(360,440,l),
(480,480,l),
(520,560,l),
(520,680,l),
(440,760,l)
);
},
{
closed = 1;
nodes = (
(120,240,l),
(120,160,l),
(160,80,l),
(240,40,l),
(360,80,l),
(440,200,l),
(440,280,l),
(400,360,l),
(320,400,l),
(200,360,l)
);
}
);
width = 640;
},
{
hints = (
{
horizontal = 1;
place = (0, 800);
place = (0, 800);
type = Stem;
},
{
place = (280, 240);
place = (280, 240);
type = Stem;
}
);
layerId = "45DABB71-BDAF-41D9-9CB5-36007FEF02C0";
shapes = (
{
closed = 1;
nodes = (
(200,480,l),
(160,560,l),
(160,640,l),
(200,720,l),
(360,800,l),
(440,800,l),
(560,760,l),
(640,640,l),
(640,560,l),
(600,480,l),
(520,440,l),
(400,400,l),
(520,360,l),
(560,280,l),
(560,200,l),
(480,80,l),
(280,0,l),
(200,0,l),
(40,80,l),
(0,200,l),
(40,320,l),
(120,400,l),
(280,440,l)
);
},
{
closed = 1;
nodes = (
(320,720,l),
(280,640,l),
(280,520,l),
(360,440,l),
(480,480,l),
(520,560,l),
(520,680,l),
(440,760,l)
);
},
{
closed = 1;
nodes = (
(120,240,l),
(120,160,l),
(160,80,l),
(240,40,l),
(360,80,l),
(440,200,l),
(440,280,l),
(400,360,l),
(320,400,l),
(200,360,l)
);
}
);
width = 640;
}
);
note = eight;
unicode = 56;
},
{
glyphname = nine;
kernLeft = nine;
kernRight = nine;
lastChange = "2024-02-26 21:22:19 +0000";
layers = (
{
hints = (
{
horizontal = 1;
place = (600, -20);
target = down;
type = TopGhost;
},
{
place = (0, 640);
place = (0, 640);
type = Stem;
},
{
place = (200, 320);
place = (200, 320);
type = Stem;
}
);
layerId = m01;
shapes = (
{
closed = 1;
nodes = (
(400,320,l),
(280,280,l),
(160,320,l),
(80,440,l),
(80,600,l),
(200,720,l),
(360,800,l),
(440,800,l),
(600,720,l),
(640,600,l),
(640,440,l),
(560,240,l),
(400,80,l),
(240,0,l),
(160,0,l),
(0,80,l),
(0,120,l),
(80,240,l),
(120,240,l),
(120,80,l),
(200,40,l),
(280,80,l),
(440,280,l),
(520,440,l)
);
},
{
closed = 1;
nodes = (
(520,520,l),
(520,600,l),
(480,720,l),
(400,760,l),
(320,720,l),
(200,600,l),
(200,440,l),
(280,360,l),
(360,360,l)
);
}
);
width = 680;
},
{
hints = (
{
horizontal = 1;
place = (600, -20);
target = down;
type = TopGhost;
},
{
place = (0, 640);
place = (0, 640);
type = Stem;
},
{
place = (200, 320);
place = (200, 320);
type = Stem;
}
);
layerId = "45DABB71-BDAF-41D9-9CB5-36007FEF02C0";
shapes = (
{
closed = 1;
nodes = (
(400,320,l),
(280,280,l),
(160,320,l),
(80,440,l),
(80,600,l),
(200,720,l),
(360,800,l),
(440,800,l),
(600,720,l),
(640,600,l),
(640,440,l),
(560,240,l),
(400,80,l),
(240,0,l),
(160,0,l),
(0,80,l),
(0,120,l),
(80,240,l),
(120,240,l),
(120,80,l),
(200,40,l),
(280,80,l),
(440,280,l),
(520,440,l)
);
},
{
closed = 1;
nodes = (
(520,520,l),
(520,600,l),
(480,720,l),
(400,760,l),
(320,720,l),
(200,600,l),
(200,440,l),
(280,360,l),
(360,360,l)
);
}
);
width = 680;
}
);
note = nine;
unicode = 57;
},
{
glyphname = percent;
lastChange = "2024-02-26 21:22:19 +0000";
layers = (
{
hints = (
{
horizontal = 1;
place = (560, -20);
target = down;
type = TopGhost;
},
{
place = (160, 160);
place = (160, 160);
type = Stem;
},
{
place = (440, 160);
place = (440, 160);
type = Stem;
}
);
layerId = m01;
shapes = (
{
closed = 1;
nodes = (
(760,840,l),
(80,-40,l),
(0,-40,l),
(680,840,l)
);
},
{
closed = 1;
nodes = (
(360,800,l),
(400,760,l),
(440,640,l),
(320,440,l),
(200,400,l),
(120,400,l),
(80,440,l),
(40,560,l),
(160,760,l),
(280,800,l)
);
},
{
closed = 1;
nodes = (
(240,720,l),
(160,560,l),
(160,480,l),
(200,440,l),
(240,480,l),
(320,640,l),
(320,720,l),
(280,760,l)
);
},
{
closed = 1;
nodes = (
(640,400,l),
(680,360,l),
(720,240,l),
(600,40,l),
(480,0,l),
(400,0,l),
(360,40,l),
(320,160,l),
(440,360,l),
(560,400,l)
);
},
{
closed = 1;
nodes = (
(520,320,l),
(440,160,l),
(440,80,l),
(480,40,l),
(520,80,l),
(600,240,l),
(600,320,l),
(560,360,l)
);
}
);
width = 760;
},
{
hints = (
{
horizontal = 1;
place = (560, -20);
target = down;
type = TopGhost;
},
{
place = (160, 160);
place = (160, 160);
type = Stem;
},
{
place = (440, 160);
place = (440, 160);
type = Stem;
}
);
layerId = "45DABB71-BDAF-41D9-9CB5-36007FEF02C0";
shapes = (
{
closed = 1;
nodes = (
(760,840,l),
(80,-40,l),
(0,-40,l),
(680,840,l)
);
},
{
closed = 1;
nodes = (
(360,800,l),
(400,760,l),
(440,640,l),
(320,440,l),
(200,400,l),
(120,400,l),
(80,440,l),
(40,560,l),
(160,760,l),
(280,800,l)
);
},
{
closed = 1;
nodes = (
(240,720,l),
(160,560,l),
(160,480,l),
(200,440,l),
(240,480,l),
(320,640,l),
(320,720,l),
(280,760,l)
);
},
{
closed = 1;
nodes = (
(640,400,l),
(680,360,l),
(720,240,l),
(600,40,l),
(480,0,l),
(400,0,l),
(360,40,l),
(320,160,l),
(440,360,l),
(560,400,l)
);
},
{
closed = 1;
nodes = (
(520,320,l),
(440,160,l),
(440,80,l),
(480,40,l),
(520,80,l),
(600,240,l),
(600,320,l),
(560,360,l)
);
}
);
width = 760;
}
);
note = percent;
unicode = 37;
},
{
glyphname = plus;
kernLeft = plus;
lastChange = "2024-02-26 21:22:19 +0000";
layers = (
{
hints = (
{
horizontal = 1;
place = (40, 560);
place = (40, 560);
type = Stem;
},
{
place = (0, 560);
place = (0, 560);
type = Stem;
}
);
layerId = m01;
shapes = (
{
closed = 1;
nodes = (
(240,360,l),
(240,600,l),
(320,600,l),
(320,360,l),
(560,360,l),
(560,280,l),
(320,280,l),
(320,40,l),
(240,40,l),
(240,280,l),
(0,280,l),
(0,360,l)
);
}
);
width = 600;
},
{
hints = (
{
horizontal = 1;
place = (40, 560);
place = (40, 560);
type = Stem;
},
{
place = (0, 560);
place = (0, 560);
type = Stem;
}
);
layerId = "45DABB71-BDAF-41D9-9CB5-36007FEF02C0";
shapes = (
{
closed = 1;
nodes = (
(240,360,l),
(240,600,l),
(320,600,l),
(320,360,l),
(560,360,l),
(560,280,l),
(320,280,l),
(320,40,l),
(240,40,l),
(240,280,l),
(0,280,l),
(0,360,l)
);
}
);
width = 600;
}
);
note = plus;
unicode = 43;
},
{
glyphname = minus;
kernLeft = hyphen;
kernRight = hyphen;
lastChange = "2024-02-26 21:22:19 +0000";
layers = (
{
hints = (
{
horizontal = 1;
place = (280, 80);
place = (280, 80);
type = Stem;
},
{
place = (40, 480);
place = (40, 480);
type = Stem;
}
);
layerId = m01;
shapes = (
{
closed = 1;
nodes = (
(520,360,l),
(520,280,l),
(40,280,l),
(40,360,l)
);
}
);
width = 560;
},
{
hints = (
{
horizontal = 1;
place = (280, 80);
place = (280, 80);
type = Stem;
},
{
place = (40, 480);
place = (40, 480);
type = Stem;
}
);
layerId = "45DABB71-BDAF-41D9-9CB5-36007FEF02C0";
shapes = (
{
closed = 1;
nodes = (
(520,360,l),
(520,280,l),
(40,280,l),
(40,360,l)
);
}
);
width = 560;
}
);
note = minus;
unicode = 8722;
},
{
glyphname = plusminus;
lastChange = "2024-02-26 21:22:19 +0000";
layers = (
{
hints = (
{
horizontal = 1;
place = (80, 80);
place = (80, 80);
type = Stem;
},
{
place = (0, 560);
place = (0, 560);
type = Stem;
}
);
layerId = m01;
shapes = (
{
closed = 1;
nodes = (
(240,480,l),
(240,720,l),
(320,720,l),
(320,480,l),
(560,480,l),
(560,400,l),
(320,400,l),
(320,160,l),
(240,160,l),
(240,400,l),
(0,400,l),
(0,480,l)
);
},
{
closed = 1;
nodes = (
(520,80,l),
(520,0,l),
(40,0,l),
(40,80,l)
);
}
);
width = 600;
},
{
hints = (
{
horizontal = 1;
place = (80, 80);
place = (80, 80);
type = Stem;
},
{
place = (0, 560);
place = (0, 560);
type = Stem;
}
);
layerId = "45DABB71-BDAF-41D9-9CB5-36007FEF02C0";
shapes = (
{
closed = 1;
nodes = (
(240,480,l),
(240,720,l),
(320,720,l),
(320,480,l),
(560,480,l),
(560,400,l),
(320,400,l),
(320,160,l),
(240,160,l),
(240,400,l),
(0,400,l),
(0,480,l)
);
},
{
closed = 1;
nodes = (
(520,80,l),
(520,0,l),
(40,0,l),
(40,80,l)
);
}
);
width = 600;
}
);
note = plusminus;
unicode = 177;
},
{
glyphname = multiply;
lastChange = "2024-02-26 21:22:19 +0000";
layers = (
{
hints = (
{
horizontal = 1;
place = (80, 480);
place = (80, 480);
type = Stem;
},
{
place = (80, 481);
place = (80, 481);
type = Stem;
}
);
layerId = m01;
shapes = (
{
closed = 1;
nodes = (
(281,320,l),
(80,480,l),
(161,560,l),
(321,360,l),
(481,560,l),
(561,480,l),
(361,320,l),
(561,160,l),
(481,80,l),
(321,280,l),
(161,80,l),
(81,160,l)
);
}
);
width = 641;
},
{
hints = (
{
horizontal = 1;
place = (80, 480);
place = (80, 480);
type = Stem;
},
{
place = (80, 481);
place = (80, 481);
type = Stem;
}
);
layerId = "45DABB71-BDAF-41D9-9CB5-36007FEF02C0";
shapes = (
{
closed = 1;
nodes = (
(281,320,l),
(80,480,l),
(161,560,l),
(321,360,l),
(481,560,l),
(561,480,l),
(361,320,l),
(561,160,l),
(481,80,l),
(321,280,l),
(161,80,l),
(81,160,l)
);
}
);
width = 641;
}
);
note = multiply;
unicode = 215;
},
{
glyphname = divide;
kernLeft = plus;
lastChange = "2024-02-26 21:22:19 +0000";
layers = (
{
hints = (
{
horizontal = 1;
place = (200, 80);
place = (200, 80);
type = Stem;
},
{
horizontal = 1;
place = (320, 80);
place = (320, 80);
type = Stem;
},
{
place = (80, 360);
place = (80, 360);
type = Stem;
}
);
layerId = m01;
shapes = (
{
closed = 1;
nodes = (
(280,520,l),
(320,480,l),
(320,440,l),
(280,400,l),
(240,400,l),
(200,440,l),
(200,480,l),
(240,520,l)
);
},
{
closed = 1;
nodes = (
(440,320,l),
(440,280,l),
(80,280,l),
(80,320,l)
);
},
{
closed = 1;
nodes = (
(240,80,l),
(200,120,l),
(200,160,l),
(240,200,l),
(280,200,l),
(320,160,l),
(320,120,l),
(280,80,l)
);
}
);
width = 480;
},
{
hints = (
{
horizontal = 1;
place = (200, 80);
place = (200, 80);
type = Stem;
},
{
horizontal = 1;
place = (320, 80);
place = (320, 80);
type = Stem;
},
{
place = (80, 360);
place = (80, 360);
type = Stem;
}
);
layerId = "45DABB71-BDAF-41D9-9CB5-36007FEF02C0";
shapes = (
{
closed = 1;
nodes = (
(280,520,l),
(320,480,l),
(320,440,l),
(280,400,l),
(240,400,l),
(200,440,l),
(200,480,l),
(240,520,l)
);
},
{
closed = 1;
nodes = (
(440,320,l),
(440,280,l),
(80,280,l),
(80,320,l)
);
},
{
closed = 1;
nodes = (
(240,80,l),
(200,120,l),
(200,160,l),
(240,200,l),
(280,200,l),
(320,160,l),
(320,120,l),
(280,80,l)
);
}
);
width = 480;
}
);
note = divide;
unicode = 247;
},
{
glyphname = equal;
lastChange = "2024-02-26 21:22:19 +0000";
layers = (
{
hints = (
{
horizontal = 1;
place = (280, 80);
place = (280, 80);
type = Stem;
},
{
place = (40, 480);
place = (40, 480);
type = Stem;
}
);
layerId = m01;
shapes = (
{
closed = 1;
nodes = (
(40,360,l),
(40,440,l),
(520,440,l),
(520,360,l)
);
},
{
closed = 1;
nodes = (
(40,200,l),
(40,280,l),
(520,280,l),
(520,200,l)
);
}
);
width = 560;
},
{
hints = (
{
horizontal = 1;
place = (280, 80);
place = (280, 80);
type = Stem;
},
{
place = (40, 480);
place = (40, 480);
type = Stem;
}
);
layerId = "45DABB71-BDAF-41D9-9CB5-36007FEF02C0";
shapes = (
{
closed = 1;
nodes = (
(40,360,l),
(40,440,l),
(520,440,l),
(520,360,l)
);
},
{
closed = 1;
nodes = (
(40,200,l),
(40,280,l),
(520,280,l),
(520,200,l)
);
}
);
width = 560;
}
);
note = equal;
unicode = 61;
},
{
glyphname = approxequal;
lastChange = "2024-02-26 21:22:19 +0000";
layers = (
{
hints = (
{
horizontal = 1;
place = (320, 40);
place = (320, 40);
type = Stem;
},
{
place = (200, 440);
place = (200, 440);
type = Stem;
}
);
layerId = m01;
shapes = (
{
closed = 1;
nodes = (
(640,480,l),
(520,360,l),
(440,360,l),
(360,440,l),
(240,360,l),
(200,400,l),
(320,520,l),
(400,520,l),
(480,440,l),
(600,520,l)
);
},
{
closed = 1;
nodes = (
(640,280,l),
(520,160,l),
(440,160,l),
(360,240,l),
(240,160,l),
(200,200,l),
(320,320,l),
(400,320,l),
(480,240,l),
(600,320,l)
);
}
);
width = 833;
},
{
hints = (
{
horizontal = 1;
place = (320, 40);
place = (320, 40);
type = Stem;
},
{
place = (200, 440);
place = (200, 440);
type = Stem;
}
);
layerId = "45DABB71-BDAF-41D9-9CB5-36007FEF02C0";
shapes = (
{
closed = 1;
nodes = (
(640,480,l),
(520,360,l),
(440,360,l),
(360,440,l),
(240,360,l),
(200,400,l),
(320,520,l),
(400,520,l),
(480,440,l),
(600,520,l)
);
},
{
closed = 1;
nodes = (
(640,280,l),
(520,160,l),
(440,160,l),
(360,240,l),
(240,160,l),
(200,200,l),
(320,320,l),
(400,320,l),
(480,240,l),
(600,320,l)
);
}
);
width = 833;
}
);
note = approxequal;
unicode = 8776;
},
{
glyphname = less;
kernLeft = less;
lastChange = "2024-02-26 21:22:19 +0000";
layers = (
{
hints = (
{
horizontal = 1;
place = (40, 560);
place = (40, 560);
type = Stem;
},
{
place = (80, 360);
place = (80, 360);
type = Stem;
}
);
layerId = m01;
shapes = (
{
closed = 1;
nodes = (
(80,359,l),
(400,600,l),
(440,520,l),
(120,320,l),
(440,120,l),
(400,40,l),
(80,280,l)
);
}
);
width = 480;
},
{
hints = (
{
horizontal = 1;
place = (40, 560);
place = (40, 560);
type = Stem;
},
{
place = (80, 360);
place = (80, 360);
type = Stem;
}
);
layerId = "45DABB71-BDAF-41D9-9CB5-36007FEF02C0";
shapes = (
{
closed = 1;
nodes = (
(80,359,l),
(400,600,l),
(440,520,l),
(120,320,l),
(440,120,l),
(400,40,l),
(80,280,l)
);
}
);
width = 480;
}
);
note = less;
unicode = 60;
},
{
glyphname = greater;
kernRight = greater;
lastChange = "2024-02-26 21:22:19 +0000";
layers = (
{
hints = (
{
horizontal = 1;
place = (40, 560);
place = (40, 560);
type = Stem;
},
{
place = (40, 360);
place = (40, 360);
type = Stem;
}
);
layerId = m01;
shapes = (
{
closed = 1;
nodes = (
(40,120,l),
(360,320,l),
(40,520,l),
(80,600,l),
(400,359,l),
(400,280,l),
(80,40,l)
);
}
);
width = 480;
},
{
hints = (
{
horizontal = 1;
place = (40, 560);
place = (40, 560);
type = Stem;
},
{
place = (40, 360);
place = (40, 360);
type = Stem;
}
);
layerId = "45DABB71-BDAF-41D9-9CB5-36007FEF02C0";
shapes = (
{
closed = 1;
nodes = (
(40,120,l),
(360,320,l),
(40,520,l),
(80,600,l),
(400,359,l),
(400,280,l),
(80,40,l)
);
}
);
width = 480;
}
);
note = greater;
unicode = 62;
},
{
glyphname = lessequal;
lastChange = "2024-02-26 21:22:19 +0000";
layers = (
{
hints = (
{
horizontal = 1;
place = (80, 40);
place = (80, 40);
type = Stem;
},
{
horizontal = 1;
place = (600, -20);
target = down;
type = TopGhost;
},
{
place = (40, 480);
place = (40, 480);
type = Stem;
}
);
layerId = m01;
shapes = (
{
closed = 1;
nodes = (
(80,439,l),
(440,680,l),
(480,600,l),
(120,400,l),
(480,200,l),
(440,120,l),
(80,360,l)
);
},
{
closed = 1;
nodes = (
(520,80,l),
(520,0,l),
(40,0,l),
(40,80,l)
);
}
);
width = 520;
},
{
hints = (
{
horizontal = 1;
place = (80, 40);
place = (80, 40);
type = Stem;
},
{
horizontal = 1;
place = (600, -20);
target = down;
type = TopGhost;
},
{
place = (40, 480);
place = (40, 480);
type = Stem;
}
);
layerId = "45DABB71-BDAF-41D9-9CB5-36007FEF02C0";
shapes = (
{
closed = 1;
nodes = (
(80,439,l),
(440,680,l),
(480,600,l),
(120,400,l),
(480,200,l),
(440,120,l),
(80,360,l)
);
},
{
closed = 1;
nodes = (
(520,80,l),
(520,0,l),
(40,0,l),
(40,80,l)
);
}
);
width = 520;
}
);
note = lessequal;
unicode = 8804;
},
{
glyphname = greaterequal;
lastChange = "2024-02-26 21:22:19 +0000";
layers = (
{
hints = (
{
horizontal = 1;
place = (80, 40);
place = (80, 40);
type = Stem;
},
{
place = (0, 480);
place = (0, 480);
type = Stem;
}
);
layerId = m01;
shapes = (
{
closed = 1;
nodes = (
(40,200,l),
(400,400,l),
(40,600,l),
(80,680,l),
(440,439,l),
(440,360,l),
(80,120,l)
);
},
{
closed = 1;
nodes = (
(480,80,l),
(480,0,l),
(0,0,l),
(0,80,l)
);
}
);
width = 520;
},
{
hints = (
{
horizontal = 1;
place = (80, 40);
place = (80, 40);
type = Stem;
},
{
place = (0, 480);
place = (0, 480);
type = Stem;
}
);
layerId = "45DABB71-BDAF-41D9-9CB5-36007FEF02C0";
shapes = (
{
closed = 1;
nodes = (
(40,200,l),
(400,400,l),
(40,600,l),
(80,680,l),
(440,439,l),
(440,360,l),
(80,120,l)
);
},
{
closed = 1;
nodes = (
(480,80,l),
(480,0,l),
(0,0,l),
(0,80,l)
);
}
);
width = 520;
}
);
note = greaterequal;
unicode = 8805;
},
{
glyphname = degree;
kernRight = degree;
lastChange = "2024-02-26 21:22:19 +0000";
layers = (
{
hints = (
{
horizontal = 1;
place = (560, 40);
place = (560, 40);
type = Stem;
},
{
horizontal = 1;
place = (840, 40);
place = (840, 40);
type = Stem;
},
{
place = (80, 80);
place = (80, 80);
type = Stem;
},
{
place = (320, 80);
place = (320, 80);
type = Stem;
}
);
layerId = m01;
shapes = (
{
closed = 1;
nodes = (
(80,680,l),
(200,560,l),
(280,560,l),
(400,680,l),
(400,760,l),
(280,880,l),
(200,880,l),
(80,760,l)
);
},
{
closed = 1;
nodes = (
(160,760,l),
(240,840,l),
(320,760,l),
(320,680,l),
(240,600,l),
(160,680,l)
);
}
);
width = 480;
},
{
hints = (
{
horizontal = 1;
place = (560, 40);
place = (560, 40);
type = Stem;
},
{
horizontal = 1;
place = (840, 40);
place = (840, 40);
type = Stem;
},
{
place = (80, 80);
place = (80, 80);
type = Stem;
},
{
place = (320, 80);
place = (320, 80);
type = Stem;
}
);
layerId = "45DABB71-BDAF-41D9-9CB5-36007FEF02C0";
shapes = (
{
closed = 1;
nodes = (
(80,680,l),
(200,560,l),
(280,560,l),
(400,680,l),
(400,760,l),
(280,880,l),
(200,880,l),
(80,760,l)
);
},
{
closed = 1;
nodes = (
(160,760,l),
(240,840,l),
(320,760,l),
(320,680,l),
(240,600,l),
(160,680,l)
);
}
);
width = 480;
}
);
note = degree;
unicode = 176;
},
{
glyphname = notequal;
lastChange = "2024-02-26 21:22:19 +0000";
layers = (
{
hints = (
{
horizontal = 1;
place = (200, 80);
place = (200, 80);
type = Stem;
},
{
horizontal = 1;
place = (360, 80);
place = (360, 80);
type = Stem;
},
{
place = (0, 480);
place = (0, 480);
type = Stem;
},
{
horizontal = 1;
place = (360, 200);
place = (360, 200);
type = Stem;
}
);
layerId = m01;
shapes = (
{
closed = 1;
nodes = (
(480,440,l),
(340,440,l),
(400,560,l),
(320,560,l),
(260,440,l),
(0,440,l),
(0,360,l),
(220,360,l),
(180,280,l),
(0,280,l),
(0,200,l),
(140,200,l),
(80,80,l),
(160,80,l),
(220,200,l),
(480,200,l),
(480,280,l),
(260,280,l),
(300,360,l),
(480,360,l)
);
}
);
width = 520;
},
{
hints = (
{
horizontal = 1;
place = (200, 80);
place = (200, 80);
type = Stem;
},
{
horizontal = 1;
place = (360, 80);
place = (360, 80);
type = Stem;
},
{
place = (0, 480);
place = (0, 480);
type = Stem;
},
{
horizontal = 1;
place = (360, 200);
place = (360, 200);
type = Stem;
}
);
layerId = "45DABB71-BDAF-41D9-9CB5-36007FEF02C0";
shapes = (
{
closed = 1;
nodes = (
(480,440,l),
(340,440,l),
(400,560,l),
(320,560,l),
(260,440,l),
(0,440,l),
(0,360,l),
(220,360,l),
(180,280,l),
(0,280,l),
(0,200,l),
(140,200,l),
(80,80,l),
(160,80,l),
(220,200,l),
(480,200,l),
(480,280,l),
(260,280,l),
(300,360,l),
(480,360,l)
);
}
);
width = 520;
}
);
note = notequal;
unicode = 8800;
},
{
glyphname = fraction;
lastChange = "2024-02-26 21:22:19 +0000";
layers = (
{
layerId = m01;
shapes = (
{
closed = 1;
nodes = (
(600,840,l),
(-80,-40,l),
(-160,-40,l),
(520,840,l)
);
}
